<svg width="17" height="16" viewBox="0 0 17 16" fill="none" xmlns="http://www.w3.org/2000/svg">
<path d="M13.1402 12.9987C12.5869 13.8254 12.0002 14.632 11.1069 14.6454C10.2136 14.6654 9.92689 14.1187 8.91356 14.1187C7.89356 14.1187 7.58022 14.632 6.73356 14.6654C5.86022 14.6987 5.20022 13.7854 4.64022 12.9787C3.50022 11.332 2.62689 8.2987 3.80022 6.2587C4.38022 5.24536 5.42022 4.60536 6.54689 4.58536C7.40022 4.57203 8.21356 5.16536 8.74022 5.16536C9.26022 5.16536 10.2469 4.45203 11.2802 4.5587C11.7136 4.5787 12.9269 4.73203 13.7069 5.8787C13.6469 5.9187 12.2602 6.73203 12.2736 8.4187C12.2936 10.432 14.0402 11.1054 14.0602 11.112C14.0402 11.1587 13.7802 12.072 13.1402 12.9987ZM9.33356 2.33203C9.82022 1.7787 10.6269 1.3587 11.2936 1.33203C11.3802 2.11203 11.0669 2.8987 10.6002 3.4587C10.1402 4.02536 9.38022 4.46536 8.63356 4.40536C8.53356 3.6387 8.90689 2.8387 9.33356 2.33203Z" fill="white"/>
</svg>
