<svg width="20" height="20" viewBox="0 0 20 20" fill="none" xmlns="http://www.w3.org/2000/svg">
<path d="M12.5 11.6673V9.16732H15V7.50065L18.3333 10.4173L15 13.334V11.6673H12.5ZM11.6666 6.41732V7.50065H1.66663V6.41732L6.66663 3.33398L11.6666 6.41732ZM5.83329 8.33398H7.49996V12.5007H5.83329V8.33398ZM2.49996 8.33398H4.16663V12.5007H2.49996V8.33398ZM10.8333 8.33398V10.4173L9.16663 11.9173V8.33398H10.8333ZM7.58329 13.334L7.08329 13.7507L8.49996 15.0007H1.66663V13.334H7.58329ZM14.1666 12.5007V15.0007H11.6666V16.6673L8.33329 13.7507L11.6666 10.834V12.5007H14.1666Z" fill="#E0E0E0"/>
</svg>
