<svg width="20" height="21" viewBox="0 0 20 21" fill="none" xmlns="http://www.w3.org/2000/svg">
<path d="M4.875 3.42328C4.97932 3.29896 5.03119 3.13893 5.01964 2.97705C5.00809 2.81517 4.93402 2.66413 4.81311 2.55588C4.69219 2.44763 4.53391 2.39066 4.37174 2.39702C4.20957 2.40337 4.05624 2.47256 3.94417 2.58995C2.92039 3.73182 2.24186 5.1409 1.9875 6.65328C1.96397 6.81499 2.00472 6.97949 2.10101 7.11153C2.19729 7.24356 2.34147 7.33264 2.50263 7.35966C2.6638 7.38669 2.82914 7.34951 2.96323 7.25611C3.09732 7.1627 3.18949 7.02049 3.22 6.85995C3.43511 5.58079 4.00904 4.38901 4.875 3.42328ZM16.0558 2.58995C16.0013 2.52823 15.935 2.4779 15.861 2.44187C15.7869 2.40583 15.7064 2.3848 15.6242 2.37998C15.5419 2.37516 15.4595 2.38664 15.3818 2.41377C15.304 2.4409 15.2323 2.48314 15.1709 2.53807C15.1095 2.59299 15.0596 2.65951 15.024 2.7338C14.9884 2.80809 14.9678 2.88869 14.9634 2.97095C14.9591 3.05322 14.9711 3.13553 14.9987 3.21316C15.0262 3.29079 15.0689 3.3622 15.1242 3.42328C15.9904 4.38894 16.5646 5.58071 16.78 6.85995C16.8074 7.0235 16.8987 7.16946 17.0337 7.26573C17.1005 7.3134 17.1761 7.34743 17.2561 7.36588C17.3362 7.38434 17.419 7.38685 17.5 7.37328C17.581 7.35971 17.6585 7.33032 17.7281 7.2868C17.7977 7.24327 17.8581 7.18645 17.9058 7.1196C17.9535 7.05274 17.9875 6.97714 18.0059 6.89713C18.0244 6.81712 18.0269 6.73426 18.0133 6.65328C17.7585 5.14073 17.0802 3.73165 16.0558 2.58995Z" fill="#7D7AFF"/>
<path fill-rule="evenodd" clip-rule="evenodd" d="M10 2.38281C8.50816 2.38281 7.07742 2.97544 6.02253 4.03034C4.96763 5.08523 4.375 6.51597 4.375 8.00781V8.63281C4.37757 10.3321 3.74817 11.9717 2.60917 13.2328C2.54077 13.3087 2.49201 13.4002 2.46716 13.4993C2.44232 13.5984 2.44214 13.702 2.46664 13.8012C2.49115 13.9004 2.53959 13.992 2.60773 14.0682C2.67587 14.1443 2.76163 14.2025 2.8575 14.2378C4.14417 14.7128 5.49084 15.0628 6.88334 15.2736C6.85198 15.7021 6.90931 16.1324 7.05173 16.5377C7.19415 16.943 7.4186 17.3146 7.71108 17.6293C8.00356 17.9439 8.35777 18.1949 8.7516 18.3665C9.14542 18.5381 9.57041 18.6267 10 18.6267C10.4296 18.6267 10.8546 18.5381 11.2484 18.3665C11.6422 18.1949 11.9964 17.9439 12.2889 17.6293C12.5814 17.3146 12.8059 16.943 12.9483 16.5377C13.0907 16.1324 13.148 15.7021 13.1167 15.2736C14.49 15.0654 15.8386 14.7181 17.1417 14.237C17.2374 14.2016 17.323 14.1434 17.391 14.0674C17.4591 13.9913 17.5074 13.8998 17.5319 13.8007C17.5564 13.7017 17.5563 13.5981 17.5316 13.4991C17.5068 13.4001 17.4582 13.3087 17.39 13.2328C16.2513 11.9716 15.6222 10.332 15.625 8.63281V8.00781C15.625 6.51597 15.0324 5.08523 13.9775 4.03034C12.9226 2.97544 11.4918 2.38281 10 2.38281ZM8.125 15.5078C8.125 15.4795 8.125 15.452 8.12667 15.4245C9.37303 15.5368 10.627 15.5368 11.8733 15.4245L11.875 15.5078C11.875 16.0051 11.6775 16.482 11.3258 16.8336C10.9742 17.1853 10.4973 17.3828 10 17.3828C9.50272 17.3828 9.02581 17.1853 8.67418 16.8336C8.32255 16.482 8.125 16.0051 8.125 15.5078Z" fill="#7D7AFF"/>
</svg>
