<svg width="20" height="20" viewBox="0 0 20 20" fill="none" xmlns="http://www.w3.org/2000/svg">
<path d="M14.1666 16.6673H18.3333V15.0007C18.3333 13.6199 17.214 12.5007 15.8333 12.5007C15.037 12.5007 14.3276 12.873 13.8698 13.4531M14.1666 16.6673H5.83329M14.1666 16.6673V15.0007C14.1666 14.4538 14.0613 13.9315 13.8698 13.4531M5.83329 16.6673H1.66663V15.0007C1.66663 13.6199 2.78591 12.5007 4.16663 12.5007C4.96297 12.5007 5.67234 12.873 6.13016 13.4531M5.83329 16.6673V15.0007C5.83329 14.4538 5.93865 13.9315 6.13016 13.4531M6.13016 13.4531C6.74454 11.9182 8.24564 10.834 9.99996 10.834C11.7543 10.834 13.2554 11.9182 13.8698 13.4531M12.5 5.83398C12.5 7.2147 11.3807 8.33398 9.99996 8.33398C8.61925 8.33398 7.49996 7.2147 7.49996 5.83398C7.49996 4.45327 8.61925 3.33398 9.99996 3.33398C11.3807 3.33398 12.5 4.45327 12.5 5.83398ZM17.5 8.33398C17.5 9.25446 16.7538 10.0007 15.8333 10.0007C14.9128 10.0007 14.1666 9.25446 14.1666 8.33398C14.1666 7.41351 14.9128 6.66732 15.8333 6.66732C16.7538 6.66732 17.5 7.41351 17.5 8.33398ZM5.83329 8.33398C5.83329 9.25446 5.0871 10.0007 4.16663 10.0007C3.24615 10.0007 2.49996 9.25446 2.49996 8.33398C2.49996 7.41351 3.24615 6.66732 4.16663 6.66732C5.0871 6.66732 5.83329 7.41351 5.83329 8.33398Z" stroke="#8F8F8F" stroke-width="1.5" stroke-linecap="round" stroke-linejoin="round"/>
</svg>
