<svg width="20" height="20" viewBox="0 0 20 20" fill="none" xmlns="http://www.w3.org/2000/svg">
<path d="M5 9.16797C5 6.8113 5 5.63214 5.7325 4.90047C6.46417 4.16797 7.64333 4.16797 10 4.16797H12.5C14.8567 4.16797 16.0358 4.16797 16.7675 4.90047C17.5 5.63214 17.5 6.8113 17.5 9.16797V13.3346C17.5 15.6913 17.5 16.8705 16.7675 17.6021C16.0358 18.3346 14.8567 18.3346 12.5 18.3346H10C7.64333 18.3346 6.46417 18.3346 5.7325 17.6021C5 16.8705 5 15.6913 5 13.3346V9.16797Z" stroke="#E0E0E0"/>
<path d="M5 15.8346C4.33696 15.8346 3.70107 15.5712 3.23223 15.1024C2.76339 14.6336 2.5 13.9977 2.5 13.3346V8.33464C2.5 5.19214 2.5 3.62047 3.47667 2.64464C4.4525 1.66797 6.02417 1.66797 9.16667 1.66797H12.5C13.163 1.66797 13.7989 1.93136 14.2678 2.4002C14.7366 2.86904 15 3.50493 15 4.16797" stroke="#E0E0E0"/>
</svg>
