<svg width="48" height="48" viewBox="0 0 48 48" fill="none" xmlns="http://www.w3.org/2000/svg">
<rect x="0.5" y="0.5" width="47" height="47" rx="23.5" stroke="#1F252F"/>
<path fill-rule="evenodd" clip-rule="evenodd" d="M27.506 29.5187C27.9491 30.0879 28.4807 30.748 28.4807 30.748C29.3599 30.7709 30.2312 30.5727 31.0189 30.1706C31.8065 29.7686 32.4866 29.1749 33 28.4412C32.9521 25.3646 32.2249 22.3393 30.8733 19.5935C29.6839 18.6336 28.2338 18.0768 26.7233 18L26.5165 18.2428C27.8607 18.6083 29.114 19.2626 30.1939 20.1626C28.8188 19.3837 27.3086 18.8888 25.7485 18.7057C24.758 18.6015 23.7589 18.6193 22.7726 18.7588C22.6882 18.7614 22.6042 18.7716 22.5215 18.7891C21.3624 18.9222 20.231 19.2423 19.169 19.7376C18.6225 19.9881 18.2976 20.1778 18.2976 20.1778C19.4324 19.231 20.756 18.5523 22.1745 18.1897L22.0267 18C20.5162 18.0768 19.0662 18.6336 17.8767 19.5935C16.5251 22.3393 15.7979 25.3646 15.75 28.4412C16.2593 29.1756 16.9365 29.7702 17.722 30.1724C18.5075 30.5747 19.3772 30.7723 20.2545 30.748C20.2545 30.748 20.4274 30.5295 20.6575 30.237C20.8365 30.0096 21.0502 29.7374 21.244 29.4884C20.2057 29.2193 19.2915 28.5858 18.6594 27.6976C19.1871 28.0585 19.7516 28.3588 20.3431 28.593C21.0459 28.878 21.7726 29.0964 22.5141 29.2456C23.7771 29.4951 25.0744 29.5002 26.3392 29.2607C27.0751 29.1285 27.7937 28.9095 28.4807 28.6082C29.078 28.3765 29.6477 28.0762 30.1792 27.7128C29.5235 28.62 28.5766 29.2598 27.506 29.5187ZM20.5383 24.2001C20.818 23.8881 21.2017 23.6955 21.6132 23.6607C21.8203 23.6683 22.0238 23.718 22.2119 23.807C22.4 23.896 22.5691 24.0226 22.7092 24.1793C22.8494 24.3361 22.9579 24.5198 23.0283 24.72C23.0988 24.9201 23.1298 25.1327 23.1197 25.3453C23.1286 25.5576 23.0967 25.7696 23.0257 25.9692C22.9549 26.1688 22.8463 26.3521 22.7064 26.5085C22.5665 26.665 22.3979 26.7916 22.2104 26.8811C22.0227 26.9705 21.8199 27.021 21.6132 27.0299C21.2017 26.9951 20.818 26.8025 20.5383 26.4904C20.2585 26.1783 20.1032 25.7696 20.1032 25.3453C20.1032 24.921 20.2585 24.5122 20.5383 24.2001ZM26.0548 23.8742C26.3431 23.7065 26.6738 23.6321 27.0039 23.6607C27.2105 23.6695 27.4134 23.7201 27.601 23.8095C27.7886 23.899 27.9571 24.0255 28.097 24.182C28.237 24.3385 28.3455 24.5217 28.4164 24.7213C28.4873 24.9209 28.5192 25.133 28.5103 25.3453C28.5103 25.6856 28.4102 26.0181 28.2232 26.299C28.0363 26.58 27.7712 26.7964 27.4625 26.9199C27.1539 27.0435 26.8162 27.0684 26.4935 26.9915C26.1709 26.9145 25.8783 26.7392 25.6542 26.4886C25.4301 26.238 25.2849 25.9237 25.2375 25.5869C25.1901 25.25 25.2427 24.9063 25.3886 24.6007C25.5344 24.2951 25.7666 24.0419 26.0548 23.8742Z" fill="#EDEDFF"/>
</svg>
