<svg width="141" height="65" viewBox="0 0 141 65" fill="none" xmlns="http://www.w3.org/2000/svg">
<path fill-rule="evenodd" clip-rule="evenodd" d="M25.4803 25.2099V34.3799C25.4784 34.5037 25.445 34.625 25.3834 34.7324C25.3217 34.8398 25.2337 34.9297 25.1277 34.9937C25.0217 35.0577 24.9011 35.0937 24.7774 35.0983C24.6536 35.1029 24.5307 35.0759 24.4203 35.0199L15.2503 30.2999C15.1305 30.2387 15.03 30.1456 14.9599 30.0309C14.8897 29.9162 14.8525 29.7844 14.8525 29.6499C14.8525 29.5154 14.8897 29.3836 14.9599 29.2689C15.03 29.1542 15.1305 29.0611 15.2503 28.9999L24.4203 24.5499C24.5296 24.5063 24.6478 24.4899 24.7649 24.5018C24.882 24.5138 24.9944 24.554 25.0926 24.6188C25.1908 24.6836 25.2719 24.7712 25.329 24.8741C25.386 24.9771 25.4173 25.0923 25.4203 25.2099" fill="#484AFD"/>
<mask id="mask0_734_6017" style="mask-type:luminance" maskUnits="userSpaceOnUse" x="14" y="24" width="12" height="12">
<path d="M25.4803 25.2099V34.3799C25.4784 34.5037 25.445 34.625 25.3834 34.7324C25.3217 34.8398 25.2337 34.9297 25.1277 34.9937C25.0217 35.0577 24.9011 35.0937 24.7774 35.0983C24.6536 35.1029 24.5307 35.0759 24.4203 35.0199L15.2503 30.2999C15.1305 30.2387 15.03 30.1456 14.9599 30.0309C14.8897 29.9162 14.8525 29.7844 14.8525 29.6499C14.8525 29.5154 14.8897 29.3836 14.9599 29.2689C15.03 29.1542 15.1305 29.0611 15.2503 28.9999L24.4203 24.5499C24.5296 24.5063 24.6478 24.4899 24.7649 24.5018C24.882 24.5138 24.9944 24.554 25.0926 24.6188C25.1908 24.6836 25.2719 24.7712 25.329 24.8741C25.386 24.9771 25.4173 25.0923 25.4203 25.2099" fill="white"/>
</mask>
<g mask="url(#mask0_734_6017)">
<path d="M25.4802 24.4395H14.8602V35.1395H25.4802V24.4395Z" fill="#7D7AFF"/>
</g>
<path fill-rule="evenodd" clip-rule="evenodd" d="M0.000312364 46.3696V36.0396C-0.00839158 35.4547 0.164996 34.8816 0.496456 34.3996C0.827916 33.9177 1.30104 33.5507 1.85031 33.3495L7.16031 31.3495C7.68506 31.1407 8.26055 31.0949 8.81174 31.2179C9.36294 31.341 9.86425 31.6273 10.2503 32.0396L26.1103 48.3296C26.6342 48.8545 27.0482 49.4786 27.328 50.1654C27.6079 50.8522 27.7481 51.588 27.7403 52.3296V55.8095C27.7403 57.0495 26.4303 56.6096 26.1303 56.5196L2.04031 49.1395C1.45406 48.9564 0.942642 48.5888 0.58225 48.0915C0.221859 47.5941 0.031775 46.9937 0.0403133 46.3795" fill="#484AFD"/>
<mask id="mask1_734_6017" style="mask-type:luminance" maskUnits="userSpaceOnUse" x="0" y="31" width="28" height="26">
<path d="M0.000312364 46.3696V36.0396C-0.00839158 35.4547 0.164996 34.8816 0.496456 34.3996C0.827916 33.9177 1.30104 33.5507 1.85031 33.3495L7.16031 31.3495C7.68506 31.1407 8.26055 31.0949 8.81174 31.2179C9.36294 31.341 9.86425 31.6273 10.2503 32.0396L26.1103 48.3296C26.6342 48.8545 27.0482 49.4786 27.328 50.1654C27.6079 50.8522 27.7481 51.588 27.7403 52.3296V55.8095C27.7403 57.0495 26.4303 56.6096 26.1303 56.5196L2.04031 49.1395C1.45406 48.9564 0.942642 48.5888 0.58225 48.0915C0.221859 47.5941 0.031775 46.9937 0.0403133 46.3795" fill="white"/>
</mask>
<g mask="url(#mask1_734_6017)">
<path d="M27.7404 30.8994H0.000366211V57.0294H27.7404V30.8994Z" fill="#7D7AFF"/>
</g>
<path fill-rule="evenodd" clip-rule="evenodd" d="M0.000312364 13.2097V23.5397C-0.00839158 24.1246 0.164996 24.6977 0.496456 25.1797C0.827916 25.6616 1.30104 26.0286 1.85031 26.2297L7.16031 28.2297C7.68452 28.437 8.25869 28.4831 8.80922 28.3619C9.35975 28.2407 9.86156 27.9579 10.2503 27.5497L26.1103 11.2897C26.6333 10.7641 27.0467 10.1399 27.3265 9.45321C27.6063 8.76656 27.747 8.03118 27.7403 7.28974V3.77974C27.7403 2.54974 26.4303 2.97974 26.1303 3.06974L2.04031 10.4497C1.45406 10.6329 0.942642 11.0005 0.58225 11.4978C0.221859 11.9951 0.031775 12.5956 0.0403133 13.2097" fill="#484AFD"/>
<mask id="mask2_734_6017" style="mask-type:luminance" maskUnits="userSpaceOnUse" x="0" y="2" width="28" height="27">
<path d="M0.000312364 13.2097V23.5397C-0.00839158 24.1246 0.164996 24.6977 0.496456 25.1797C0.827916 25.6616 1.30104 26.0286 1.85031 26.2297L7.16031 28.2297C7.68452 28.437 8.25869 28.4831 8.80922 28.3619C9.35975 28.2407 9.86156 27.9579 10.2503 27.5497L26.1103 11.2897C26.6333 10.7641 27.0467 10.1399 27.3265 9.45321C27.6063 8.76656 27.747 8.03118 27.7403 7.28974V3.77974C27.7403 2.54974 26.4303 2.97974 26.1303 3.06974L2.04031 10.4497C1.45406 10.6329 0.942642 11.0005 0.58225 11.4978C0.221859 11.9951 0.031775 12.5956 0.0403133 13.2097" fill="white"/>
</mask>
<g mask="url(#mask2_734_6017)">
<path d="M27.7404 2.5498H0.000366211V28.6798H27.7404V2.5498Z" fill="#7D7AFF"/>
</g>
<path fill-rule="evenodd" clip-rule="evenodd" d="M7.72031 14.1796H7.15031C7.02324 14.185 6.89716 14.1552 6.78598 14.0934C6.6748 14.0316 6.58286 13.9403 6.52031 13.8296L6.37031 13.6096L6.22031 13.3696C6.15421 13.2593 6.1193 13.1332 6.1193 13.0046C6.1193 12.876 6.15421 12.7499 6.22031 12.6396L6.36031 12.3896L6.50031 12.1396C6.56028 12.0274 6.64969 11.9337 6.75892 11.8685C6.86816 11.8033 6.9931 11.7691 7.12031 11.7696H7.69031C7.81756 11.7631 7.9441 11.7924 8.05549 11.8543C8.16688 11.9162 8.25864 12.0081 8.32031 12.1196L8.47031 12.3696L8.62031 12.6096C8.6845 12.7187 8.71835 12.843 8.71835 12.9696C8.71835 13.0962 8.6845 13.2205 8.62031 13.3296L8.48031 13.5896L8.34031 13.8396C8.27869 13.9504 8.18891 14.043 8.08004 14.1079C7.97117 14.1729 7.84708 14.208 7.72031 14.2096M7.62031 21.2696H6.40031H5.19031C5.06177 21.2757 4.93402 21.2463 4.82111 21.1846C4.70821 21.1228 4.61451 21.0311 4.55031 20.9196L3.93031 19.9196L3.30031 18.9196C3.23612 18.8105 3.20227 18.6862 3.20227 18.5596C3.20227 18.433 3.23612 18.3087 3.30031 18.1996L3.90031 17.1296L4.49031 16.0696C4.54849 15.9559 4.6375 15.861 4.74715 15.7955C4.85679 15.7301 4.98265 15.6968 5.11031 15.6996H6.32031H7.54031C7.667 15.6964 7.79224 15.7272 7.90302 15.7887C8.0138 15.8503 8.10609 15.9404 8.17031 16.0496L8.80031 17.0496L9.43031 18.0496C9.4964 18.1599 9.53131 18.286 9.53131 18.4146C9.53131 18.5432 9.4964 18.6693 9.43031 18.7796L8.84031 19.8396L8.25031 20.9096C8.18657 21.02 8.09466 21.1115 7.98397 21.1748C7.87329 21.238 7.74779 21.2708 7.62031 21.2696ZM13.8303 17.0596H12.6103H11.4003C11.2725 17.0615 11.1463 17.0303 11.0342 16.9689C10.922 16.9076 10.8277 16.8183 10.7603 16.7096L10.1403 15.6596L9.51031 14.6596C9.44402 14.5512 9.40895 14.4267 9.40895 14.2996C9.40895 14.1726 9.44402 14.048 9.51031 13.9396L10.1003 12.8696L10.6903 11.7996C10.7519 11.6888 10.8417 11.5962 10.9506 11.5313C11.0594 11.4663 11.1835 11.4312 11.3103 11.4296H12.5203H13.7403C13.8676 11.4231 13.9941 11.4524 14.1055 11.5143C14.2169 11.5762 14.3086 11.6681 14.3703 11.7796L15.0003 12.7796L15.6303 13.7796C15.7189 13.9003 15.7659 14.0466 15.7641 14.1963C15.7623 14.346 15.7118 14.4911 15.6203 14.6096L15.0503 15.6096L14.4603 16.6696C14.4031 16.7855 14.3148 16.8833 14.2054 16.9522C14.096 17.021 13.9696 17.0582 13.8403 17.0596H13.8303ZM11.7103 20.6096H11.1303C11.0042 20.6098 10.8801 20.5777 10.7698 20.5165C10.6596 20.4552 10.5668 20.3668 10.5003 20.2596L10.3503 20.0096L10.2103 19.7596C10.144 19.6512 10.109 19.5267 10.109 19.3996C10.109 19.2726 10.144 19.148 10.2103 19.0396L10.3503 18.7896L10.4903 18.5396C10.5511 18.4281 10.6407 18.335 10.7498 18.2699C10.8588 18.2048 10.9833 18.1702 11.1103 18.1696H11.6903C11.8172 18.1653 11.9428 18.1956 12.0538 18.2573C12.1648 18.319 12.2569 18.4096 12.3203 18.5196L12.4703 18.7596L12.6103 19.0096C12.6766 19.118 12.7117 19.2426 12.7117 19.3696C12.7117 19.4967 12.6766 19.6212 12.6103 19.7296L12.4703 19.9796L12.3303 20.2396C12.2679 20.3497 12.1779 20.4418 12.0693 20.5066C11.9606 20.5715 11.8369 20.607 11.7103 20.6096Z" fill="white"/>
<path fill-rule="evenodd" clip-rule="evenodd" d="M13.9204 41.36V43.61C13.9217 43.7427 13.8882 43.8735 13.8233 43.9893C13.7584 44.1051 13.6643 44.2019 13.5504 44.27C13.4339 44.3339 13.3032 44.3674 13.1704 44.3674C13.0375 44.3674 12.9068 44.3339 12.7904 44.27L10.5204 43.1C10.3922 43.0347 10.2846 42.9352 10.2094 42.8125C10.1342 42.6899 10.0944 42.5488 10.0944 42.405C10.0944 42.2611 10.1342 42.1201 10.2094 41.9974C10.2846 41.8747 10.3922 41.7753 10.5204 41.71L12.7904 40.61C12.905 40.546 13.0341 40.5125 13.1654 40.5125C13.2966 40.5125 13.4257 40.546 13.5404 40.61C13.6524 40.6793 13.7446 40.7766 13.8077 40.8923C13.8708 41.008 13.9027 41.1382 13.9004 41.27M9.90036 46.67H7.67036C7.53724 46.6734 7.40566 46.6408 7.2895 46.5757C7.17334 46.5106 7.0769 46.4153 7.01036 46.3C6.94145 46.187 6.90499 46.0573 6.90499 45.925C6.90499 45.7927 6.94145 45.6629 7.01036 45.55L8.18036 43.27C8.24686 43.1421 8.34747 43.0352 8.47103 42.9611C8.59459 42.8869 8.73627 42.8485 8.88036 42.85C9.02366 42.8517 9.16354 42.894 9.28386 42.9718C9.40418 43.0497 9.50003 43.16 9.56036 43.29L10.6204 45.61C10.6781 45.7273 10.705 45.8574 10.6986 45.988C10.6921 46.1186 10.6525 46.2454 10.5834 46.3565C10.5144 46.4675 10.4182 46.5592 10.304 46.6228C10.1897 46.6864 10.0611 46.7198 9.93036 46.72L9.90036 46.67ZM3.62036 41.36V43.61C3.61694 43.7431 3.64951 43.8747 3.71463 43.9908C3.77975 44.107 3.87501 44.2034 3.99036 44.27C4.10501 44.3339 4.23409 44.3674 4.36536 44.3674C4.49663 44.3674 4.62571 44.3339 4.74036 44.27L7.02036 43.1C7.14854 43.0347 7.25616 42.9352 7.33133 42.8125C7.4065 42.6899 7.44628 42.5488 7.44628 42.405C7.44628 42.2611 7.4065 42.1201 7.33133 41.9974C7.25616 41.8747 7.14854 41.7753 7.02036 41.71L4.75036 40.61C4.63227 40.5518 4.50125 40.5249 4.36982 40.5319C4.23838 40.5388 4.1109 40.5793 3.99957 40.6495C3.88824 40.7197 3.79677 40.8173 3.73388 40.9329C3.67099 41.0485 3.6388 41.1783 3.64036 41.31L3.62036 41.36ZM9.87036 38.23H7.62036C7.48762 38.2286 7.35684 38.2621 7.24104 38.327C7.12525 38.3919 7.02848 38.486 6.96036 38.6C6.89164 38.7148 6.85534 38.8461 6.85534 38.98C6.85534 39.1138 6.89164 39.2451 6.96036 39.36L8.07036 41.61C8.13401 41.7401 8.23399 41.849 8.35821 41.9235C8.48243 41.9981 8.62559 42.035 8.77036 42.03C8.91311 42.0315 9.05325 41.9917 9.1739 41.9155C9.29456 41.8392 9.39057 41.7296 9.45036 41.6L10.5604 39.32C10.6156 39.2016 10.6403 39.0713 10.6321 38.9409C10.6239 38.8106 10.5831 38.6844 10.5134 38.5739C10.4437 38.4634 10.3474 38.3722 10.2333 38.3086C10.1192 38.245 9.99098 38.2111 9.86036 38.21L9.87036 38.23Z" fill="white"/>
<path d="M40.7363 11.96V16.16H46.3763V18.824H40.7363V23.264H47.0963V26H37.3763V9.224H47.0963V11.96H40.7363ZM55.9338 26.168C54.7658 26.168 53.7098 25.968 52.7658 25.568C51.8378 25.168 51.1018 24.592 50.5578 23.84C50.0138 23.088 49.7338 22.2 49.7178 21.176H53.3178C53.3658 21.864 53.6058 22.408 54.0378 22.808C54.4858 23.208 55.0938 23.408 55.8618 23.408C56.6458 23.408 57.2618 23.224 57.7098 22.856C58.1578 22.472 58.3818 21.976 58.3818 21.368C58.3818 20.872 58.2298 20.464 57.9258 20.144C57.6218 19.824 57.2378 19.576 56.7738 19.4C56.3258 19.208 55.7018 19 54.9018 18.776C53.8138 18.456 52.9258 18.144 52.2378 17.84C51.5658 17.52 50.9818 17.048 50.4858 16.424C50.0058 15.784 49.7658 14.936 49.7658 13.88C49.7658 12.888 50.0138 12.024 50.5098 11.288C51.0058 10.552 51.7018 9.992 52.5978 9.608C53.4938 9.208 54.5178 9.008 55.6698 9.008C57.3978 9.008 58.7978 9.432 59.8698 10.28C60.9578 11.112 61.5578 12.28 61.6698 13.784H57.9738C57.9418 13.208 57.6938 12.736 57.2298 12.368C56.7818 11.984 56.1818 11.792 55.4298 11.792C54.7738 11.792 54.2458 11.96 53.8458 12.296C53.4618 12.632 53.2698 13.12 53.2698 13.76C53.2698 14.208 53.4138 14.584 53.7018 14.888C54.0058 15.176 54.3738 15.416 54.8058 15.608C55.2538 15.784 55.8778 15.992 56.6778 16.232C57.7658 16.552 58.6538 16.872 59.3418 17.192C60.0298 17.512 60.6218 17.992 61.1178 18.632C61.6138 19.272 61.8618 20.112 61.8618 21.152C61.8618 22.048 61.6298 22.88 61.1658 23.648C60.7018 24.416 60.0218 25.032 59.1258 25.496C58.2298 25.944 57.1658 26.168 55.9338 26.168ZM76.9908 14.432C76.9908 15.328 76.7748 16.168 76.3428 16.952C75.9268 17.736 75.2628 18.368 74.3508 18.848C73.4548 19.328 72.3188 19.568 70.9428 19.568H68.1348V26H64.7748V9.248H70.9428C72.2388 9.248 73.3428 9.472 74.2548 9.92C75.1668 10.368 75.8468 10.984 76.2948 11.768C76.7588 12.552 76.9908 13.44 76.9908 14.432ZM70.7988 16.856C71.7268 16.856 72.4148 16.648 72.8628 16.232C73.3108 15.8 73.5348 15.2 73.5348 14.432C73.5348 12.8 72.6228 11.984 70.7988 11.984H68.1348V16.856H70.7988ZM87.1523 26.168C85.5843 26.168 84.1443 25.8 82.8323 25.064C81.5203 24.328 80.4803 23.312 79.7123 22.016C78.9443 20.704 78.5603 19.224 78.5603 17.576C78.5603 15.944 78.9443 14.48 79.7123 13.184C80.4803 11.872 81.5203 10.848 82.8323 10.112C84.1443 9.376 85.5843 9.008 87.1523 9.008C88.7363 9.008 90.1763 9.376 91.4723 10.112C92.7843 10.848 93.8163 11.872 94.5683 13.184C95.3363 14.48 95.7203 15.944 95.7203 17.576C95.7203 19.224 95.3363 20.704 94.5683 22.016C93.8163 23.312 92.7843 24.328 91.4723 25.064C90.1603 25.8 88.7203 26.168 87.1523 26.168ZM87.1523 23.168C88.1603 23.168 89.0483 22.944 89.8163 22.496C90.5843 22.032 91.1843 21.376 91.6163 20.528C92.0483 19.68 92.2643 18.696 92.2643 17.576C92.2643 16.456 92.0483 15.48 91.6163 14.648C91.1843 13.8 90.5843 13.152 89.8163 12.704C89.0483 12.256 88.1603 12.032 87.1523 12.032C86.1443 12.032 85.2483 12.256 84.4643 12.704C83.6963 13.152 83.0963 13.8 82.6643 14.648C82.2323 15.48 82.0163 16.456 82.0163 17.576C82.0163 18.696 82.2323 19.68 82.6643 20.528C83.0963 21.376 83.6963 22.032 84.4643 22.496C85.2483 22.944 86.1443 23.168 87.1523 23.168ZM106.86 26L103.164 19.472H101.58V26H98.2201V9.248H104.508C105.804 9.248 106.908 9.48 107.82 9.944C108.732 10.392 109.412 11.008 109.86 11.792C110.324 12.56 110.556 13.424 110.556 14.384C110.556 15.488 110.236 16.488 109.596 17.384C108.956 18.264 108.004 18.872 106.74 19.208L110.748 26H106.86ZM101.58 16.952H104.388C105.3 16.952 105.98 16.736 106.428 16.304C106.876 15.856 107.1 15.24 107.1 14.456C107.1 13.688 106.876 13.096 106.428 12.68C105.98 12.248 105.3 12.032 104.388 12.032H101.58V16.952ZM124.995 9.248V11.96H120.531V26H117.171V11.96H112.707V9.248H124.995ZM133.231 26.168C132.063 26.168 131.007 25.968 130.063 25.568C129.135 25.168 128.399 24.592 127.855 23.84C127.311 23.088 127.031 22.2 127.015 21.176H130.615C130.663 21.864 130.903 22.408 131.335 22.808C131.783 23.208 132.391 23.408 133.159 23.408C133.943 23.408 134.559 23.224 135.007 22.856C135.455 22.472 135.679 21.976 135.679 21.368C135.679 20.872 135.527 20.464 135.223 20.144C134.919 19.824 134.535 19.576 134.071 19.4C133.623 19.208 132.999 19 132.199 18.776C131.111 18.456 130.223 18.144 129.535 17.84C128.863 17.52 128.279 17.048 127.783 16.424C127.303 15.784 127.063 14.936 127.063 13.88C127.063 12.888 127.311 12.024 127.807 11.288C128.303 10.552 128.999 9.992 129.895 9.608C130.791 9.208 131.815 9.008 132.967 9.008C134.695 9.008 136.095 9.432 137.167 10.28C138.255 11.112 138.855 12.28 138.967 13.784H135.271C135.239 13.208 134.991 12.736 134.527 12.368C134.079 11.984 133.479 11.792 132.727 11.792C132.071 11.792 131.543 11.96 131.143 12.296C130.759 12.632 130.567 13.12 130.567 13.76C130.567 14.208 130.711 14.584 130.999 14.888C131.303 15.176 131.671 15.416 132.103 15.608C132.551 15.784 133.175 15.992 133.975 16.232C135.063 16.552 135.951 16.872 136.639 17.192C137.327 17.512 137.919 17.992 138.415 18.632C138.911 19.272 139.159 20.112 139.159 21.152C139.159 22.048 138.927 22.88 138.463 23.648C137.999 24.416 137.319 25.032 136.423 25.496C135.527 25.944 134.463 26.168 133.231 26.168Z" fill="#7D7AFF"/>
<path d="M51.7043 54.7998H48.3443L40.7363 43.3038V54.7998H37.3763V38.0238H40.7363L48.3443 49.5438V38.0238H51.7043V54.7998ZM66.6888 43.0878C66.3048 42.3838 65.7768 41.8478 65.1048 41.4798C64.4328 41.1118 63.6488 40.9278 62.7528 40.9278C61.7608 40.9278 60.8808 41.1518 60.1128 41.5998C59.3448 42.0478 58.7448 42.6878 58.3128 43.5198C57.8808 44.3518 57.6648 45.3118 57.6648 46.3998C57.6648 47.5198 57.8808 48.4958 58.3128 49.3278C58.7608 50.1598 59.3768 50.7998 60.1608 51.2478C60.9448 51.6958 61.8568 51.9198 62.8968 51.9198C64.1768 51.9198 65.2248 51.5838 66.0408 50.9118C66.8568 50.2238 67.3928 49.2718 67.6488 48.0558H61.8888V45.4878H70.9608V48.4158C70.7368 49.5838 70.2568 50.6638 69.5208 51.6558C68.7848 52.6478 67.8328 53.4478 66.6648 54.0558C65.5128 54.6478 64.2168 54.9438 62.7768 54.9438C61.1608 54.9438 59.6968 54.5838 58.3848 53.8638C57.0888 53.1278 56.0648 52.1118 55.3128 50.8158C54.5768 49.5198 54.2088 48.0478 54.2088 46.3998C54.2088 44.7518 54.5768 43.2798 55.3128 41.9838C56.0648 40.6718 57.0888 39.6558 58.3848 38.9358C59.6968 38.1998 61.1528 37.8318 62.7528 37.8318C64.6408 37.8318 66.2808 38.2958 67.6728 39.2238C69.0648 40.1358 70.0248 41.4238 70.5528 43.0878H66.6888Z" fill="#7D7AFF"/>
</svg>
