<svg width="38" height="73" viewBox="0 0 38 73" fill="none" xmlns="http://www.w3.org/2000/svg">
<path fill-rule="evenodd" clip-rule="evenodd" d="M34.5024 30.0413V42.4065C34.5003 42.5714 34.4566 42.733 34.3752 42.8764C34.2938 43.0197 34.1774 43.1401 34.0369 43.2263C33.8963 43.3125 33.7362 43.3617 33.5715 43.3693C33.4069 43.3768 33.2429 43.3426 33.0951 43.2696L20.744 36.9041C20.5818 36.8238 20.4453 36.6998 20.3499 36.546C20.2544 36.3923 20.2039 36.2149 20.2039 36.0339C20.2039 35.853 20.2544 35.6756 20.3499 35.5219C20.4453 35.3681 20.5818 35.2441 20.744 35.1638L33.1092 29.1641C33.2581 29.0907 33.4233 29.0564 33.5891 29.0647C33.755 29.0729 33.9159 29.1233 34.0569 29.2112C34.1978 29.299 34.3139 29.4213 34.3943 29.5666C34.4748 29.7119 34.5168 29.8753 34.5164 30.0413" fill="#7D7AFF"/>
<mask id="mask0_734_5996" style="mask-type:luminance" maskUnits="userSpaceOnUse" x="20" y="29" width="15" height="15">
<path d="M34.5024 30.0413V42.4065C34.5003 42.5714 34.4566 42.733 34.3752 42.8764C34.2938 43.0197 34.1774 43.1401 34.0369 43.2263C33.8963 43.3125 33.7362 43.3617 33.5715 43.3693C33.4069 43.3768 33.2429 43.3426 33.0951 43.2696L20.744 36.9041C20.5818 36.8238 20.4453 36.6998 20.3499 36.546C20.2544 36.3923 20.2039 36.2149 20.2039 36.0339C20.2039 35.853 20.2544 35.6756 20.3499 35.5219C20.4453 35.3681 20.5818 35.2441 20.744 35.1638L33.1092 29.1641C33.2581 29.0907 33.4233 29.0564 33.5891 29.0647C33.755 29.0729 33.9159 29.1233 34.0569 29.2112C34.1978 29.299 34.3139 29.4213 34.3943 29.5666C34.4748 29.7119 34.5168 29.8753 34.5164 30.0413" fill="white"/>
</mask>
<g mask="url(#mask0_734_5996)">
<path d="M34.5024 29.0137H20.1857V43.4288H34.5024V29.0137Z" fill="#7D7AFF"/>
</g>
<path fill-rule="evenodd" clip-rule="evenodd" d="M0.160248 58.585V44.6483C0.151903 43.8592 0.387655 43.0868 0.835227 42.4369C1.2828 41.7869 1.92032 41.2912 2.6605 41.0176L9.81411 38.2875C10.5234 38.0094 11.2997 37.9502 12.043 38.1174C12.7863 38.2846 13.4624 38.6706 13.9843 39.2256L35.3514 61.1837C36.062 61.8937 36.6228 62.739 37.0007 63.6697C37.3786 64.6003 37.5659 65.5974 37.5514 66.6017V71.2926C37.5514 72.9579 35.7876 72.3762 35.3889 72.2543L2.9185 62.2861C2.11903 62.0527 1.41736 61.5652 0.919681 60.8974C0.422005 60.2296 0.15541 59.4178 0.160248 58.585Z" fill="#484AFD"/>
<mask id="mask1_734_5996" style="mask-type:luminance" maskUnits="userSpaceOnUse" x="0" y="38" width="38" height="35">
<path d="M0.160248 58.585V44.6483C0.151903 43.8592 0.387655 43.0868 0.835227 42.4369C1.2828 41.7869 1.92032 41.2912 2.6605 41.0176L9.81411 38.2875C10.5234 38.0094 11.2997 37.9502 12.043 38.1174C12.7863 38.2846 13.4624 38.6706 13.9843 39.2256L35.3514 61.1837C36.062 61.8937 36.6228 62.739 37.0007 63.6697C37.3786 64.6003 37.5659 65.5974 37.5514 66.6017V71.2926C37.5514 72.9579 35.7876 72.3762 35.3889 72.2543L2.9185 62.2861C2.11903 62.0527 1.41736 61.5652 0.919681 60.8974C0.422005 60.2296 0.15541 59.4178 0.160248 58.585Z" fill="white"/>
</mask>
<g mask="url(#mask1_734_5996)">
<path d="M37.5514 37.7197H0.160278V72.9437H37.5514V37.7197Z" fill="#7D7AFF"/>
</g>
<path fill-rule="evenodd" clip-rule="evenodd" d="M0.160284 13.8761V27.794C0.151255 28.5832 0.386735 29.3559 0.834399 30.006C1.28206 30.6561 1.91996 31.1517 2.66053 31.4247L9.81415 34.1595C10.5235 34.4369 11.2997 34.4958 12.0428 34.3286C12.786 34.1615 13.4621 33.7758 13.9844 33.2214L35.3514 11.268C36.062 10.558 36.6229 9.71269 37.0008 8.78203C37.3787 7.85137 37.5659 6.85432 37.5514 5.84997V1.15907C37.5514 -0.506202 35.7877 0.0754701 35.3889 0.197433L2.91853 10.1609C2.11848 10.3967 1.41719 10.887 0.921088 11.5575C0.424989 12.228 0.161168 13.0421 0.169666 13.8761" fill="#484AFD"/>
<mask id="mask2_734_5996" style="mask-type:luminance" maskUnits="userSpaceOnUse" x="0" y="0" width="38" height="35">
<path d="M0.160284 13.8761V27.794C0.151255 28.5832 0.386735 29.3559 0.834399 30.006C1.28206 30.6561 1.91996 31.1517 2.66053 31.4247L9.81415 34.1595C10.5235 34.4369 11.2997 34.4958 12.0428 34.3286C12.786 34.1615 13.4621 33.7758 13.9844 33.2214L35.3514 11.268C36.062 10.558 36.6229 9.71269 37.0008 8.78203C37.3787 7.85137 37.5659 6.85432 37.5514 5.84997V1.15907C37.5514 -0.506202 35.7877 0.0754701 35.3889 0.197433L2.91853 10.1609C2.11848 10.3967 1.41719 10.887 0.921088 11.5575C0.424989 12.228 0.161168 13.0421 0.169666 13.8761" fill="white"/>
</mask>
<g mask="url(#mask2_734_5996)">
<path d="M37.5514 -0.49707H0.160278V34.7269H37.5514V-0.49707Z" fill="#7D7AFF"/>
</g>
<path fill-rule="evenodd" clip-rule="evenodd" d="M10.5741 15.1806H10.1847H9.80006C9.62887 15.1855 9.45948 15.1446 9.30939 15.0621C9.1593 14.9796 9.03396 14.8586 8.94631 14.7115L8.7493 14.3784L8.54759 14.05C8.45992 13.9041 8.41361 13.7371 8.41361 13.5669C8.41361 13.3967 8.45992 13.2296 8.54759 13.0837L8.73523 12.746L8.92286 12.4082C9.00238 12.2568 9.12175 12.1301 9.26809 12.0416C9.41442 11.9531 9.58215 11.9064 9.75315 11.9063H10.1425H10.5271C10.6988 11.8988 10.8691 11.9386 11.0197 12.0214C11.1702 12.1041 11.2952 12.2265 11.3809 12.3754L11.5826 12.7085L11.7796 13.0415C11.8682 13.188 11.915 13.3559 11.915 13.527C11.915 13.6982 11.8682 13.8661 11.7796 14.0125L11.592 14.355L11.4043 14.6927C11.3221 14.8428 11.2014 14.9684 11.0547 15.0566C10.908 15.1448 10.7405 15.1924 10.5694 15.1946M10.4474 24.75L8.80559 24.7781L7.16378 24.811C6.99216 24.8184 6.82179 24.7786 6.67125 24.6959C6.5207 24.6132 6.39576 24.4907 6.31003 24.3419L5.46098 22.9346L4.61662 21.5273C4.52713 21.3803 4.4798 21.2116 4.4798 21.0395C4.4798 20.8674 4.52713 20.6986 4.61662 20.5516L5.41407 19.1162L6.20214 17.662C6.28202 17.5099 6.40213 17.3827 6.54937 17.2942C6.69661 17.2057 6.86533 17.1593 7.03712 17.1601L8.67893 17.1273L10.3207 17.0991C10.4924 17.0917 10.6627 17.1315 10.8133 17.2142C10.9638 17.2969 11.0888 17.4194 11.1745 17.5682L12.0189 18.9755L12.8632 20.3828C12.9527 20.5298 13 20.6985 13 20.8706C13 21.0427 12.9527 21.2115 12.8632 21.3585L12.0658 22.7939L11.273 24.2293C11.1949 24.3802 11.0772 24.507 10.9326 24.5962C10.7881 24.6854 10.622 24.7337 10.4521 24.7359L10.4474 24.75ZM18.8207 19.0693L17.1788 19.0975L15.537 19.1256C15.3654 19.1331 15.195 19.0933 15.0445 19.0105C14.894 18.9278 14.769 18.8054 14.6833 18.6565L13.8389 17.2492L12.9946 15.842C12.9051 15.695 12.8577 15.5262 12.8577 15.3541C12.8577 15.182 12.9051 15.0133 12.9946 14.8663L13.792 13.4308L14.5848 11.9907C14.667 11.8406 14.7877 11.715 14.9344 11.6269C15.0811 11.5387 15.2486 11.491 15.4198 11.4888L17.0616 11.4607L18.7034 11.4325C18.875 11.4251 19.0454 11.4649 19.1959 11.5476C19.3465 11.6303 19.4714 11.7528 19.5571 11.9016L20.4015 13.3089L21.2505 14.7162C21.3391 14.8626 21.3859 15.0305 21.3859 15.2017C21.3859 15.3728 21.3391 15.5407 21.2505 15.6872L20.4531 17.1273L19.6556 18.5627C19.5764 18.7157 19.4566 18.8439 19.3093 18.9332C19.162 19.0226 18.9929 19.0697 18.8207 19.0693ZM15.9451 23.8962H15.5558H15.1711C14.9995 23.9037 14.8292 23.8639 14.6786 23.7812C14.5281 23.6985 14.4031 23.576 14.3174 23.4272L14.1204 23.0941L13.9187 22.761C13.8301 22.6146 13.7833 22.4467 13.7833 22.2755C13.7833 22.1044 13.8301 21.9365 13.9187 21.79L14.1063 21.4476L14.2939 21.1098C14.3746 20.9625 14.4933 20.8395 14.6377 20.7537C14.7821 20.6679 14.9469 20.6224 15.1148 20.622H15.5042H15.8935C16.0644 20.6154 16.2338 20.6556 16.3834 20.7383C16.533 20.821 16.6572 20.943 16.7426 21.0911L16.9443 21.4241L17.1413 21.7525C17.2308 21.8995 17.2781 22.0683 17.2781 22.2404C17.2781 22.4124 17.2308 22.5812 17.1413 22.7282L16.9537 23.066L16.766 23.4084C16.6854 23.5557 16.5667 23.6788 16.4223 23.7646C16.2779 23.8504 16.1131 23.8959 15.9451 23.8962Z" fill="white"/>
<path fill-rule="evenodd" clip-rule="evenodd" d="M18.9239 51.8117V54.8749C18.9275 55.0552 18.8841 55.2334 18.7978 55.3918C18.7115 55.5502 18.5854 55.6834 18.4319 55.7781C18.2785 55.8728 18.1029 55.9259 17.9226 55.932C17.7423 55.9382 17.5636 55.8971 17.404 55.813L14.3409 54.2369C14.1653 54.1496 14.018 54.0146 13.9158 53.8474C13.8136 53.6801 13.7606 53.4874 13.7631 53.2914C13.7655 53.0953 13.8233 52.904 13.9296 52.7393C14.036 52.5747 14.1867 52.4434 14.3643 52.3605L17.4275 50.8735C17.5863 50.7964 17.7622 50.7609 17.9386 50.7704C18.115 50.7799 18.286 50.8341 18.4357 50.9279C18.5853 51.0218 18.7086 51.1521 18.794 51.3067C18.8794 51.4613 18.9241 51.6351 18.9239 51.8117ZM13.5575 59.0967H10.4943C10.3151 59.0985 10.1385 59.0541 9.9815 58.9678C9.82449 58.8814 9.69243 58.7559 9.5981 58.6036C9.50376 58.4512 9.45033 58.2771 9.44298 58.0981C9.43563 57.919 9.47461 57.7411 9.55615 57.5815L11.1323 54.5184C11.2174 54.3418 11.3505 54.1928 11.5165 54.0885C11.6825 53.9843 11.8745 53.929 12.0705 53.929C12.2665 53.929 12.4585 53.9843 12.6245 54.0885C12.7904 54.1928 12.9236 54.3418 13.0087 54.5184L14.4957 57.5815C14.5742 57.74 14.6107 57.9159 14.6017 58.0925C14.5926 58.2691 14.5384 58.4405 14.4441 58.5901C14.354 58.7451 14.2246 58.8736 14.0689 58.9626C13.9132 59.0515 13.7368 59.0978 13.5575 59.0967ZM5.02474 51.8117V54.8749C5.02245 55.0547 5.06678 55.2321 5.1534 55.3897C5.24002 55.5473 5.36599 55.6798 5.51903 55.7743C5.67208 55.8688 5.84698 55.922 6.02671 55.9288C6.20643 55.9356 6.38486 55.8957 6.5446 55.813L9.60775 54.2369C9.78482 54.151 9.93377 54.0164 10.0372 53.849C10.1406 53.6815 10.1942 53.4881 10.1918 53.2913C10.1893 53.0945 10.1309 52.9024 10.0233 52.7376C9.91572 52.5728 9.76346 52.442 9.5843 52.3605L6.52114 50.8735C6.36214 50.7977 6.18657 50.7632 6.01071 50.7734C5.83484 50.7835 5.66438 50.8378 5.51513 50.9314C5.36589 51.025 5.24268 51.1547 5.15696 51.3086C5.07123 51.4625 5.02575 51.6356 5.02474 51.8117ZM13.4684 47.5899H10.3911C10.2119 47.588 10.0353 47.6324 9.8783 47.7188C9.72129 47.8052 9.58923 47.9306 9.4949 48.083C9.40056 48.2354 9.34713 48.4095 9.33978 48.5885C9.33244 48.7676 9.37141 48.9455 9.45295 49.1051L11.0291 52.1682C11.1142 52.3448 11.2473 52.4938 11.4133 52.598C11.5793 52.7023 11.7713 52.7576 11.9673 52.7576C12.1633 52.7576 12.3553 52.7023 12.5212 52.598C12.6872 52.4938 12.8204 52.3448 12.9055 52.1682L14.3925 49.1051C14.4717 48.9466 14.5081 48.7702 14.4982 48.5933C14.4884 48.4164 14.4325 48.2452 14.3362 48.0965C14.2458 47.9438 14.1166 47.8178 13.9617 47.7312C13.8068 47.6447 13.6317 47.6008 13.4543 47.604L13.4684 47.5899Z" fill="white"/>
</svg>
