<svg width="80" height="155" viewBox="0 0 80 155" fill="none" xmlns="http://www.w3.org/2000/svg">
<path fill-rule="evenodd" clip-rule="evenodd" d="M73.2105 64.0409V90.4009C73.2063 90.7523 73.113 91.0969 72.9394 91.4025C72.7659 91.7081 72.5178 91.9648 72.2182 92.1486C71.9186 92.3323 71.5773 92.4371 71.2263 92.4533C70.8752 92.4694 70.5257 92.3964 70.2105 92.2409L43.8805 78.6709C43.5348 78.4997 43.2439 78.2353 43.0404 77.9075C42.837 77.5798 42.7292 77.2017 42.7292 76.8159C42.7292 76.4301 42.837 76.052 43.0404 75.7243C43.2439 75.3965 43.5348 75.1321 43.8805 74.9609L70.2405 62.1709C70.558 62.0143 70.9102 61.9414 71.2637 61.9589C71.6172 61.9765 71.9604 62.084 72.2608 62.2712C72.5612 62.4584 72.8089 62.7193 72.9803 63.0289C73.1517 63.3386 73.2413 63.6869 73.2405 64.0409" fill="#484AFD"/>
<mask id="mask0_388_2609" style="mask-type:luminance" maskUnits="userSpaceOnUse" x="42" y="61" width="32" height="32">
<path d="M73.2105 64.0409V90.4009C73.2063 90.7523 73.113 91.0969 72.9394 91.4025C72.7659 91.7081 72.5178 91.9648 72.2182 92.1486C71.9186 92.3323 71.5773 92.4371 71.2263 92.4533C70.8752 92.4694 70.5257 92.3964 70.2105 92.2409L43.8805 78.6709C43.5348 78.4997 43.2439 78.2353 43.0404 77.9075C42.837 77.5798 42.7292 77.2017 42.7292 76.8159C42.7292 76.4301 42.837 76.052 43.0404 75.7243C43.2439 75.3965 43.5348 75.1321 43.8805 74.9609L70.2405 62.1709C70.558 62.0143 70.9102 61.9414 71.2637 61.9589C71.6172 61.9765 71.9604 62.084 72.2608 62.2712C72.5612 62.4584 72.8089 62.7193 72.9803 63.0289C73.1517 63.3386 73.2413 63.6869 73.2405 64.0409" fill="white"/>
</mask>
<g mask="url(#mask0_388_2609)">
<path d="M73.2106 61.8509H42.6906V92.5809H73.2106V61.8509Z" fill="#484AFD"/>
</g>
<path fill-rule="evenodd" clip-rule="evenodd" d="M0.000517516 124.891V95.1808C-0.0172722 93.4986 0.4853 91.8521 1.43943 90.4665C2.39356 89.081 3.75261 88.0242 5.33052 87.4408L20.5805 81.6208C22.0926 81.0281 23.7475 80.9018 25.332 81.2583C26.9165 81.6148 28.358 82.4376 29.4705 83.6208L75.0205 130.431C76.5354 131.944 77.731 133.746 78.5366 135.73C79.3422 137.714 79.7414 139.84 79.7105 141.981V151.981C79.7105 155.531 75.9505 154.291 75.1005 154.031L5.88052 132.781C4.17622 132.283 2.68041 131.244 1.61947 129.82C0.558526 128.397 -0.00979627 126.666 0.000517516 124.891Z" fill="#484AFD"/>
<mask id="mask1_388_2609" style="mask-type:luminance" maskUnits="userSpaceOnUse" x="0" y="81" width="80" height="74">
<path d="M0.000517516 124.891V95.1808C-0.0172722 93.4986 0.4853 91.8521 1.43943 90.4665C2.39356 89.081 3.75261 88.0242 5.33052 87.4408L20.5805 81.6208C22.0926 81.0281 23.7475 80.9018 25.332 81.2583C26.9165 81.6148 28.358 82.4376 29.4705 83.6208L75.0205 130.431C76.5354 131.944 77.731 133.746 78.5366 135.73C79.3422 137.714 79.7414 139.84 79.7105 141.981V151.981C79.7105 155.531 75.9505 154.291 75.1005 154.031L5.88052 132.781C4.17622 132.283 2.68041 131.244 1.61947 129.82C0.558526 128.397 -0.00979627 126.666 0.000517516 124.891Z" fill="white"/>
</mask>
<g mask="url(#mask1_388_2609)">
<path d="M79.7105 80.4108H0.000518799V155.501H79.7105V80.4108Z" fill="#484AFD"/>
</g>
<path fill-rule="evenodd" clip-rule="evenodd" d="M0.000533509 29.5809V59.2509C-0.0187144 60.9334 0.483279 62.5806 1.4376 63.9665C2.39193 65.3523 3.7518 66.4088 5.33054 66.9909L20.5805 72.8209C22.0928 73.4122 23.7474 73.5378 25.3316 73.1814C26.9158 72.825 28.3572 72.0029 29.4705 70.8209L75.0205 24.0209C76.5354 22.5075 77.731 20.7054 78.5366 18.7214C79.3423 16.7375 79.7414 14.612 79.7105 12.4709V2.47089C79.7105 -1.07911 75.9505 0.160886 75.1005 0.420886L5.88053 21.6609C4.17499 22.1635 2.67998 23.2088 1.62241 24.6382C0.564827 26.0676 0.00241746 27.8029 0.020534 29.5809" fill="#484AFD"/>
<mask id="mask2_388_2609" style="mask-type:luminance" maskUnits="userSpaceOnUse" x="0" y="0" width="80" height="74">
<path d="M0.000533509 29.5809V59.2509C-0.0187144 60.9334 0.483279 62.5806 1.4376 63.9665C2.39193 65.3523 3.7518 66.4088 5.33054 66.9909L20.5805 72.8209C22.0928 73.4122 23.7474 73.5378 25.3316 73.1814C26.9158 72.825 28.3572 72.0029 29.4705 70.8209L75.0205 24.0209C76.5354 22.5075 77.731 20.7054 78.5366 18.7214C79.3423 16.7375 79.7414 14.612 79.7105 12.4709V2.47089C79.7105 -1.07911 75.9505 0.160886 75.1005 0.420886L5.88053 21.6609C4.17499 22.1635 2.67998 23.2088 1.62241 24.6382C0.564827 26.0676 0.00241746 27.8029 0.020534 29.5809" fill="white"/>
</mask>
<g mask="url(#mask2_388_2609)">
<path d="M79.7106 -1.05914H0.000549316V74.0309H79.7106V-1.05914Z" fill="#484AFD"/>
</g>
<path fill-rule="evenodd" clip-rule="evenodd" d="M22.2005 32.3608H21.3705H20.5505C20.1856 32.3713 19.8245 32.2842 19.5045 32.1083C19.1846 31.9325 18.9174 31.6745 18.7305 31.3608L18.3105 30.6508L17.8805 29.9508C17.6936 29.6398 17.5949 29.2837 17.5949 28.9208C17.5949 28.558 17.6936 28.2019 17.8805 27.8908L18.2805 27.1708L18.6805 26.4508C18.85 26.1281 19.1045 25.8579 19.4165 25.6693C19.7284 25.4807 20.086 25.381 20.4505 25.3808H21.2805H22.1005C22.4664 25.3649 22.8296 25.4498 23.1505 25.6261C23.4714 25.8025 23.7378 26.0635 23.9205 26.3808L24.3505 27.0908L24.7705 27.8008C24.9594 28.1131 25.0592 28.471 25.0592 28.8358C25.0592 29.2007 24.9594 29.5586 24.7705 29.8708L24.3705 30.6008L23.9705 31.3208C23.7952 31.6409 23.538 31.9086 23.2252 32.0966C22.9125 32.2846 22.5554 32.3861 22.1905 32.3908M21.9305 52.7608L18.4305 52.8208L14.9305 52.8908C14.5647 52.9067 14.2015 52.8219 13.8806 52.6456C13.5596 52.4692 13.2933 52.2082 13.1105 51.8908L11.3005 48.8908L9.50053 45.8908C9.30977 45.5775 9.20886 45.2177 9.20886 44.8508C9.20886 44.484 9.30977 44.1242 9.50053 43.8108L11.2005 40.7508L12.8805 37.6508C13.0508 37.3266 13.3069 37.0554 13.6208 36.8667C13.9346 36.678 14.2943 36.5791 14.6605 36.5808L18.1605 36.5108L21.6605 36.4508C22.0264 36.4349 22.3896 36.5198 22.7105 36.6961C23.0314 36.8725 23.2978 37.1335 23.4805 37.4508L25.2805 40.4508L27.0805 43.4508C27.2713 43.7642 27.3722 44.124 27.3722 44.4908C27.3722 44.8577 27.2713 45.2175 27.0805 45.5308L25.3805 48.5908L23.6905 51.6508C23.524 51.9725 23.2732 52.2428 22.965 52.433C22.6568 52.6232 22.3027 52.7261 21.9405 52.7308L21.9305 52.7608ZM39.7805 40.6508L36.2805 40.7108L32.7805 40.7708C32.4147 40.7867 32.0515 40.7019 31.7306 40.5256C31.4096 40.3492 31.1433 40.0882 30.9605 39.7708L29.1605 36.7708L27.3605 33.7708C27.1698 33.4575 27.0689 33.0977 27.0689 32.7308C27.0689 32.364 27.1698 32.0042 27.3605 31.6908L29.0605 28.6308L30.7505 25.5608C30.9259 25.2408 31.1831 24.9731 31.4958 24.7851C31.8086 24.5971 32.1657 24.4956 32.5305 24.4908L36.0305 24.4308L39.5305 24.3708C39.8964 24.3549 40.2596 24.4398 40.5805 24.6161C40.9014 24.7925 41.1678 25.0535 41.3505 25.3708L43.1505 28.3708L44.9605 31.3708C45.1494 31.6831 45.2492 32.041 45.2492 32.4058C45.2492 32.7707 45.1494 33.1286 44.9605 33.4408L43.2605 36.5108L41.5605 39.5708C41.3916 39.8969 41.1361 40.1702 40.8221 40.3607C40.5082 40.5512 40.1478 40.6516 39.7805 40.6508ZM33.6505 50.9408H32.8205H32.0005C31.6347 50.9568 31.2715 50.8719 30.9506 50.6956C30.6296 50.5192 30.3633 50.2582 30.1805 49.9408L29.7605 49.2308L29.3305 48.5208C29.1417 48.2086 29.0419 47.8507 29.0419 47.4858C29.0419 47.121 29.1417 46.7631 29.3305 46.4508L29.7305 45.7208L30.1305 45.0008C30.3024 44.6867 30.5555 44.4245 30.8633 44.2415C31.1711 44.0586 31.5224 43.9617 31.8805 43.9608H32.7105H33.5405C33.9047 43.9468 34.2658 44.0325 34.5848 44.2088C34.9038 44.385 35.1686 44.6451 35.3505 44.9608L35.7805 45.6708L36.2005 46.3708C36.3913 46.6842 36.4922 47.044 36.4922 47.4108C36.4922 47.7777 36.3913 48.1375 36.2005 48.4508L35.8005 49.1708L35.4005 49.9008C35.2286 50.215 34.9756 50.4772 34.6677 50.6602C34.3599 50.8431 34.0086 50.94 33.6505 50.9408Z" fill="white"/>
<path fill-rule="evenodd" clip-rule="evenodd" d="M40.0005 110.451V116.981C40.0084 117.365 39.9157 117.745 39.7318 118.083C39.5479 118.421 39.2791 118.704 38.9518 118.906C38.6246 119.108 38.2504 119.221 37.8661 119.235C37.4818 119.248 37.1007 119.16 36.7605 118.981L30.2305 115.621C29.8563 115.435 29.5422 115.147 29.3243 114.79C29.1064 114.434 28.9936 114.023 28.9989 113.605C29.0041 113.187 29.1271 112.779 29.3539 112.428C29.5806 112.077 29.9018 111.797 30.2805 111.621L36.8105 108.451C37.1492 108.286 37.5242 108.211 37.9002 108.231C38.2761 108.251 38.6408 108.367 38.9598 108.567C39.2788 108.767 39.5417 109.045 39.7238 109.374C39.9058 109.704 40.0011 110.074 40.0005 110.451ZM28.5605 125.981H22.0305C21.6486 125.985 21.272 125.89 20.9373 125.706C20.6026 125.522 20.3211 125.254 20.12 124.93C19.9189 124.605 19.805 124.234 19.7893 123.852C19.7736 123.47 19.8567 123.091 20.0305 122.751L23.3905 116.221C23.5719 115.844 23.8558 115.527 24.2096 115.305C24.5634 115.082 24.9727 114.964 25.3905 114.964C25.8084 114.964 26.2177 115.082 26.5715 115.305C26.9253 115.527 27.2092 115.844 27.3905 116.221L30.5605 122.751C30.728 123.089 30.8058 123.464 30.7865 123.84C30.7672 124.217 30.6515 124.582 30.4505 124.901C30.2585 125.231 29.9826 125.505 29.6508 125.695C29.3189 125.885 28.9428 125.983 28.5605 125.981ZM10.3705 110.451V116.981C10.3657 117.364 10.4601 117.742 10.6448 118.078C10.8295 118.414 11.098 118.697 11.4243 118.898C11.7505 119.1 12.1234 119.213 12.5065 119.228C12.8897 119.242 13.27 119.157 13.6105 118.981L20.1405 115.621C20.518 115.438 20.8355 115.151 21.056 114.794C21.2765 114.437 21.3908 114.025 21.3855 113.605C21.3803 113.185 21.2557 112.776 21.0264 112.425C20.7971 112.073 20.4725 111.795 20.0905 111.621L13.5605 108.451C13.2216 108.289 12.8473 108.216 12.4724 108.237C12.0975 108.259 11.7341 108.375 11.416 108.574C11.0978 108.774 10.8351 109.05 10.6524 109.378C10.4696 109.706 10.3727 110.075 10.3705 110.451ZM28.3705 101.451H21.8105C21.4285 101.447 21.052 101.542 20.7173 101.726C20.3826 101.91 20.1011 102.177 19.9 102.502C19.6989 102.827 19.585 103.198 19.5693 103.58C19.5536 103.961 19.6367 104.341 19.8105 104.681L23.1705 111.211C23.3519 111.587 23.6358 111.905 23.9896 112.127C24.3434 112.349 24.7527 112.467 25.1705 112.467C25.5884 112.467 25.9977 112.349 26.3515 112.127C26.7053 111.905 26.9892 111.587 27.1705 111.211L30.3405 104.681C30.5094 104.343 30.5871 103.967 30.566 103.59C30.545 103.213 30.4259 102.848 30.2205 102.531C30.0279 102.205 29.7525 101.937 29.4222 101.752C29.092 101.568 28.7187 101.474 28.3405 101.481L28.3705 101.451Z" fill="white"/>
</svg>
