<svg width="141" height="65" viewBox="0 0 141 65" fill="none" xmlns="http://www.w3.org/2000/svg">
<path fill-rule="evenodd" clip-rule="evenodd" d="M25.4803 25.21V34.38C25.4784 34.5038 25.4451 34.6251 25.3834 34.7325C25.3217 34.8398 25.2337 34.9298 25.1277 34.9938C25.0217 35.0578 24.9011 35.0938 24.7774 35.0984C24.6536 35.1029 24.5308 35.076 24.4203 35.02L15.2503 30.3C15.1306 30.2388 15.0301 30.1457 14.9599 30.031C14.8897 29.9163 14.8526 29.7844 14.8526 29.65C14.8526 29.5155 14.8897 29.3836 14.9599 29.2689C15.0301 29.1542 15.1306 29.0612 15.2503 29L24.4203 24.55C24.5296 24.5064 24.6479 24.4899 24.7649 24.5019C24.882 24.5139 24.9944 24.554 25.0926 24.6188C25.1909 24.6837 25.2719 24.7713 25.329 24.8742C25.3861 24.9771 25.4174 25.0923 25.4203 25.21" fill="#484AFD"/>
<mask id="mask0_388_2610" style="mask-type:luminance" maskUnits="userSpaceOnUse" x="14" y="24" width="12" height="12">
<path d="M25.4803 25.21V34.38C25.4784 34.5038 25.4451 34.6251 25.3834 34.7325C25.3217 34.8398 25.2337 34.9298 25.1277 34.9938C25.0217 35.0578 24.9011 35.0938 24.7774 35.0984C24.6536 35.1029 24.5308 35.076 24.4203 35.02L15.2503 30.3C15.1306 30.2388 15.0301 30.1457 14.9599 30.031C14.8897 29.9163 14.8526 29.7844 14.8526 29.65C14.8526 29.5155 14.8897 29.3836 14.9599 29.2689C15.0301 29.1542 15.1306 29.0612 15.2503 29L24.4203 24.55C24.5296 24.5064 24.6479 24.4899 24.7649 24.5019C24.882 24.5139 24.9944 24.554 25.0926 24.6188C25.1909 24.6837 25.2719 24.7713 25.329 24.8742C25.3861 24.9771 25.4174 25.0923 25.4203 25.21" fill="white"/>
</mask>
<g mask="url(#mask0_388_2610)">
<path d="M25.4803 24.4399H14.8603V35.1399H25.4803V24.4399Z" fill="#484AFD"/>
</g>
<path fill-rule="evenodd" clip-rule="evenodd" d="M0.000312364 46.37V36.04C-0.00839158 35.4551 0.164996 34.882 0.496456 34.4C0.827916 33.9181 1.30104 33.5511 1.85031 33.35L7.16031 31.35C7.68506 31.1411 8.26055 31.0953 8.81174 31.2184C9.36294 31.3414 9.86425 31.6278 10.2503 32.04L26.1103 48.33C26.6342 48.8549 27.0482 49.4791 27.328 50.1659C27.6079 50.8527 27.7481 51.5884 27.7403 52.33V55.81C27.7403 57.05 26.4303 56.61 26.1303 56.52L2.04031 49.14C1.45406 48.9569 0.942642 48.5892 0.58225 48.0919C0.221859 47.5946 0.031775 46.9941 0.0403133 46.38" fill="#484AFD"/>
<mask id="mask1_388_2610" style="mask-type:luminance" maskUnits="userSpaceOnUse" x="0" y="31" width="28" height="26">
<path d="M0.000312364 46.37V36.04C-0.00839158 35.4551 0.164996 34.882 0.496456 34.4C0.827916 33.9181 1.30104 33.5511 1.85031 33.35L7.16031 31.35C7.68506 31.1411 8.26055 31.0953 8.81174 31.2184C9.36294 31.3414 9.86425 31.6278 10.2503 32.04L26.1103 48.33C26.6342 48.8549 27.0482 49.4791 27.328 50.1659C27.6079 50.8527 27.7481 51.5884 27.7403 52.33V55.81C27.7403 57.05 26.4303 56.61 26.1303 56.52L2.04031 49.14C1.45406 48.9569 0.942642 48.5892 0.58225 48.0919C0.221859 47.5946 0.031775 46.9941 0.0403133 46.38" fill="white"/>
</mask>
<g mask="url(#mask1_388_2610)">
<path d="M27.7403 30.9H0.000305176V57.03H27.7403V30.9Z" fill="#484AFD"/>
</g>
<path fill-rule="evenodd" clip-rule="evenodd" d="M0.000312364 13.21V23.54C-0.00839158 24.1249 0.164996 24.698 0.496456 25.1799C0.827916 25.6619 1.30104 26.0288 1.85031 26.23L7.16031 28.23C7.68452 28.4373 8.25869 28.4833 8.80922 28.3621C9.35975 28.241 9.86156 27.9582 10.2503 27.55L26.1103 11.29C26.6333 10.7644 27.0467 10.1401 27.3265 9.45346C27.6063 8.76681 27.747 8.03143 27.7403 7.28998V3.77998C27.7403 2.54998 26.4303 2.97998 26.1303 3.06998L2.04031 10.45C1.45406 10.6331 0.942642 11.0007 0.58225 11.4981C0.221859 11.9954 0.031775 12.5959 0.0403133 13.21" fill="#484AFD"/>
<mask id="mask2_388_2610" style="mask-type:luminance" maskUnits="userSpaceOnUse" x="0" y="2" width="28" height="27">
<path d="M0.000312364 13.21V23.54C-0.00839158 24.1249 0.164996 24.698 0.496456 25.1799C0.827916 25.6619 1.30104 26.0288 1.85031 26.23L7.16031 28.23C7.68452 28.4373 8.25869 28.4833 8.80922 28.3621C9.35975 28.241 9.86156 27.9582 10.2503 27.55L26.1103 11.29C26.6333 10.7644 27.0467 10.1401 27.3265 9.45346C27.6063 8.76681 27.747 8.03143 27.7403 7.28998V3.77998C27.7403 2.54998 26.4303 2.97998 26.1303 3.06998L2.04031 10.45C1.45406 10.6331 0.942642 11.0007 0.58225 11.4981C0.221859 11.9954 0.031775 12.5959 0.0403133 13.21" fill="white"/>
</mask>
<g mask="url(#mask2_388_2610)">
<path d="M27.7403 2.54999H0.000305176V28.68H27.7403V2.54999Z" fill="#484AFD"/>
</g>
<path fill-rule="evenodd" clip-rule="evenodd" d="M7.72031 14.18H7.15031C7.02324 14.1854 6.89716 14.1555 6.78598 14.0938C6.6748 14.032 6.58286 13.9407 6.52031 13.83L6.37031 13.61L6.22031 13.37C6.15421 13.2597 6.1193 13.1335 6.1193 13.005C6.1193 12.8764 6.15421 12.7503 6.22031 12.64L6.36031 12.39L6.50031 12.14C6.56028 12.0278 6.64969 11.9341 6.75892 11.8689C6.86816 11.8037 6.9931 11.7695 7.12031 11.77H7.69031C7.81756 11.7634 7.9441 11.7928 8.05549 11.8547C8.16688 11.9165 8.25864 12.0085 8.32031 12.12L8.47031 12.37L8.62031 12.61C8.6845 12.7191 8.71835 12.8434 8.71835 12.97C8.71835 13.0966 8.6845 13.2209 8.62031 13.33L8.48031 13.59L8.34031 13.84C8.27869 13.9508 8.18891 14.0433 8.08004 14.1083C7.97117 14.1733 7.84708 14.2083 7.72031 14.21M7.62031 21.27H6.40031H5.19031C5.06177 21.2761 4.93402 21.2467 4.82111 21.1849C4.70821 21.1232 4.61451 21.0315 4.55031 20.92L3.93031 19.92L3.30031 18.92C3.23612 18.8109 3.20227 18.6866 3.20227 18.56C3.20227 18.4334 3.23612 18.3091 3.30031 18.2L3.90031 17.13L4.49031 16.07C4.54849 15.9563 4.6375 15.8613 4.74715 15.7959C4.85679 15.7305 4.98265 15.6972 5.11031 15.7H6.32031H7.54031C7.667 15.6968 7.79224 15.7276 7.90302 15.7891C8.0138 15.8506 8.10609 15.9407 8.17031 16.05L8.80031 17.05L9.43031 18.05C9.4964 18.1603 9.53131 18.2864 9.53131 18.415C9.53131 18.5435 9.4964 18.6697 9.43031 18.78L8.84031 19.84L8.25031 20.91C8.18657 21.0204 8.09466 21.1119 7.98397 21.1751C7.87329 21.2384 7.74779 21.2711 7.62031 21.27ZM13.8303 17.06H12.6103H11.4003C11.2725 17.0619 11.1463 17.0307 11.0342 16.9693C10.922 16.908 10.8277 16.8186 10.7603 16.71L10.1403 15.66L9.51031 14.66C9.44402 14.5516 9.40895 14.427 9.40895 14.3C9.40895 14.1729 9.44402 14.0484 9.51031 13.94L10.1003 12.87L10.6903 11.8C10.7519 11.6892 10.8417 11.5966 10.9506 11.5316C11.0594 11.4667 11.1835 11.4316 11.3103 11.43H12.5203H13.7403C13.8676 11.4234 13.9941 11.4528 14.1055 11.5147C14.2169 11.5765 14.3086 11.6685 14.3703 11.78L15.0003 12.78L15.6303 13.78C15.7189 13.9007 15.7659 14.0469 15.7641 14.1966C15.7623 14.3464 15.7118 14.4914 15.6203 14.61L15.0503 15.61L14.4603 16.67C14.4031 16.7859 14.3148 16.8837 14.2054 16.9525C14.096 17.0214 13.9696 17.0586 13.8403 17.06H13.8303ZM11.7103 20.61H11.1303C11.0042 20.6102 10.8801 20.5781 10.7698 20.5169C10.6596 20.4556 10.5668 20.3672 10.5003 20.26L10.3503 20.01L10.2103 19.76C10.144 19.6516 10.109 19.527 10.109 19.4C10.109 19.2729 10.144 19.1484 10.2103 19.04L10.3503 18.79L10.4903 18.54C10.5511 18.4285 10.6407 18.3354 10.7498 18.2703C10.8588 18.2052 10.9833 18.1706 11.1103 18.17H11.6903C11.8172 18.1657 11.9428 18.196 12.0538 18.2577C12.1648 18.3193 12.2569 18.41 12.3203 18.52L12.4703 18.76L12.6103 19.01C12.6766 19.1184 12.7117 19.2429 12.7117 19.37C12.7117 19.497 12.6766 19.6216 12.6103 19.73L12.4703 19.98L12.3303 20.24C12.2679 20.3501 12.1779 20.4421 12.0693 20.507C11.9606 20.5719 11.8369 20.6073 11.7103 20.61Z" fill="white"/>
<path fill-rule="evenodd" clip-rule="evenodd" d="M13.9203 41.36V43.61C13.9216 43.7427 13.8882 43.8735 13.8233 43.9893C13.7584 44.1051 13.6642 44.2019 13.5503 44.27C13.4338 44.3339 13.3031 44.3674 13.1703 44.3674C13.0375 44.3674 12.9068 44.3339 12.7903 44.27L10.5203 43.1C10.3921 43.0347 10.2845 42.9352 10.2093 42.8125C10.1342 42.6899 10.0944 42.5488 10.0944 42.405C10.0944 42.2611 10.1342 42.1201 10.2093 41.9974C10.2845 41.8747 10.3921 41.7753 10.5203 41.71L12.7903 40.61C12.9049 40.546 13.034 40.5125 13.1653 40.5125C13.2966 40.5125 13.4257 40.546 13.5403 40.61C13.6524 40.6793 13.7445 40.7766 13.8076 40.8923C13.8707 41.008 13.9027 41.1382 13.9003 41.27M9.9003 46.67H7.6703C7.53718 46.6734 7.4056 46.6408 7.28944 46.5757C7.17328 46.5106 7.07684 46.4153 7.0103 46.3C6.94139 46.187 6.90493 46.0573 6.90493 45.925C6.90493 45.7927 6.94139 45.6629 7.0103 45.55L8.1803 43.27C8.2468 43.1421 8.34741 43.0352 8.47097 42.9611C8.59453 42.8869 8.73621 42.8485 8.8803 42.85C9.0236 42.8517 9.16348 42.894 9.2838 42.9718C9.40412 43.0497 9.49997 43.16 9.5603 43.29L10.6203 45.61C10.678 45.7273 10.7049 45.8574 10.6985 45.988C10.692 46.1186 10.6524 46.2454 10.5834 46.3565C10.5143 46.4675 10.4182 46.5592 10.3039 46.6228C10.1896 46.6864 10.0611 46.7198 9.9303 46.72L9.9003 46.67ZM3.6203 41.36V43.61C3.61688 43.7431 3.64945 43.8747 3.71457 43.9908C3.77969 44.107 3.87495 44.2034 3.9903 44.27C4.10495 44.3339 4.23403 44.3674 4.3653 44.3674C4.49657 44.3674 4.62565 44.3339 4.7403 44.27L7.0203 43.1C7.14848 43.0347 7.2561 42.9352 7.33127 42.8125C7.40644 42.6899 7.44622 42.5488 7.44622 42.405C7.44622 42.2611 7.40644 42.1201 7.33127 41.9974C7.2561 41.8747 7.14848 41.7753 7.0203 41.71L4.7503 40.61C4.63221 40.5518 4.50119 40.5249 4.36975 40.5319C4.23832 40.5388 4.11084 40.5793 3.99951 40.6495C3.88818 40.7197 3.7967 40.8173 3.73382 40.9329C3.67093 41.0485 3.63874 41.1783 3.6403 41.31L3.6203 41.36ZM9.8703 38.23H7.6203C7.48756 38.2286 7.35678 38.2621 7.24098 38.327C7.12519 38.3919 7.02842 38.486 6.9603 38.6C6.89158 38.7148 6.85528 38.8461 6.85528 38.98C6.85528 39.1138 6.89158 39.2451 6.9603 39.36L8.0703 41.61C8.13395 41.7401 8.23393 41.849 8.35815 41.9235C8.48237 41.9981 8.62552 42.035 8.7703 42.03C8.91305 42.0315 9.05319 41.9917 9.17384 41.9155C9.2945 41.8392 9.39051 41.7296 9.4503 41.6L10.5603 39.32C10.6156 39.2016 10.6402 39.0713 10.632 38.9409C10.6238 38.8106 10.583 38.6844 10.5133 38.5739C10.4437 38.4634 10.3473 38.3722 10.2332 38.3086C10.1192 38.245 9.99091 38.2111 9.8603 38.21L9.8703 38.23Z" fill="white"/>
<path d="M40.7363 11.96V16.16H46.3763V18.824H40.7363V23.264H47.0963V26H37.3763V9.224H47.0963V11.96H40.7363ZM55.9337 26.168C54.7657 26.168 53.7097 25.968 52.7657 25.568C51.8377 25.168 51.1017 24.592 50.5577 23.84C50.0137 23.088 49.7337 22.2 49.7177 21.176H53.3177C53.3657 21.864 53.6057 22.408 54.0377 22.808C54.4857 23.208 55.0937 23.408 55.8617 23.408C56.6457 23.408 57.2617 23.224 57.7097 22.856C58.1577 22.472 58.3817 21.976 58.3817 21.368C58.3817 20.872 58.2297 20.464 57.9257 20.144C57.6217 19.824 57.2377 19.576 56.7737 19.4C56.3257 19.208 55.7017 19 54.9017 18.776C53.8137 18.456 52.9257 18.144 52.2377 17.84C51.5657 17.52 50.9817 17.048 50.4857 16.424C50.0057 15.784 49.7657 14.936 49.7657 13.88C49.7657 12.888 50.0137 12.024 50.5097 11.288C51.0057 10.552 51.7017 9.992 52.5977 9.608C53.4937 9.208 54.5177 9.008 55.6697 9.008C57.3977 9.008 58.7977 9.432 59.8697 10.28C60.9577 11.112 61.5577 12.28 61.6697 13.784H57.9737C57.9417 13.208 57.6937 12.736 57.2297 12.368C56.7817 11.984 56.1817 11.792 55.4297 11.792C54.7737 11.792 54.2457 11.96 53.8457 12.296C53.4617 12.632 53.2697 13.12 53.2697 13.76C53.2697 14.208 53.4137 14.584 53.7017 14.888C54.0057 15.176 54.3737 15.416 54.8057 15.608C55.2537 15.784 55.8777 15.992 56.6777 16.232C57.7657 16.552 58.6537 16.872 59.3417 17.192C60.0297 17.512 60.6217 17.992 61.1177 18.632C61.6137 19.272 61.8617 20.112 61.8617 21.152C61.8617 22.048 61.6297 22.88 61.1657 23.648C60.7017 24.416 60.0217 25.032 59.1257 25.496C58.2297 25.944 57.1657 26.168 55.9337 26.168ZM76.9907 14.432C76.9907 15.328 76.7747 16.168 76.3427 16.952C75.9267 17.736 75.2627 18.368 74.3507 18.848C73.4547 19.328 72.3187 19.568 70.9427 19.568H68.1347V26H64.7747V9.248H70.9427C72.2387 9.248 73.3427 9.472 74.2547 9.92C75.1667 10.368 75.8467 10.984 76.2947 11.768C76.7587 12.552 76.9907 13.44 76.9907 14.432ZM70.7987 16.856C71.7267 16.856 72.4147 16.648 72.8627 16.232C73.3107 15.8 73.5347 15.2 73.5347 14.432C73.5347 12.8 72.6227 11.984 70.7987 11.984H68.1347V16.856H70.7987ZM87.1523 26.168C85.5843 26.168 84.1443 25.8 82.8323 25.064C81.5203 24.328 80.4803 23.312 79.7123 22.016C78.9443 20.704 78.5603 19.224 78.5603 17.576C78.5603 15.944 78.9443 14.48 79.7123 13.184C80.4803 11.872 81.5203 10.848 82.8323 10.112C84.1443 9.376 85.5843 9.008 87.1523 9.008C88.7363 9.008 90.1763 9.376 91.4723 10.112C92.7843 10.848 93.8163 11.872 94.5683 13.184C95.3363 14.48 95.7203 15.944 95.7203 17.576C95.7203 19.224 95.3363 20.704 94.5683 22.016C93.8163 23.312 92.7843 24.328 91.4723 25.064C90.1603 25.8 88.7203 26.168 87.1523 26.168ZM87.1523 23.168C88.1603 23.168 89.0483 22.944 89.8163 22.496C90.5843 22.032 91.1843 21.376 91.6163 20.528C92.0483 19.68 92.2643 18.696 92.2643 17.576C92.2643 16.456 92.0483 15.48 91.6163 14.648C91.1843 13.8 90.5843 13.152 89.8163 12.704C89.0483 12.256 88.1603 12.032 87.1523 12.032C86.1443 12.032 85.2483 12.256 84.4643 12.704C83.6963 13.152 83.0963 13.8 82.6643 14.648C82.2323 15.48 82.0163 16.456 82.0163 17.576C82.0163 18.696 82.2323 19.68 82.6643 20.528C83.0963 21.376 83.6963 22.032 84.4643 22.496C85.2483 22.944 86.1443 23.168 87.1523 23.168ZM106.86 26L103.164 19.472H101.58V26H98.2201V9.248H104.508C105.804 9.248 106.908 9.48 107.82 9.944C108.732 10.392 109.412 11.008 109.86 11.792C110.324 12.56 110.556 13.424 110.556 14.384C110.556 15.488 110.236 16.488 109.596 17.384C108.956 18.264 108.004 18.872 106.74 19.208L110.748 26H106.86ZM101.58 16.952H104.388C105.3 16.952 105.98 16.736 106.428 16.304C106.876 15.856 107.1 15.24 107.1 14.456C107.1 13.688 106.876 13.096 106.428 12.68C105.98 12.248 105.3 12.032 104.388 12.032H101.58V16.952ZM124.995 9.248V11.96H120.531V26H117.171V11.96H112.707V9.248H124.995ZM133.231 26.168C132.063 26.168 131.007 25.968 130.063 25.568C129.135 25.168 128.399 24.592 127.855 23.84C127.311 23.088 127.031 22.2 127.015 21.176H130.615C130.663 21.864 130.903 22.408 131.335 22.808C131.783 23.208 132.391 23.408 133.159 23.408C133.943 23.408 134.559 23.224 135.007 22.856C135.455 22.472 135.679 21.976 135.679 21.368C135.679 20.872 135.527 20.464 135.223 20.144C134.919 19.824 134.535 19.576 134.071 19.4C133.623 19.208 132.999 19 132.199 18.776C131.111 18.456 130.223 18.144 129.535 17.84C128.863 17.52 128.279 17.048 127.783 16.424C127.303 15.784 127.063 14.936 127.063 13.88C127.063 12.888 127.311 12.024 127.807 11.288C128.303 10.552 128.999 9.992 129.895 9.608C130.791 9.208 131.815 9.008 132.967 9.008C134.695 9.008 136.095 9.432 137.167 10.28C138.255 11.112 138.855 12.28 138.967 13.784H135.271C135.239 13.208 134.991 12.736 134.527 12.368C134.079 11.984 133.479 11.792 132.727 11.792C132.071 11.792 131.543 11.96 131.143 12.296C130.759 12.632 130.567 13.12 130.567 13.76C130.567 14.208 130.711 14.584 130.999 14.888C131.303 15.176 131.671 15.416 132.103 15.608C132.551 15.784 133.175 15.992 133.975 16.232C135.063 16.552 135.951 16.872 136.639 17.192C137.327 17.512 137.919 17.992 138.415 18.632C138.911 19.272 139.159 20.112 139.159 21.152C139.159 22.048 138.927 22.88 138.463 23.648C137.999 24.416 137.319 25.032 136.423 25.496C135.527 25.944 134.463 26.168 133.231 26.168Z" fill="#484AFD"/>
<path d="M51.7043 54.8H48.3443L40.7363 43.304V54.8H37.3763V38.024H40.7363L48.3443 49.544V38.024H51.7043V54.8ZM66.6887 43.088C66.3047 42.384 65.7767 41.848 65.1047 41.48C64.4327 41.112 63.6487 40.928 62.7527 40.928C61.7607 40.928 60.8807 41.152 60.1127 41.6C59.3447 42.048 58.7447 42.688 58.3127 43.52C57.8807 44.352 57.6647 45.312 57.6647 46.4C57.6647 47.52 57.8807 48.496 58.3127 49.328C58.7607 50.16 59.3767 50.8 60.1607 51.248C60.9447 51.696 61.8567 51.92 62.8967 51.92C64.1767 51.92 65.2247 51.584 66.0407 50.912C66.8567 50.224 67.3927 49.272 67.6487 48.056H61.8887V45.488H70.9607V48.416C70.7367 49.584 70.2567 50.664 69.5207 51.656C68.7847 52.648 67.8327 53.448 66.6647 54.056C65.5127 54.648 64.2167 54.944 62.7767 54.944C61.1607 54.944 59.6967 54.584 58.3847 53.864C57.0887 53.128 56.0647 52.112 55.3127 50.816C54.5767 49.52 54.2087 48.048 54.2087 46.4C54.2087 44.752 54.5767 43.28 55.3127 41.984C56.0647 40.672 57.0887 39.656 58.3847 38.936C59.6967 38.2 61.1527 37.832 62.7527 37.832C64.6407 37.832 66.2807 38.296 67.6727 39.224C69.0647 40.136 70.0247 41.424 70.5527 43.088H66.6887Z" fill="#484AFD"/>
</svg>
