<svg width="154" height="65" viewBox="0 0 154 65" fill="none" xmlns="http://www.w3.org/2000/svg">
<path d="M53.7363 11.96V16.16H59.3763V18.824H53.7363V23.264H60.0963V26H50.3763V9.224H60.0963V11.96H53.7363ZM68.9337 26.168C67.7657 26.168 66.7097 25.968 65.7657 25.568C64.8377 25.168 64.1017 24.592 63.5577 23.84C63.0137 23.088 62.7337 22.2 62.7177 21.176H66.3177C66.3657 21.864 66.6057 22.408 67.0377 22.808C67.4857 23.208 68.0937 23.408 68.8617 23.408C69.6457 23.408 70.2617 23.224 70.7097 22.856C71.1577 22.472 71.3817 21.976 71.3817 21.368C71.3817 20.872 71.2297 20.464 70.9257 20.144C70.6217 19.824 70.2377 19.576 69.7737 19.4C69.3257 19.208 68.7017 19 67.9017 18.776C66.8137 18.456 65.9257 18.144 65.2377 17.84C64.5657 17.52 63.9817 17.048 63.4857 16.424C63.0057 15.784 62.7657 14.936 62.7657 13.88C62.7657 12.888 63.0137 12.024 63.5097 11.288C64.0057 10.552 64.7017 9.992 65.5977 9.608C66.4937 9.208 67.5177 9.008 68.6697 9.008C70.3977 9.008 71.7977 9.432 72.8697 10.28C73.9577 11.112 74.5577 12.28 74.6697 13.784H70.9737C70.9417 13.208 70.6937 12.736 70.2297 12.368C69.7817 11.984 69.1817 11.792 68.4297 11.792C67.7737 11.792 67.2457 11.96 66.8457 12.296C66.4617 12.632 66.2697 13.12 66.2697 13.76C66.2697 14.208 66.4137 14.584 66.7017 14.888C67.0057 15.176 67.3737 15.416 67.8057 15.608C68.2537 15.784 68.8777 15.992 69.6777 16.232C70.7657 16.552 71.6537 16.872 72.3417 17.192C73.0297 17.512 73.6217 17.992 74.1177 18.632C74.6137 19.272 74.8617 20.112 74.8617 21.152C74.8617 22.048 74.6297 22.88 74.1657 23.648C73.7017 24.416 73.0217 25.032 72.1257 25.496C71.2297 25.944 70.1657 26.168 68.9337 26.168ZM89.9907 14.432C89.9907 15.328 89.7747 16.168 89.3427 16.952C88.9267 17.736 88.2627 18.368 87.3507 18.848C86.4547 19.328 85.3187 19.568 83.9427 19.568H81.1347V26H77.7747V9.248H83.9427C85.2387 9.248 86.3427 9.472 87.2547 9.92C88.1667 10.368 88.8467 10.984 89.2947 11.768C89.7587 12.552 89.9907 13.44 89.9907 14.432ZM83.7987 16.856C84.7267 16.856 85.4147 16.648 85.8627 16.232C86.3107 15.8 86.5347 15.2 86.5347 14.432C86.5347 12.8 85.6227 11.984 83.7987 11.984H81.1347V16.856H83.7987ZM100.152 26.168C98.5843 26.168 97.1443 25.8 95.8323 25.064C94.5203 24.328 93.4803 23.312 92.7123 22.016C91.9443 20.704 91.5603 19.224 91.5603 17.576C91.5603 15.944 91.9443 14.48 92.7123 13.184C93.4803 11.872 94.5203 10.848 95.8323 10.112C97.1443 9.376 98.5843 9.008 100.152 9.008C101.736 9.008 103.176 9.376 104.472 10.112C105.784 10.848 106.816 11.872 107.568 13.184C108.336 14.48 108.72 15.944 108.72 17.576C108.72 19.224 108.336 20.704 107.568 22.016C106.816 23.312 105.784 24.328 104.472 25.064C103.16 25.8 101.72 26.168 100.152 26.168ZM100.152 23.168C101.16 23.168 102.048 22.944 102.816 22.496C103.584 22.032 104.184 21.376 104.616 20.528C105.048 19.68 105.264 18.696 105.264 17.576C105.264 16.456 105.048 15.48 104.616 14.648C104.184 13.8 103.584 13.152 102.816 12.704C102.048 12.256 101.16 12.032 100.152 12.032C99.1443 12.032 98.2483 12.256 97.4643 12.704C96.6963 13.152 96.0963 13.8 95.6643 14.648C95.2323 15.48 95.0163 16.456 95.0163 17.576C95.0163 18.696 95.2323 19.68 95.6643 20.528C96.0963 21.376 96.6963 22.032 97.4643 22.496C98.2483 22.944 99.1443 23.168 100.152 23.168ZM119.86 26L116.164 19.472H114.58V26H111.22V9.248H117.508C118.804 9.248 119.908 9.48 120.82 9.944C121.732 10.392 122.412 11.008 122.86 11.792C123.324 12.56 123.556 13.424 123.556 14.384C123.556 15.488 123.236 16.488 122.596 17.384C121.956 18.264 121.004 18.872 119.74 19.208L123.748 26H119.86ZM114.58 16.952H117.388C118.3 16.952 118.98 16.736 119.428 16.304C119.876 15.856 120.1 15.24 120.1 14.456C120.1 13.688 119.876 13.096 119.428 12.68C118.98 12.248 118.3 12.032 117.388 12.032H114.58V16.952ZM137.995 9.248V11.96H133.531V26H130.171V11.96H125.707V9.248H137.995ZM146.231 26.168C145.063 26.168 144.007 25.968 143.063 25.568C142.135 25.168 141.399 24.592 140.855 23.84C140.311 23.088 140.031 22.2 140.015 21.176H143.615C143.663 21.864 143.903 22.408 144.335 22.808C144.783 23.208 145.391 23.408 146.159 23.408C146.943 23.408 147.559 23.224 148.007 22.856C148.455 22.472 148.679 21.976 148.679 21.368C148.679 20.872 148.527 20.464 148.223 20.144C147.919 19.824 147.535 19.576 147.071 19.4C146.623 19.208 145.999 19 145.199 18.776C144.111 18.456 143.223 18.144 142.535 17.84C141.863 17.52 141.279 17.048 140.783 16.424C140.303 15.784 140.063 14.936 140.063 13.88C140.063 12.888 140.311 12.024 140.807 11.288C141.303 10.552 141.999 9.992 142.895 9.608C143.791 9.208 144.815 9.008 145.967 9.008C147.695 9.008 149.095 9.432 150.167 10.28C151.255 11.112 151.855 12.28 151.967 13.784H148.271C148.239 13.208 147.991 12.736 147.527 12.368C147.079 11.984 146.479 11.792 145.727 11.792C145.071 11.792 144.543 11.96 144.143 12.296C143.759 12.632 143.567 13.12 143.567 13.76C143.567 14.208 143.711 14.584 143.999 14.888C144.303 15.176 144.671 15.416 145.103 15.608C145.551 15.784 146.175 15.992 146.975 16.232C148.063 16.552 148.951 16.872 149.639 17.192C150.327 17.512 150.919 17.992 151.415 18.632C151.911 19.272 152.159 20.112 152.159 21.152C152.159 22.048 151.927 22.88 151.463 23.648C150.999 24.416 150.319 25.032 149.423 25.496C148.527 25.944 147.463 26.168 146.231 26.168Z" fill="#7D7AFF"/>
<path d="M64.7043 54.7998H61.3443L53.7363 43.3038V54.7998H50.3763V38.0238H53.7363L61.3443 49.5438V38.0238H64.7043V54.7998ZM79.6887 43.0878C79.3047 42.3838 78.7767 41.8478 78.1047 41.4798C77.4327 41.1118 76.6487 40.9278 75.7527 40.9278C74.7607 40.9278 73.8807 41.1518 73.1127 41.5998C72.3447 42.0478 71.7447 42.6878 71.3127 43.5198C70.8807 44.3518 70.6647 45.3118 70.6647 46.3998C70.6647 47.5198 70.8807 48.4958 71.3127 49.3278C71.7607 50.1598 72.3767 50.7998 73.1607 51.2478C73.9447 51.6958 74.8567 51.9198 75.8967 51.9198C77.1767 51.9198 78.2247 51.5838 79.0407 50.9118C79.8567 50.2238 80.3927 49.2718 80.6487 48.0558H74.8887V45.4878H83.9607V48.4158C83.7367 49.5838 83.2567 50.6638 82.5207 51.6558C81.7847 52.6478 80.8327 53.4478 79.6647 54.0558C78.5127 54.6478 77.2167 54.9438 75.7767 54.9438C74.1607 54.9438 72.6967 54.5838 71.3847 53.8638C70.0887 53.1278 69.0647 52.1118 68.3127 50.8158C67.5767 49.5198 67.2087 48.0478 67.2087 46.3998C67.2087 44.7518 67.5767 43.2798 68.3127 41.9838C69.0647 40.6718 70.0887 39.6558 71.3847 38.9358C72.6967 38.1998 74.1527 37.8318 75.7527 37.8318C77.6407 37.8318 79.2807 38.2958 80.6727 39.2238C82.0647 40.1358 83.0247 41.4238 83.5527 43.0878H79.6887Z" fill="#7D7AFF"/>
<path fill-rule="evenodd" clip-rule="evenodd" d="M32.6045 25.864V36.0982C32.6026 36.2347 32.561 36.3685 32.4837 36.4871C32.4065 36.6058 32.296 36.7054 32.1625 36.7768C32.0291 36.8481 31.8771 36.8888 31.7208 36.8951C31.5644 36.9013 31.4088 36.873 31.2684 36.8126L19.5423 31.5441C19.3883 31.4776 19.2588 31.375 19.1681 31.2477C19.0775 31.1204 19.0295 30.9736 19.0295 30.8239C19.0295 30.6741 19.0775 30.5273 19.1681 30.4C19.2588 30.2728 19.3883 30.1701 19.5423 30.1037L31.2818 25.138C31.4232 25.0772 31.58 25.0489 31.7375 25.0557C31.8949 25.0625 32.0477 25.1042 32.1815 25.1769C32.3153 25.2496 32.4256 25.3509 32.5019 25.4711C32.5783 25.5913 32.6182 25.7266 32.6178 25.864" fill="#7D7AFF"/>
<mask id="mask0_5308_13992" style="mask-type:luminance" maskUnits="userSpaceOnUse" x="19" y="25" width="14" height="12">
<path d="M32.6045 25.864V36.0982C32.6026 36.2347 32.561 36.3685 32.4837 36.4871C32.4065 36.6058 32.296 36.7054 32.1625 36.7768C32.0291 36.8481 31.8771 36.8888 31.7208 36.8951C31.5644 36.9013 31.4088 36.873 31.2684 36.8126L19.5423 31.5441C19.3883 31.4776 19.2588 31.375 19.1681 31.2477C19.0775 31.1204 19.0295 30.9736 19.0295 30.8239C19.0295 30.6741 19.0775 30.5273 19.1681 30.4C19.2588 30.2728 19.3883 30.1701 19.5423 30.1037L31.2818 25.138C31.4232 25.0772 31.58 25.0489 31.7375 25.0557C31.8949 25.0625 32.0477 25.1042 32.1815 25.1769C32.3153 25.2496 32.4256 25.3509 32.5019 25.4711C32.5783 25.5913 32.6182 25.7266 32.6178 25.864" fill="white"/>
</mask>
<g mask="url(#mask0_5308_13992)">
<path d="M32.6043 25.0137H19.0121V36.9445H32.6043V25.0137Z" fill="#7D7AFF"/>
</g>
<path fill-rule="evenodd" clip-rule="evenodd" d="M0.000203295 49.4889V37.954C-0.0077194 37.3009 0.216102 36.6617 0.641026 36.1237C1.06595 35.5858 1.6712 35.1755 2.37393 34.949L9.16555 32.6894C9.83896 32.4593 10.576 32.4103 11.2817 32.5486C11.9873 32.687 12.6293 33.0065 13.1247 33.4659L33.4105 51.6398C34.0852 52.2274 34.6176 52.927 34.9764 53.6973C35.3352 54.4676 35.513 55.2928 35.4992 56.1241V60.0065C35.4992 61.3848 33.8247 60.9034 33.4462 60.8025L2.61887 52.5522C1.85986 52.359 1.1937 51.9555 0.721206 51.4028C0.248714 50.8501 -0.00438997 50.1782 0.000203295 49.4889Z" fill="#484AFD"/>
<mask id="mask1_5308_13992" style="mask-type:luminance" maskUnits="userSpaceOnUse" x="0" y="32" width="36" height="29">
<path d="M0.000203295 49.4889V37.954C-0.0077194 37.3009 0.216102 36.6617 0.641026 36.1237C1.06595 35.5858 1.6712 35.1755 2.37393 34.949L9.16555 32.6894C9.83896 32.4593 10.576 32.4103 11.2817 32.5486C11.9873 32.687 12.6293 33.0065 13.1247 33.4659L33.4105 51.6398C34.0852 52.2274 34.6176 52.927 34.9764 53.6973C35.3352 54.4676 35.513 55.2928 35.4992 56.1241V60.0065C35.4992 61.3848 33.8247 60.9034 33.4462 60.8025L2.61887 52.5522C1.85986 52.359 1.1937 51.9555 0.721206 51.4028C0.248714 50.8501 -0.00438997 50.1782 0.000203295 49.4889Z" fill="white"/>
</mask>
<g mask="url(#mask1_5308_13992)">
<path d="M35.4993 32.2188H0.000286102V61.3723H35.4993V32.2188Z" fill="#7D7AFF"/>
</g>
<path fill-rule="evenodd" clip-rule="evenodd" d="M0.000237599 12.4847V24.004C-0.00833448 24.6573 0.215229 25.2968 0.640239 25.8349C1.06525 26.3729 1.67087 26.7831 2.37397 27.0091L9.16558 29.2726C9.83908 29.5022 10.576 29.5509 11.2815 29.4125C11.987 29.2742 12.6289 28.955 13.1248 28.4961L33.4106 10.3261C34.0852 9.73849 34.6177 9.03883 34.9765 8.26856C35.3352 7.49829 35.513 6.67307 35.4993 5.8418V1.95932C35.4993 0.581036 33.8247 1.06246 33.4462 1.16341L2.61891 9.4098C1.85934 9.60495 1.19354 10.0108 0.722542 10.5657C0.251547 11.1207 0.00107662 11.7944 0.00914485 12.4847" fill="#484AFD"/>
<mask id="mask2_5308_13992" style="mask-type:luminance" maskUnits="userSpaceOnUse" x="0" y="1" width="36" height="29">
<path d="M0.000237599 12.4847V24.004C-0.00833448 24.6573 0.215229 25.2968 0.640239 25.8349C1.06525 26.3729 1.67087 26.7831 2.37397 27.0091L9.16558 29.2726C9.83908 29.5022 10.576 29.5509 11.2815 29.4125C11.987 29.2742 12.6289 28.955 13.1248 28.4961L33.4106 10.3261C34.0852 9.73849 34.6177 9.03883 34.9765 8.26856C35.3352 7.49829 35.513 6.67307 35.4993 5.8418V1.95932C35.4993 0.581036 33.8247 1.06246 33.4462 1.16341L2.61891 9.4098C1.85934 9.60495 1.19354 10.0108 0.722542 10.5657C0.251547 11.1207 0.00107662 11.7944 0.00914485 12.4847" fill="white"/>
</mask>
<g mask="url(#mask2_5308_13992)">
<path d="M35.4992 0.588867H0.000141144V29.7424H35.4992V0.588867Z" fill="#7D7AFF"/>
</g>
<path fill-rule="evenodd" clip-rule="evenodd" d="M9.88709 13.5648H9.51745H9.15226C8.98974 13.5688 8.82892 13.535 8.68643 13.4667C8.54393 13.3985 8.42493 13.2983 8.34172 13.1765L8.15467 12.9008L7.96317 12.6291C7.87994 12.5083 7.83597 12.3701 7.83597 12.2292C7.83597 12.0883 7.87994 11.9501 7.96317 11.8293L8.14131 11.5497L8.31945 11.2702C8.39494 11.1449 8.50828 11.04 8.64721 10.9668C8.78614 10.8935 8.94538 10.8548 9.10772 10.8548H9.47737H9.84256C10.0055 10.8486 10.1672 10.8815 10.3102 10.95C10.4531 11.0185 10.5717 11.1198 10.6531 11.243L10.8446 11.5187L11.0316 11.7943C11.1157 11.9156 11.1602 12.0545 11.1602 12.1962C11.1602 12.3378 11.1157 12.4768 11.0316 12.598L10.8535 12.8814L10.6754 13.161C10.5973 13.2852 10.4827 13.3892 10.3434 13.4621C10.2042 13.5351 10.0451 13.5746 9.88264 13.5764M9.76685 21.485L8.20811 21.5083L6.64938 21.5355C6.48645 21.5417 6.32471 21.5087 6.18178 21.4403C6.03885 21.3718 5.92023 21.2704 5.83884 21.1472L5.03275 19.9825L4.23112 18.8177C4.14616 18.6961 4.10122 18.5564 4.10122 18.414C4.10122 18.2715 4.14616 18.1319 4.23112 18.0102L4.98822 16.8222L5.73641 15.6186C5.81225 15.4927 5.92628 15.3874 6.06607 15.3141C6.20586 15.2409 6.36604 15.2025 6.52913 15.2032L8.08787 15.176L9.6466 15.1527C9.80953 15.1465 9.97127 15.1795 10.1142 15.2479C10.2571 15.3164 10.3758 15.4177 10.4571 15.5409L11.2588 16.7057L12.0604 17.8704C12.1454 17.9921 12.1903 18.1318 12.1903 18.2742C12.1903 18.4166 12.1454 18.5563 12.0604 18.678L11.3033 19.866L10.5507 21.0541C10.4765 21.1789 10.3648 21.2839 10.2275 21.3577C10.0903 21.4316 9.93258 21.4715 9.7713 21.4734L9.76685 21.485ZM17.7164 16.7833L16.1576 16.8066L14.5989 16.8299C14.436 16.8361 14.2742 16.8032 14.1313 16.7347C13.9884 16.6662 13.8698 16.5649 13.7884 16.4417L12.9867 15.2769L12.1851 14.1122C12.1002 13.9905 12.0552 13.8508 12.0552 13.7084C12.0552 13.566 12.1002 13.4263 12.1851 13.3046L12.9422 12.1166L13.6949 10.9247C13.7729 10.8004 13.8875 10.6965 14.0268 10.6235C14.1661 10.5505 14.3251 10.5111 14.4876 10.5092L16.0463 10.4859L17.605 10.4626C17.768 10.4565 17.9297 10.4894 18.0726 10.5579C18.2156 10.6263 18.3342 10.7277 18.4156 10.8509L19.2172 12.0156L20.0233 13.1804C20.1074 13.3016 20.1519 13.4406 20.1519 13.5822C20.1519 13.7239 20.1074 13.8628 20.0233 13.9841L19.2662 15.176L18.5091 16.364C18.4339 16.4906 18.3201 16.5967 18.1803 16.6707C18.0404 16.7447 17.8799 16.7836 17.7164 16.7833ZM14.9864 20.7784H14.6167H14.2515C14.0886 20.7846 13.9269 20.7516 13.7839 20.6832C13.641 20.6147 13.5224 20.5134 13.441 20.3902L13.254 20.1145L13.0625 19.8388C12.9784 19.7176 12.9339 19.5787 12.9339 19.437C12.9339 19.2953 12.9784 19.1564 13.0625 19.0352L13.2406 18.7517L13.4187 18.4722C13.4953 18.3502 13.608 18.2484 13.7451 18.1774C13.8822 18.1064 14.0386 18.0687 14.1981 18.0684H14.5677H14.9374C15.0996 18.063 15.2604 18.0963 15.4025 18.1647C15.5445 18.2331 15.6624 18.3341 15.7435 18.4567L15.935 18.7323L16.122 19.0041C16.207 19.1258 16.2519 19.2655 16.2519 19.4079C16.2519 19.5503 16.207 19.69 16.122 19.8117L15.9439 20.0912L15.7657 20.3746C15.6892 20.4966 15.5765 20.5984 15.4394 20.6694C15.3023 20.7404 15.1458 20.7781 14.9864 20.7784Z" fill="white"/>
<path fill-rule="evenodd" clip-rule="evenodd" d="M17.8142 43.883V46.4182C17.8177 46.5675 17.7764 46.7149 17.6945 46.8461C17.6126 46.9772 17.4929 47.0874 17.3472 47.1658C17.2015 47.2442 17.0348 47.2881 16.8636 47.2932C16.6925 47.2983 16.5228 47.2643 16.3713 47.1947L13.4631 45.8902C13.2965 45.818 13.1566 45.7062 13.0595 45.5678C12.9625 45.4293 12.9123 45.2698 12.9146 45.1076C12.9169 44.9454 12.9717 44.787 13.0727 44.6507C13.1737 44.5144 13.3167 44.4058 13.4854 44.3372L16.3935 43.1065C16.5444 43.0426 16.7114 43.0132 16.8788 43.0211C17.0462 43.029 17.2086 43.0738 17.3507 43.1515C17.4928 43.2291 17.6099 43.337 17.691 43.465C17.772 43.5929 17.8145 43.7368 17.8142 43.883ZM12.7194 49.9124H9.81124C9.64111 49.914 9.47341 49.8772 9.32435 49.8057C9.17529 49.7342 9.04992 49.6304 8.96035 49.5043C8.87079 49.3782 8.82006 49.2341 8.81309 49.0859C8.80611 48.9377 8.84312 48.7905 8.92053 48.6584L10.4169 46.1231C10.4977 45.977 10.6241 45.8537 10.7817 45.7674C10.9392 45.6811 11.1215 45.6353 11.3076 45.6353C11.4937 45.6353 11.676 45.6811 11.8336 45.7674C11.9911 45.8537 12.1176 45.977 12.1983 46.1231L13.6101 48.6584C13.6846 48.7895 13.7193 48.9352 13.7107 49.0814C13.7021 49.2275 13.6506 49.3693 13.5611 49.4931C13.4756 49.6215 13.3527 49.7278 13.2049 49.8015C13.0571 49.8751 12.8896 49.9134 12.7194 49.9124ZM4.61843 43.883V46.4182C4.61625 46.5671 4.65833 46.7139 4.74057 46.8443C4.82281 46.9748 4.94241 47.0844 5.08771 47.1626C5.23301 47.2408 5.39906 47.2849 5.56969 47.2905C5.74032 47.2961 5.90972 47.2631 6.06137 47.1947L8.96952 45.8902C9.13763 45.8191 9.27904 45.7077 9.37722 45.5691C9.47541 45.4305 9.5263 45.2704 9.52397 45.1075C9.52163 44.9447 9.46616 44.7857 9.36403 44.6493C9.2619 44.5129 9.11734 44.4046 8.94725 44.3372L6.0391 43.1065C5.88815 43.0437 5.72146 43.0152 5.5545 43.0235C5.38753 43.0319 5.2257 43.0769 5.084 43.1544C4.94231 43.2318 4.82534 43.3392 4.74395 43.4666C4.66256 43.5939 4.61938 43.7372 4.61843 43.883ZM12.6348 40.3887H9.71326C9.54314 40.3872 9.37543 40.4239 9.22637 40.4954C9.07731 40.5669 8.95194 40.6707 8.86237 40.7968C8.77281 40.9229 8.72209 41.067 8.71511 41.2152C8.70814 41.3634 8.74514 41.5107 8.82255 41.6428L10.3189 44.178C10.3997 44.3242 10.5261 44.4475 10.6837 44.5338C10.8413 44.6201 11.0236 44.6658 11.2096 44.6658C11.3957 44.6658 11.578 44.6201 11.7356 44.5338C11.8931 44.4475 12.0196 44.3242 12.1003 44.178L13.5121 41.6428C13.5873 41.5116 13.6219 41.3656 13.6125 41.2192C13.6032 41.0728 13.5501 40.9311 13.4587 40.808C13.3729 40.6816 13.2502 40.5773 13.1031 40.5057C12.9561 40.4341 12.7898 40.3977 12.6214 40.4004L12.6348 40.3887Z" fill="white"/>
</svg>
