<svg width="43" height="72" viewBox="0 0 43 72" fill="none" xmlns="http://www.w3.org/2000/svg">
<path fill-rule="evenodd" clip-rule="evenodd" d="M39.5508 29.8536V42.1417C39.5486 42.3055 39.4991 42.4662 39.407 42.6086C39.315 42.7511 39.1833 42.8707 39.0244 42.9564C38.8655 43.042 38.6844 43.0909 38.4982 43.0984C38.3119 43.106 38.1265 43.0719 37.9593 42.9994L23.9911 36.6736C23.8077 36.5938 23.6534 36.4705 23.5454 36.3177C23.4375 36.1649 23.3803 35.9887 23.3803 35.8088C23.3803 35.629 23.4375 35.4527 23.5454 35.3C23.6534 35.1472 23.8077 35.0239 23.9911 34.9441L37.9752 28.9818C38.1437 28.9089 38.3305 28.8748 38.518 28.883C38.7056 28.8912 38.8877 28.9413 39.047 29.0286C39.2064 29.1159 39.3377 29.2375 39.4287 29.3818C39.5196 29.5262 39.5672 29.6886 39.5668 29.8536" fill="#7D7AFF"/>
<mask id="mask0_734_5996" style="mask-type:luminance" maskUnits="userSpaceOnUse" x="23" y="28" width="17" height="16">
<path d="M39.5508 29.8545V42.1427C39.5486 42.3065 39.4991 42.4671 39.407 42.6096C39.315 42.7521 39.1833 42.8717 39.0244 42.9574C38.8655 43.043 38.6844 43.0919 38.4982 43.0994C38.3119 43.1069 38.1265 43.0729 37.9593 43.0004L23.9911 36.6745C23.8077 36.5947 23.6534 36.4715 23.5454 36.3187C23.4375 36.1659 23.3803 35.9896 23.3803 35.8098C23.3803 35.63 23.4375 35.4537 23.5454 35.3009C23.6534 35.1481 23.8077 35.0249 23.9911 34.9451L37.9752 28.9828C38.1437 28.9098 38.3305 28.8758 38.518 28.884C38.7056 28.8922 38.8877 28.9423 39.047 29.0296C39.2064 29.1169 39.3377 29.2384 39.4287 29.3828C39.5196 29.5272 39.5672 29.6895 39.5668 29.8545" fill="white"/>
</mask>
<g mask="url(#mask0_734_5996)">
<path d="M39.5508 28.833H23.3598V43.1583H39.5508V28.833Z" fill="#7D7AFF"/>
</g>
<path fill-rule="evenodd" clip-rule="evenodd" d="M0.712492 58.2195V44.3697C0.703054 43.5855 0.969672 42.818 1.47584 42.1721C1.98201 41.5262 2.703 41.0335 3.54009 40.7616L11.6303 38.0485C12.4325 37.7722 13.3104 37.7134 14.151 37.8795C14.9916 38.0457 15.7563 38.4293 16.3465 38.9809L40.511 60.802C41.3146 61.5075 41.9489 62.3476 42.3763 63.2725C42.8037 64.1973 43.0155 65.1882 42.9991 66.1863V70.8479C42.9991 72.5028 41.0044 71.9248 40.5534 71.8036L3.83186 61.8975C2.92772 61.6656 2.13419 61.1811 1.57135 60.5175C1.00852 59.8538 0.70702 59.0471 0.712492 58.2195Z" fill="#484AFD"/>
<mask id="mask1_734_5996" style="mask-type:luminance" maskUnits="userSpaceOnUse" x="0" y="37" width="43" height="36">
<path d="M0.712492 58.2205V44.3707C0.703054 43.5865 0.969672 42.8189 1.47584 42.173C1.98201 41.5272 2.703 41.0345 3.54009 40.7626L11.6303 38.0495C12.4325 37.7732 13.3104 37.7143 14.151 37.8805C14.9916 38.0467 15.7563 38.4303 16.3465 38.9818L40.511 60.803C41.3146 61.5085 41.9489 62.3486 42.3763 63.2735C42.8037 64.1983 43.0155 65.1891 42.9991 66.1872V70.8489C42.9991 72.5038 41.0044 71.9257 40.5534 71.8045L3.83186 61.8985C2.92772 61.6665 2.13419 61.1821 1.57135 60.5184C1.00852 59.8548 0.70702 59.0481 0.712492 58.2205Z" fill="white"/>
</mask>
<g mask="url(#mask1_734_5996)">
<path d="M42.9991 37.4854H0.712463V72.4897H42.9991V37.4854Z" fill="#7D7AFF"/>
</g>
<path fill-rule="evenodd" clip-rule="evenodd" d="M0.712533 13.7896V27.6207C0.702322 28.405 0.968632 29.1729 1.47491 29.819C1.98118 30.465 2.7026 30.9575 3.54013 31.2288L11.6303 33.9466C12.4326 34.2222 13.3104 34.2808 14.1508 34.1146C14.9912 33.9485 15.7559 33.5653 16.3465 33.0142L40.511 11.1977C41.3147 10.4922 41.949 9.65214 42.3764 8.72728C42.8037 7.80242 43.0155 6.81159 42.9991 5.81349V1.15184C42.9991 -0.503046 41.0044 0.0749996 40.5535 0.196203L3.83191 10.0976C2.92711 10.3319 2.134 10.8192 1.57294 11.4855C1.01189 12.1518 0.713532 12.9608 0.723143 13.7896" fill="#484AFD"/>
<mask id="mask2_734_5996" style="mask-type:luminance" maskUnits="userSpaceOnUse" x="0" y="0" width="43" height="35">
<path d="M0.712533 13.7896V27.6207C0.702322 28.405 0.968632 29.1729 1.47491 29.819C1.98118 30.465 2.7026 30.9575 3.54013 31.2288L11.6303 33.9466C12.4326 34.2222 13.3104 34.2808 14.1508 34.1146C14.9912 33.9485 15.7559 33.5653 16.3465 33.0142L40.511 11.1977C41.3147 10.4922 41.949 9.65214 42.3764 8.72728C42.8037 7.80242 43.0155 6.81159 42.9991 5.81349V1.15184C42.9991 -0.503046 41.0044 0.0749996 40.5535 0.196203L3.83191 10.0976C2.92711 10.3319 2.134 10.8192 1.57294 11.4855C1.01189 12.1518 0.713532 12.9608 0.723143 13.7896" fill="white"/>
</mask>
<g mask="url(#mask2_734_5996)">
<path d="M42.9991 -0.494141H0.712555V34.5102H42.9991V-0.494141Z" fill="#7D7AFF"/>
</g>
<path fill-rule="evenodd" clip-rule="evenodd" d="M12.4897 15.0859H12.0494H11.6144C11.4208 15.0908 11.2292 15.0501 11.0595 14.9682C10.8897 14.8862 10.748 14.7659 10.6489 14.6197L10.426 14.2887L10.1979 13.9624C10.0988 13.8174 10.0464 13.6514 10.0464 13.4823C10.0464 13.3131 10.0988 13.1471 10.1979 13.0021L10.4101 12.6665L10.6223 12.3309C10.7123 12.1804 10.8473 12.0544 11.0128 11.9665C11.1783 11.8786 11.3679 11.8321 11.5613 11.8321H12.0017H12.4367C12.6307 11.8246 12.8234 11.8642 12.9937 11.9464C13.1639 12.0286 13.3052 12.1503 13.4022 12.2982L13.6303 12.6292L13.8531 12.9602C13.9533 13.1057 14.0062 13.2726 14.0062 13.4427C14.0062 13.6127 13.9533 13.7796 13.8531 13.9251L13.6409 14.2654L13.4287 14.6011C13.3357 14.7503 13.1992 14.8751 13.0333 14.9627C12.8674 15.0503 12.678 15.0977 12.4844 15.0999M12.3465 24.5957L10.4897 24.6236L8.63294 24.6563C8.43886 24.6637 8.24619 24.6241 8.07593 24.5419C7.90567 24.4597 7.76437 24.338 7.66742 24.1901L6.70721 22.7916L5.7523 21.3931C5.6511 21.247 5.59756 21.0793 5.59756 20.9083C5.59756 20.7373 5.6511 20.5696 5.7523 20.4235L6.65416 18.997L7.54541 17.5519C7.63575 17.4008 7.77158 17.2743 7.9381 17.1864C8.10462 17.0984 8.29542 17.0523 8.4897 17.0531L10.3465 17.0205L12.2032 16.9925C12.3973 16.9851 12.59 17.0246 12.7603 17.1068C12.9305 17.189 13.0718 17.3107 13.1688 17.4587L14.1237 18.8572L15.0786 20.2557C15.1798 20.4017 15.2333 20.5695 15.2333 20.7405C15.2333 20.9115 15.1798 21.0792 15.0786 21.2253L14.1767 22.6518L13.2802 24.0782C13.1918 24.2281 13.0588 24.3542 12.8953 24.4428C12.7317 24.5315 12.5439 24.5795 12.3518 24.5817L12.3465 24.5957ZM21.816 18.9504L19.9592 18.9784L18.1025 19.0063C17.9084 19.0138 17.7157 18.9742 17.5455 18.892C17.3752 18.8098 17.2339 18.6881 17.1369 18.5402L16.182 17.1417L15.2271 15.7432C15.1259 15.5971 15.0724 15.4294 15.0724 15.2584C15.0724 15.0874 15.1259 14.9196 15.2271 14.7736L16.129 13.3471L17.0255 11.916C17.1186 11.7668 17.255 11.642 17.4209 11.5543C17.5868 11.4667 17.7763 11.4194 17.9698 11.4172L19.8266 11.3892L21.6834 11.3612C21.8775 11.3538 22.0701 11.3934 22.2404 11.4756C22.4106 11.5578 22.5519 11.6795 22.6489 11.8274L23.6038 13.2259L24.564 14.6244C24.6642 14.7699 24.7171 14.9368 24.7171 15.1069C24.7171 15.277 24.6642 15.4438 24.564 15.5894L23.6622 17.0205L22.7603 18.4469C22.6707 18.599 22.5352 18.7264 22.3686 18.8152C22.202 18.904 22.0108 18.9508 21.816 18.9504ZM18.564 23.7472H18.1237H17.6887C17.4946 23.7547 17.3019 23.7151 17.1317 23.6329C16.9614 23.5507 16.8201 23.429 16.7232 23.2811L16.5003 22.9501L16.2722 22.6191C16.172 22.4736 16.1191 22.3067 16.1191 22.1366C16.1191 21.9666 16.172 21.7997 16.2722 21.6542L16.4844 21.3139L16.6966 20.9782C16.7878 20.8318 16.9221 20.7095 17.0854 20.6243C17.2487 20.539 17.435 20.4938 17.625 20.4934H18.0653H18.5056C18.6988 20.4869 18.8904 20.5268 19.0596 20.609C19.2289 20.6911 19.3693 20.8124 19.4659 20.9596L19.694 21.2906L19.9168 21.6169C20.018 21.7629 20.0715 21.9307 20.0715 22.1017C20.0715 22.2727 20.018 22.4404 19.9168 22.5865L19.7046 22.9221L19.4924 23.2624C19.4012 23.4089 19.2669 23.5311 19.1036 23.6164C18.9403 23.7017 18.754 23.7469 18.564 23.7472Z" fill="white"/>
<path fill-rule="evenodd" clip-rule="evenodd" d="M21.9327 51.4885V54.5326C21.9369 54.7118 21.8878 54.8889 21.7902 55.0463C21.6926 55.2037 21.55 55.336 21.3764 55.4302C21.2028 55.5243 21.0043 55.5771 20.8004 55.5831C20.5965 55.5892 20.3944 55.5485 20.2139 55.4649L16.7497 53.8986C16.5512 53.8119 16.3846 53.6777 16.269 53.5115C16.1534 53.3452 16.0935 53.1537 16.0963 52.9589C16.0991 52.7641 16.1643 52.574 16.2846 52.4104C16.4049 52.2467 16.5753 52.1162 16.7762 52.0339L20.2404 50.5562C20.4201 50.4795 20.619 50.4442 20.8185 50.4537C21.0179 50.4631 21.2114 50.517 21.3806 50.6102C21.5499 50.7035 21.6893 50.833 21.7859 50.9866C21.8825 51.1403 21.933 51.313 21.9327 51.4885ZM15.8638 58.7281H12.3996C12.1969 58.7299 11.9971 58.6858 11.8196 58.5999C11.642 58.5141 11.4927 58.3895 11.386 58.238C11.2793 58.0866 11.2189 57.9136 11.2106 57.7357C11.2023 57.5577 11.2463 57.3809 11.3386 57.2223L13.1211 54.1783C13.2173 54.0028 13.3679 53.8548 13.5556 53.7511C13.7432 53.6475 13.9604 53.5926 14.1821 53.5926C14.4037 53.5926 14.6209 53.6475 14.8086 53.7511C14.9963 53.8548 15.1469 54.0028 15.2431 54.1783L16.9248 57.2223C17.0136 57.3798 17.0549 57.5547 17.0446 57.7302C17.0344 57.9057 16.9731 58.0759 16.8664 58.2246C16.7646 58.3787 16.6182 58.5064 16.4421 58.5948C16.2661 58.6832 16.0665 58.7292 15.8638 58.7281ZM6.21387 51.4885V54.5326C6.21128 54.7113 6.26141 54.8876 6.35937 55.0442C6.45734 55.2008 6.5998 55.3325 6.77288 55.4264C6.94596 55.5203 7.14376 55.5732 7.34702 55.5799C7.55028 55.5867 7.75206 55.547 7.93271 55.4649L11.3969 53.8986C11.5972 53.8132 11.7656 53.6795 11.8826 53.5131C11.9995 53.3467 12.0602 53.1544 12.0574 52.9589C12.0546 52.7633 11.9885 52.5724 11.8669 52.4087C11.7452 52.2449 11.573 52.1149 11.3704 52.0339L7.90618 50.5562C7.72637 50.4808 7.52781 50.4466 7.32892 50.4566C7.13003 50.4667 6.93726 50.5207 6.76847 50.6137C6.59968 50.7067 6.46035 50.8356 6.3634 50.9886C6.26644 51.1415 6.21501 51.3135 6.21387 51.4885ZM15.763 47.293H12.2829C12.0802 47.2912 11.8804 47.3353 11.7029 47.4211C11.5253 47.507 11.376 47.6316 11.2693 47.783C11.1626 47.9345 11.1022 48.1075 11.0939 48.2854C11.0855 48.4634 11.1296 48.6402 11.2218 48.7987L13.0043 51.8428C13.1005 52.0183 13.2512 52.1663 13.4388 52.2699C13.6265 52.3736 13.8437 52.4285 14.0654 52.4285C14.287 52.4285 14.5042 52.3736 14.6919 52.2699C14.8796 52.1663 15.0302 52.0183 15.1264 51.8428L16.8081 48.7987C16.8976 48.6413 16.9389 48.466 16.9277 48.2902C16.9165 48.1144 16.8533 47.9442 16.7444 47.7965C16.6422 47.6447 16.4961 47.5195 16.3209 47.4335C16.1457 47.3475 15.9477 47.3039 15.7471 47.307L15.763 47.293Z" fill="white"/>
</svg>
