<svg width="50" height="58" viewBox="0 0 50 58" fill="none" xmlns="http://www.w3.org/2000/svg">
<path fill-rule="evenodd" clip-rule="evenodd" d="M11.875 0.5625C12.3723 0.5625 12.8492 0.792968 13.2008 1.2032C13.5525 1.61344 13.75 2.16984 13.75 2.75V7.125H36.25V2.75C36.25 2.16984 36.4475 1.61344 36.7992 1.2032C37.1508 0.792968 37.6277 0.5625 38.125 0.5625C38.6223 0.5625 39.0992 0.792968 39.4508 1.2032C39.8025 1.61344 40 2.16984 40 2.75V7.125H41.875C43.8641 7.125 45.7718 8.04687 47.1783 9.68782C48.5848 11.3288 49.375 13.5544 49.375 15.875V48.6875C49.375 51.0081 48.5848 53.2337 47.1783 54.8747C45.7718 56.5156 43.8641 57.4375 41.875 57.4375H8.125C6.13588 57.4375 4.22822 56.5156 2.8217 54.8747C1.41518 53.2337 0.625 51.0081 0.625 48.6875V15.875C0.625 13.5544 1.41518 11.3288 2.8217 9.68782C4.22822 8.04687 6.13588 7.125 8.125 7.125H10V2.75C10 2.16984 10.1975 1.61344 10.5492 1.2032C10.9008 0.792968 11.3777 0.5625 11.875 0.5625ZM45.625 26.8125C45.625 25.6522 45.2299 24.5394 44.5266 23.7189C43.8234 22.8984 42.8696 22.4375 41.875 22.4375H8.125C7.13044 22.4375 6.17661 22.8984 5.47335 23.7189C4.77009 24.5394 4.375 25.6522 4.375 26.8125V48.6875C4.375 49.8478 4.77009 50.9606 5.47335 51.7811C6.17661 52.6016 7.13044 53.0625 8.125 53.0625H41.875C42.8696 53.0625 43.8234 52.6016 44.5266 51.7811C45.2299 50.9606 45.625 49.8478 45.625 48.6875V26.8125Z" fill="#7D7AFF"/>
</svg>
