<svg width="213" height="217" viewBox="0 0 213 217" fill="none" xmlns="http://www.w3.org/2000/svg">
<g clip-path="url(#clip0_4586_11287)">
<path d="M99.3416 96.8817C105.901 100.596 111.363 99.512 119.531 98.1778C127.7 96.8436 113.742 96.6393 106.421 95.3503C100.982 94.3867 89.1424 91.0878 99.3416 96.8817Z" fill="#FFDBFB"/>
<path d="M43.0289 77.7925C41.7403 75.7547 55.5255 81.3456 51.7404 81.2097C47.9553 81.0739 44.6186 80.3231 43.0289 77.7925Z" fill="#FFDBFB"/>
<mask id="mask0_4586_11287" style="mask-type:luminance" maskUnits="userSpaceOnUse" x="35" y="74" width="156" height="130">
<path d="M36.8354 81.4365C36.0286 97.8139 33.8798 147.423 37.8589 172.728C37.9971 173.568 38.316 174.369 38.7935 175.074C39.2711 175.779 39.896 176.372 40.625 176.813C47.0876 180.797 66.7037 192.121 96.5163 202.385C98.8123 203.162 101.228 203.524 103.651 203.454C113.21 203.201 139.1 202.14 155.868 198.04C156.771 197.829 157.61 197.403 158.314 196.799C159.017 196.195 159.564 195.43 159.909 194.569C164.246 183.436 181.45 138.428 190.377 101.578C190.771 100.115 190.588 98.5568 189.867 97.2245C189.146 95.8922 187.941 94.8871 186.501 94.4161C174.534 90.663 143.763 81.227 116.575 74.8764L115.544 74.7099C110.665 74.4712 73.8427 72.8346 42.181 75.7122C40.7405 75.8381 39.3975 76.4925 38.4106 77.5493C37.4237 78.6062 36.8626 79.9908 36.8354 81.4365Z" fill="white"/>
</mask>
<g mask="url(#mask0_4586_11287)">
<g opacity="0.75">
<path d="M36.8386 81.411C36.0215 97.7867 33.8847 147.388 37.8535 172.69C37.9959 173.533 38.3185 174.336 38.7991 175.043C39.2797 175.751 39.9071 176.346 40.6385 176.789C47.2836 180.887 67.8032 192.706 98.9536 203.134C99.5956 203.359 100.273 203.469 100.953 203.457C106.87 203.356 137.051 202.576 155.875 197.994C156.78 197.779 157.619 197.349 158.323 196.742C159.027 196.134 159.574 195.366 159.918 194.502C164.269 183.35 181.458 138.371 190.384 101.532C190.78 100.066 190.598 98.504 189.875 97.1688C189.152 95.8335 187.943 94.8273 186.499 94.358C174.523 90.5929 143.772 81.1602 116.588 74.8526L115.557 74.686C110.656 74.4544 73.8562 72.8108 42.2048 75.69C40.7612 75.811 39.4136 76.4629 38.4225 77.5195C37.4314 78.5761 36.8671 79.9626 36.8386 81.411Z" fill="url(#paint0_linear_4586_11287)"/>
<mask id="mask1_4586_11287" style="mask-type:luminance" maskUnits="userSpaceOnUse" x="35" y="74" width="156" height="130">
<path d="M36.8386 81.4013C36.0215 97.7769 33.8847 147.378 37.8535 172.681C37.9959 173.524 38.3185 174.326 38.7991 175.033C39.2797 175.741 39.9071 176.336 40.6385 176.779C47.2836 180.878 67.8032 192.696 98.9536 203.124C99.5956 203.35 100.273 203.459 100.953 203.447C106.87 203.346 137.051 202.566 155.875 197.984C156.78 197.769 157.619 197.34 158.323 196.732C159.027 196.124 159.574 195.356 159.918 194.492C164.269 183.341 181.458 138.361 190.384 101.522C190.78 100.056 190.598 98.4942 189.875 97.159C189.152 95.8238 187.943 94.8175 186.499 94.3482C174.523 90.5832 143.772 81.1505 116.588 74.8428L115.557 74.6762C110.656 74.4446 73.8562 72.801 42.2048 75.6802C40.7612 75.8013 39.4136 76.4531 38.4225 77.5097C37.4314 78.5664 36.8671 79.9528 36.8386 81.4013Z" fill="white"/>
</mask>
<g mask="url(#mask1_4586_11287)">
<g style="mix-blend-mode:screen" opacity="0.51">
<path d="M101.246 187.635C100.408 187.498 99.5867 187.273 98.7955 186.964L28.5828 159.511L32.3661 149.843L102.582 177.276C102.783 177.351 102.997 177.386 103.211 177.378L182.432 175.133C182.804 175.122 183.16 174.983 183.44 174.739C183.721 174.496 183.908 174.162 183.97 173.796C184.01 173.565 183.997 173.329 183.932 173.104C183.868 172.88 183.754 172.673 183.598 172.498C183.45 172.317 183.261 172.172 183.048 172.075C182.834 171.978 182.601 171.932 182.367 171.94L104.088 172.803C102.66 172.831 101.239 172.602 99.8931 172.125L25.9449 145.538C23.1216 144.538 20.7772 142.514 19.3773 139.866C17.9774 137.219 17.6244 134.141 18.3882 131.245L21.4135 119.594C21.8313 118.007 22.5691 116.523 23.5816 115.232C24.594 113.94 25.8598 112.87 27.3012 112.086C28.7461 111.304 30.3358 110.827 31.9723 110.684C33.6088 110.541 35.2572 110.735 36.8156 111.255L106.443 134.542C106.61 134.596 106.784 134.624 106.958 134.626L192.555 134.289C192.964 134.287 193.357 134.129 193.652 133.846C193.948 133.563 194.124 133.178 194.144 132.769L194.276 129.988C194.286 129.769 194.251 129.55 194.173 129.345C194.095 129.14 193.976 128.952 193.823 128.795C193.67 128.638 193.487 128.513 193.284 128.429C193.081 128.345 192.863 128.304 192.644 128.307L110.109 130.048C108.707 130.07 107.311 129.844 105.987 129.382L23.9652 101.712L27.2894 91.8746L109.349 119.572C109.525 119.632 109.71 119.662 109.895 119.661L192.43 117.92C194.072 117.886 195.703 118.19 197.223 118.814C198.742 119.437 200.117 120.365 201.263 121.542C202.408 122.719 203.3 124.119 203.882 125.654C204.464 127.19 204.724 128.829 204.646 130.469L204.524 133.252C204.384 136.317 203.073 139.212 200.862 141.339C198.651 143.467 195.709 144.665 192.64 144.688L107.054 145.026C105.744 145.036 104.44 144.825 103.2 144.403L33.5756 121.094C33.3679 121.027 33.1486 121.002 32.931 121.021C32.7134 121.041 32.502 121.104 32.3095 121.207C32.1165 121.312 31.947 121.455 31.8118 121.627C31.6765 121.8 31.5783 121.999 31.5232 122.212L28.4465 133.855C28.3431 134.242 28.3901 134.654 28.5781 135.008C28.7661 135.362 29.0811 135.632 29.4599 135.763L103.422 162.332C103.601 162.393 103.789 162.423 103.978 162.422L182.199 161.591C185.377 161.529 188.45 162.731 190.742 164.934C193.033 167.137 194.356 170.16 194.419 173.338C194.481 176.516 193.279 179.588 191.076 181.88C188.873 184.172 185.85 185.494 182.672 185.557L103.499 187.767C102.745 187.796 101.991 187.752 101.246 187.635Z" fill="#B500E0"/>
</g>
<g style="mix-blend-mode:screen">
<path d="M115.459 214.665L115.729 212.996C122.257 168.482 131.778 101.071 131.288 97.7561C130.798 94.4409 123.794 88.6983 120.695 86.4103C107.118 89.2814 92.5394 93.3125 91.3386 95.1806C89.7616 98.3944 82.5919 163.563 78.1726 206.545L78.0432 207.804L67.747 204.638L67.8184 203.803C70.0657 177.729 77.6436 92.2375 80.3889 89.6461C82.8865 87.2791 101.85 82.8781 108.873 81.3058L107.617 80.0453C85.5499 80.9415 61.8394 83.042 60.0352 85.0452C57.9947 88.5754 54.4041 154.238 52.4988 197.499L52.4302 198.905L42.5358 195.413L42.5646 194.646C42.6096 194.367 43.5746 165.823 44.9119 137.592C47.7027 79.6257 48.9542 79.3415 50.2007 79.0882C53.0056 78.4841 91.5449 72.9004 93.1794 72.6676L93.4813 74.7256C93.0919 74.779 56.0671 80.1527 51.0376 81.0424C49.0576 86.7502 46.189 150.89 44.672 193.908L50.5035 195.908C51.4329 174.781 55.4923 87.1769 58.4511 83.6577C61.5392 79.9267 100.266 78.2227 108.024 77.922L108.492 77.9025L112.965 82.5489L111.146 82.9422C100.734 85.204 83.6265 89.4397 81.7951 91.153C79.9183 94.4558 73.6874 159.638 69.9245 203.139L76.2002 205.073C78.3639 184.357 87.4347 97.4155 89.5945 94.0633C91.887 90.4787 115.927 85.2907 120.721 84.2888L121.181 84.1939L121.548 84.4753C122.672 85.3021 132.541 92.6818 133.308 97.427C134.002 101.769 120.517 194.427 118.024 211.622L123.248 209.854C130.328 171.87 143.506 99.8895 143.486 95.0428C143.472 90.4827 132.309 84.9562 128.001 83.213L128.675 81.2068C133.03 82.3971 171.294 92.9067 174.932 95.5885C175.971 96.3592 177.771 97.6547 163.973 157.183C157.249 186.289 149.986 215.455 149.917 215.75L147.885 215.242C159.016 170.511 174.932 102.589 173.517 97.147C170.833 95.4971 153.339 90.2797 137.956 85.9427C141.867 88.4362 145.494 91.645 145.547 94.9846C145.588 101.273 125.998 206.322 125.158 210.797L125.061 211.395L115.459 214.665Z" fill="#7483FB"/>
</g>
</g>
</g>
<path style="mix-blend-mode:multiply" opacity="0.33" d="M191.658 96.0746L111.496 97.9873L37.1637 76.2656C37.1637 76.2656 32.8321 146.186 38.2977 175.379C38.2977 175.379 60.9504 190.62 99.9205 203.57C99.9205 203.57 112.219 203.443 126.568 202.272C137.639 201.365 149.972 199.847 158.834 197.293C158.834 197.293 181.959 139.271 191.643 96.1038L191.658 96.0746Z" fill="url(#paint1_linear_4586_11287)"/>
<g style="mix-blend-mode:multiply" opacity="0.48">
<path d="M191.659 96.0739L126.01 97.6356C121.953 97.7631 118.077 99.3473 115.093 102.098C112.108 104.849 110.214 108.583 109.756 112.616C107.221 134.129 102.67 173.864 99.926 203.539C99.926 203.539 112.224 203.411 126.574 202.241C137.644 201.333 149.977 199.816 158.839 197.261C158.839 197.261 181.966 139.23 191.649 96.0722L191.659 96.0739Z" fill="#970060"/>
</g>
<g style="mix-blend-mode:multiply" opacity="0.29">
<path d="M186.49 94.422C182.827 93.2695 177.429 91.5934 170.843 89.6195C177.347 91.5801 182.743 93.2665 186.365 94.4123C187.803 94.8723 189.001 95.8812 189.7 97.2198C190.398 98.5584 190.54 100.118 190.095 101.561C180.451 137.809 162.75 181.373 158.33 192.037C157.973 192.869 157.425 193.605 156.731 194.186C156.036 194.766 155.214 195.175 154.332 195.378C136.007 199.818 106.59 200.711 100.826 200.848C100.164 200.846 99.5067 200.74 98.8781 200.533C68.4257 190.694 48.2383 179.436 41.7213 175.528C41.0019 175.107 40.3822 174.535 39.9049 173.852C39.4275 173.168 39.1037 172.39 38.9557 171.57C34.7005 146.993 36.3496 98.0533 37.0481 81.6267C37.0703 80.1943 37.6186 78.8201 38.5885 77.7658C39.5585 76.7115 40.8823 76.0509 42.3079 75.9096C74.093 72.9885 111.005 74.5973 115.906 74.8289L116.668 74.9522L116.576 74.9372L115.545 74.7706C110.644 74.539 73.8437 72.8954 42.1923 75.7746C40.7608 75.8967 39.4241 76.5408 38.4365 77.5842C37.4489 78.6277 36.8793 79.9977 36.8361 81.4338C36.0189 97.8095 33.8821 147.41 37.8509 172.713C37.9934 173.556 38.3159 174.359 38.7965 175.066C39.2772 175.773 39.9046 176.369 40.636 176.812C47.281 180.91 67.8007 192.729 98.9511 203.157C99.5931 203.382 100.27 203.491 100.95 203.48C106.868 203.379 137.048 202.599 155.872 198.017C156.777 197.802 157.617 197.372 158.321 196.764C159.024 196.157 159.572 195.388 159.916 194.525C164.267 183.373 181.456 138.394 190.381 101.555C190.765 100.094 190.576 98.5412 189.853 97.2152C189.129 95.8891 187.926 94.8899 186.49 94.422Z" fill="#724C8D"/>
</g>
<path style="mix-blend-mode:color-dodge" opacity="0.11" d="M103.683 166.421C103.683 166.421 109.257 129.251 145.161 129.83C181.333 130.388 166.538 171.355 166.538 171.355L169.18 169.731C176.574 149.173 186.271 120.188 191.665 96.0394L111.5 97.9728L37.1667 76.2511C37.1667 76.2511 35.8085 98.1336 35.5657 122.406C37.7687 85.94 106.745 114.241 103.683 166.421Z" fill="url(#paint2_linear_4586_11287)"/>
<path style="mix-blend-mode:color-dodge" opacity="0.69" d="M102.011 100.871C106.452 109.837 105.837 146.751 105.837 146.751C105.837 146.751 109.671 107.978 115.667 102.941C120.156 99.1822 124.746 97.6716 138.484 97.3433L186.733 96.1949C186.733 96.1949 120.421 96.2958 112.768 96.2116C105.115 96.1273 49.674 79.8066 47.1406 77.684C44.6072 75.5614 60.3289 74.602 61.5025 74.5378C55.0419 74.7944 48.4962 75.1853 42.1522 75.7674C40.727 75.8992 39.3994 76.5483 38.4201 77.5922C37.4409 78.6361 36.8778 80.0025 36.8373 81.4332C36.5637 86.5285 36.1776 94.9368 35.8762 104.85C35.8895 104.767 38.0986 84.5558 42.6203 81.966C46.8049 79.565 97.6635 92.11 102.011 100.871Z" fill="url(#paint3_linear_4586_11287)"/>
</g>
<g style="mix-blend-mode:multiply" opacity="0.67">
<path d="M55.6095 136.564C47.0181 122.655 38.7617 93.4551 38.7617 93.4551C38.7617 93.4551 52.004 132.111 60.6442 140.223L60.9114 140.467C61.5402 141.115 62.3757 141.523 63.2735 141.621C71.2777 141.497 103.192 112.519 103.192 112.519C103.192 112.519 84.7971 131.066 71.8718 139.457L86.1481 167.79L92.2645 179.935C95.2371 185.164 98.6229 190.322 101.129 192.419L100.627 196.568L69.6321 141.21L67.7009 141.839C66.2634 142.662 64.6791 143.196 63.0369 143.412C61.1495 143.509 59.0811 141.715 56.9241 138.638L56.7552 138.505L37.6702 167.865L37.3278 165.599C37.3278 165.599 44.6915 155.633 48.2908 149.394L55.6095 136.564Z" fill="#724C8D"/>
</g>
<g style="mix-blend-mode:color-dodge" opacity="0.23">
<path d="M63.2756 141.623C62.3778 141.526 61.5423 141.117 60.9135 140.469L60.6463 140.225C55.9633 135.83 49.827 122.106 45.2437 110.748C45.5649 111.509 57.544 139.332 63.012 139.656C68.4799 139.979 94.6511 119.971 94.8274 119.862C84.8513 128.391 68.6078 141.544 63.2756 141.623Z" fill="#7483FB"/>
</g>
<g style="mix-blend-mode:color-dodge" opacity="0.23">
<path d="M69.6348 141.211L91.6729 180.538C91.6729 180.538 80.5155 164.511 75.9775 157.845C71.4395 151.179 69.6348 141.211 69.6348 141.211Z" fill="#7483FB"/>
</g>
<g style="mix-blend-mode:color-dodge" opacity="0.23">
<path d="M56.4957 138.873C56.4957 138.873 52.7944 147.053 49.0764 153.241C46.6888 157.139 43.7492 160.672 40.3491 163.727L56.4957 138.873Z" fill="#7483FB"/>
</g>
<path style="mix-blend-mode:multiply" d="M64.9045 74.7382C59.0118 74.949 66.6686 75.7318 60.3677 79.8424C54.0668 83.953 66.7381 83.9388 69.9567 82.9996C73.1752 82.0604 79.5524 83.6939 79.5524 83.6939C79.5524 83.6939 73.501 91.4297 70.3695 94.7095C67.2379 97.9893 79.5918 95.555 88.9196 99.3468C98.2474 103.139 90.6182 92.959 93.6105 88.578C96.6028 84.1971 116.778 90.6199 121.423 92.7029C126.067 94.786 135.355 103.732 137.416 107.597C139.477 111.463 143.777 106.648 141.881 119.232C139.984 131.817 131.327 173.67 128.926 182.704C126.524 191.739 123.088 202.53 123.088 202.53L127.2 202.212L151.578 112.361L151.422 87.1561L164.331 87.6985L160.45 86.5213L153.704 84.6168C150.801 83.7986 98.5769 69.9542 98.5769 69.9542L64.9045 74.7382Z" fill="url(#paint4_linear_4586_11287)"/>
<path d="M169.138 96.6518C168.908 95.4618 160.252 91.3028 152.228 87.69C151.192 86.9473 150.083 86.3111 148.918 85.7909L160.438 86.4895L162.471 84.2483C159.408 82.3986 156.145 80.9026 152.744 79.7891C168.078 56.8871 148.253 50.3202 148.253 50.3202C148.253 50.3202 156.924 37.0433 142.912 28.9941C128.9 20.9449 120.46 30.8962 120.46 30.8962C120.46 30.8962 118.398 22.1979 103.408 25.6972C88.4176 29.1966 94.7109 44.5007 94.7109 44.5007C94.7109 44.5007 81.4797 41.3048 76.0615 50.7504C70.6432 60.196 78.1738 67.7793 78.1738 67.7793C64.1021 60.8202 54.9661 67.4231 54.9661 67.4231L54.4664 70.5148C54.4664 70.5148 66.3148 69.638 65.3375 73.3294C64.5684 75.9261 63.5147 78.4299 62.1956 80.7952L64.9826 83.1809C73.6701 76.4738 80.6268 77.9895 80.6268 77.9895C71.0494 83.1356 69.0145 94.0904 69.0145 94.0904L71.1633 95.1251L80.3628 92.3818C80.3628 92.3818 83.7687 93.2284 91.4499 98.6365C91.4499 98.6365 91.0077 88.286 95.6528 84.6057C95.6528 84.6057 102.509 87.9875 109.576 86.856L109.648 86.8677L113.338 87.464C131.484 89.2971 137.076 105.672 137.076 105.672C137.076 105.672 141.943 99.5743 146.226 98.1305C149.485 101.914 126.593 202.2 126.593 202.2L123.821 202.407C124.036 202.855 124.359 203.242 124.76 203.536C125.16 203.829 125.627 204.019 126.119 204.09C132.761 203.704 139.379 202.98 145.948 201.923C148.475 201.274 161.532 138.22 164.366 126.178C167.201 114.137 169.59 98.8927 169.138 96.6518Z" fill="url(#paint5_linear_4586_11287)"/>
<path style="mix-blend-mode:multiply" d="M79.6711 74.6051C73.667 74.0703 67.6813 75.8133 62.9029 79.488C62.9029 79.488 67.8892 71.5377 65.0324 69.257C61.3901 66.4053 54.9692 67.398 54.9692 67.398L54.4695 70.4897C54.4695 70.4897 66.3179 69.6128 65.3406 73.3042C64.5715 75.901 63.5178 78.4048 62.1987 80.7701L64.9856 83.1558C73.6732 76.4487 80.6299 77.9644 80.6299 77.9644C82.9496 77.4827 89.9693 75.4024 79.6711 74.6051Z" fill="url(#paint6_linear_4586_11287)"/>
<path style="mix-blend-mode:multiply" d="M160.107 100.946C160.107 100.946 152.465 96.4749 147.189 96.4682C146.343 96.4742 145.502 96.5944 144.688 96.8255C141.955 97.7155 139.489 99.2766 137.514 101.366C137.514 101.366 131.465 87.825 119.852 86.3289C119.852 86.3289 121.917 84.738 122.114 83.5219C122.114 83.5219 136.381 90.7769 148.889 85.8824L160.409 86.581L162.442 84.3398C162.442 84.3398 157.212 80.9776 148.722 84.6921C148.722 84.6921 157.737 75.1722 156.68 70.5915C156.68 70.5915 154.557 84.5141 133.069 85.2925C133.069 85.2925 141.328 84.3114 137.259 72.0634C133.189 59.8153 126.045 52.9183 119.854 60.9278C119.854 60.9278 124.22 49.0279 148.207 50.3243C148.207 50.3243 133.671 46.3041 122.897 54.8629C122.897 54.8629 130.414 45.7777 128.241 38.4787C126.069 31.1797 117.118 27.671 113.251 49.1796C113.251 42.3989 115.817 35.8695 120.434 30.9036C120.434 30.9036 112.834 35.7242 112.37 47.3664C112.37 47.3664 110.715 32.9388 101.719 32.003C92.7223 31.0672 93.4047 39.6693 94.6848 44.5081C95.9649 49.3469 100.84 57.5268 100.84 57.5268C97.5567 57.3599 94.305 58.2375 91.5516 60.0336C91.5516 60.0336 89.3603 52.7845 82.2015 51.3419C75.5306 50.0206 74.2926 56.1761 74.1543 57.0315C74.0702 60.9986 75.5063 64.8476 78.1684 67.7901C79.1008 68.2369 74.4526 76.5168 86.4896 74.211C86.7554 77.6697 88.777 81.1267 94.549 83.2334C92.7148 86.8568 91.3412 90.6955 90.4603 94.6599C90.4603 94.6599 83.6161 91.5974 81.0977 90.429C78.5793 89.2605 69.0486 94.1181 69.0486 94.1181L71.1974 95.1528L80.3969 92.4096C81.9832 92.1478 91.484 98.6642 91.484 98.6642C91.484 98.6642 90.9047 88.704 95.6885 84.6232C95.6885 84.6232 104.28 87.9998 109.612 86.8735L113.374 87.4814C131.479 89.3078 137.07 105.683 137.07 105.683C139.052 103.28 141.355 101.161 143.915 99.3866C144.281 99.1496 144.665 98.9367 145.076 98.7493L145.137 98.7593C145.505 98.5739 145.884 98.4126 146.273 98.2766C149.532 102.06 126.64 202.346 126.64 202.346L123.868 202.553C124.083 203.001 124.406 203.388 124.806 203.682C125.207 203.975 125.674 204.166 126.165 204.236C126.876 204.25 127.588 204.22 128.295 204.147C129.607 204.073 130.336 201.135 133.138 186.285C135.94 171.436 146.006 120.801 148.336 110.57C150.016 103.186 149.466 99.5224 149.036 97.9935C152.963 98.6281 156.735 102.706 156.735 102.706L160.107 100.946ZM86.5073 73.9706C84.225 73.697 78.2509 72.7103 79.2738 69.9145C79.2738 69.9145 83.4943 54.9243 90.3246 62.8492C90.3246 62.8492 86.2138 68.3924 86.5073 73.9706ZM110.119 64.6313C101.786 65.2197 97.4997 86.1109 109.19 86.2765C109.19 86.2765 87.3442 86.0664 87.8022 72.0437C88.1258 62.4515 98.3818 53.957 109.467 59.8941C120.553 65.8312 119.245 74.2492 119.245 74.2492C119.245 74.2492 118.45 64.0532 110.119 64.6313Z" fill="url(#paint7_linear_4586_11287)"/>
<g style="mix-blend-mode:multiply">
<path d="M101.969 57.9345C101.969 57.9345 107.426 58.1925 110.778 60.6166C110.778 60.6166 114.277 47.3394 106.63 39.6949C98.9822 32.0503 95.6381 34.6824 96.2454 42.31C96.8527 49.9377 101.969 57.9345 101.969 57.9345Z" fill="#AA2EC5"/>
</g>
<g style="mix-blend-mode:multiply">
<path d="M111.978 61.4397C111.978 61.4397 113.888 45.9597 118.116 39.9491C122.345 33.9385 125.82 36.3826 124.879 44.2993C123.938 52.216 115.48 64.4381 115.48 64.4381L111.978 61.4397Z" fill="#AA2EC5"/>
</g>
<g style="mix-blend-mode:multiply">
<path d="M116.823 66.0681C116.823 66.0681 121.176 58.7662 126.12 59.5864C131.063 60.4065 136.034 75.7823 134.787 80.8155C133.539 85.8486 126.001 83.6785 126.001 83.6785C126.001 83.6785 132.773 85.2911 132.965 80.4365C133.158 75.5819 127.65 70.9904 119.87 75.4859C119.456 72.1829 118.422 68.9877 116.823 66.0681Z" fill="#AA2EC5"/>
</g>
<g style="mix-blend-mode:multiply">
<path d="M79.7799 68.3756C79.7799 68.3756 83.4179 55.6812 90.3286 62.8471C90.1881 60.9474 89.5098 59.127 88.3729 57.5987C87.236 56.0703 85.6875 54.8972 83.9084 54.2165C77.6456 51.7449 75.7547 57.4249 76.1705 60.6752C76.5864 63.9255 79.7799 68.3756 79.7799 68.3756Z" fill="#AA2EC5"/>
</g>
<g style="mix-blend-mode:multiply">
<path d="M118.371 79.2569C118.371 79.2569 115.58 85.8594 109.681 84.8003C103.782 83.7411 103.115 73.0794 106.491 68.4855C109.867 63.8915 118.995 67.3445 118.371 79.2569Z" fill="#AA2EC5"/>
</g>
<g style="mix-blend-mode:multiply">
<path d="M110.009 44.968C109.254 42.9983 108.105 41.2039 106.631 39.695C98.9728 32.0488 95.639 34.6825 96.2463 42.3102C96.7439 46.4999 97.9966 50.5648 99.9438 54.3077C96.1442 44.5779 107.41 39.6517 110.009 44.968Z" fill="#AA2EC5"/>
</g>
<g style="mix-blend-mode:multiply">
<path d="M122.367 52.3319C123.6 49.7864 124.455 47.0745 124.905 44.282C125.846 36.3653 122.35 33.9179 118.142 39.9319C113.934 45.9458 111.98 61.4398 111.98 61.4398C111.98 61.4398 114.626 51.6096 119.675 48.3118C124.723 45.0141 122.412 52.1806 122.367 52.3319Z" fill="#AA2EC5"/>
</g>
<g style="mix-blend-mode:multiply">
<path d="M128.471 67.3478C131.675 67.157 133.479 71.1712 134.42 74.3159C133.119 68.0355 129.61 60.1716 126.12 59.5863C121.173 58.7868 116.823 66.0681 116.823 66.0681C118.422 68.9877 119.456 72.1829 119.87 75.4858C119.87 75.4858 123.269 67.6703 128.471 67.3478Z" fill="#AA2EC5"/>
</g>
<g style="mix-blend-mode:multiply">
<path d="M90.3271 62.8461C90.1867 60.9464 89.5084 59.126 88.3715 57.5977C87.2346 56.0693 85.6861 54.8962 83.907 54.2155C78.6983 52.1575 76.5208 55.7501 76.1723 58.8875C78.6896 56.3333 88.2936 59.3978 90.3271 62.8461Z" fill="#AA2EC5"/>
</g>
<g style="mix-blend-mode:multiply">
<path d="M106.493 68.486C103.673 72.2602 103.683 80.2461 107.116 83.4764C102.637 78.0149 114.248 69.1893 118.374 78.6653C118.664 67.2488 109.833 63.9815 106.493 68.486Z" fill="#AA2EC5"/>
</g>
<path style="mix-blend-mode:multiply" opacity="0.51" d="M86.733 70.9461C89.2777 62.4637 96.021 64.9072 104.089 76.7546C112.157 88.6019 114.473 87.9504 103.261 86.72C92.0494 85.4896 84.2304 79.2978 86.733 70.9461Z" fill="url(#paint8_linear_4586_11287)"/>
<path style="mix-blend-mode:multiply" opacity="0.51" d="M133.324 70.1747C134.14 57.9971 157.167 52.7934 158.251 61.5978C159.334 70.4022 153.66 84.7662 138.43 85.4349C123.199 86.1036 134.975 83.0577 134.894 77.281C134.812 71.5044 133.076 73.8677 133.324 70.1747Z" fill="url(#paint9_linear_4586_11287)"/>
<path style="mix-blend-mode:multiply" opacity="0.51" d="M126.252 41.9655C128.777 30.7938 147.772 32.0873 150.469 38.0433C153.165 43.9993 148.202 50.3671 148.202 50.3671C148.202 50.3671 131.324 48.2737 122.823 56.9038C114.321 65.5339 124.609 49.2507 126.252 41.9655Z" fill="url(#paint10_linear_4586_11287)"/>
<path style="mix-blend-mode:multiply" opacity="0.51" d="M105.353 38.5099C102.385 33.4511 114.587 25.2817 117.549 26.9766C120.511 28.6714 120.477 30.9079 120.477 30.9079C117.096 33.9909 114.753 38.0452 113.769 42.5138C112.478 49.5175 112.818 57.5566 111.405 50.592C109.993 43.6274 107.388 42.0114 105.353 38.5099Z" fill="url(#paint11_linear_4586_11287)"/>
<path style="mix-blend-mode:multiply" opacity="0.51" d="M83.9087 54.2133C80.19 52.5548 90.5333 42.2766 94.9631 45.4248C94.9631 45.4248 99.0171 56.983 100.846 57.5112C102.675 58.0394 97.3475 57.7601 91.7981 62.5209C86.2487 67.2817 95.7587 59.6078 83.9087 54.2133Z" fill="url(#paint12_linear_4586_11287)"/>
<path style="mix-blend-mode:color-dodge" opacity="0.6" d="M98.3799 32.1723C93.7411 32.9348 112.658 25.2267 106.465 25.1352C106.465 25.1352 113.06 24.2447 117.258 26.7951C117.258 26.7951 115.499 25.7705 110.447 29.2897C105.394 32.8089 106.522 33.9429 105.4 33.2963C104.278 32.6496 102.962 31.4323 98.3799 32.1723Z" fill="url(#paint13_linear_4586_11287)"/>
<path style="mix-blend-mode:color-dodge" opacity="0.6" d="M121.649 32.946C121.649 32.946 125.505 31.6656 128.116 38.0837C128.116 38.0837 131.458 32.9768 139.421 33.5658C147.384 34.1548 150.297 37.6606 150.297 37.6606C150.297 37.6606 149.571 32.7951 143.208 29.1758C136.845 25.5565 132.385 25.6076 130.401 25.9744C128.417 26.3411 134.336 25.9018 137.225 27.8493C140.115 29.7969 139.865 32.8445 131.858 31.6138C123.851 30.3831 121.649 32.946 121.649 32.946Z" fill="url(#paint14_linear_4586_11287)"/>
<path style="mix-blend-mode:color-dodge" opacity="0.6" d="M77.7358 51.7552C77.7358 51.7552 84.4095 47.3665 85.2086 45.8247C86.0076 44.283 84.4373 44.6426 84.4373 44.6426C84.4373 44.6426 91.8329 42.9191 94.5075 45.1492C94.5075 45.1492 91.876 44.3537 88.4203 46.6294C86.4087 47.9177 84.7131 49.6424 83.4592 51.6756C83.4592 51.6756 81.9756 50.1245 77.7358 51.7552Z" fill="url(#paint15_linear_4586_11287)"/>
<path style="mix-blend-mode:color-dodge" opacity="0.6" d="M106.632 65.863C106.632 65.863 97.581 65.6586 96.5049 63.5494C95.4287 61.4403 102.533 58.443 104.09 58.4302C105.646 58.4175 94.1563 54.3291 88.8756 66.98C88.8756 66.98 91.4734 64.386 95.7193 67.4939C98.2533 69.3366 100.393 71.6672 102.014 74.3487C102.088 72.6763 102.543 71.0429 103.343 69.5725C104.143 68.1021 105.268 66.8335 106.632 65.863Z" fill="url(#paint16_linear_4586_11287)"/>
<path style="mix-blend-mode:color-dodge" opacity="0.6" d="M79.2774 69.8993C79.1407 70.3531 84.069 65.64 86.3438 65.4366C88.6186 65.2332 88.8735 65.4224 88.8735 65.4224L90.2922 63.1877C89.8857 62.4394 89.2891 61.8116 88.5625 61.3674C87.836 60.9232 87.0052 60.6784 86.1538 60.6576C83.3222 60.7076 80.8111 64.8596 79.2774 69.8993Z" fill="url(#paint17_linear_4586_11287)"/>
<path style="mix-blend-mode:color-dodge" opacity="0.6" d="M128.281 58.193C128.281 58.193 139.768 57.0673 144.702 55.9824C149.636 54.8975 145.646 50.1389 145.646 50.1389L147.736 50.2969C149.976 51.0648 152.027 52.3024 153.751 53.9269C155.474 55.5514 156.831 57.5253 157.73 59.7165C157.73 59.7165 155.318 55.012 146.239 57.8593C137.16 60.7066 134.669 65.7819 134.669 65.7819C134.221 64.1282 133.417 62.5922 132.314 61.2814C131.21 59.9706 129.834 58.9165 128.281 58.193Z" fill="url(#paint18_linear_4586_11287)"/>
<path style="mix-blend-mode:color-dodge" opacity="0.6" d="M81.0971 90.4389C83.6155 91.6074 90.4596 94.6699 90.4596 94.6699C91.0346 92.0536 91.8446 89.4946 92.8798 87.024C92.8798 87.024 90.0898 88.9102 85.5521 87.5423C81.0143 86.1744 78.4083 79.3975 82.758 77.4144C81.9749 77.6792 81.1676 77.8977 80.6173 78.0308C71.04 83.177 69.0051 94.1317 69.0051 94.1317C69.0051 94.1317 78.5873 89.2825 81.0971 90.4389Z" fill="url(#paint19_linear_4586_11287)"/>
<path style="mix-blend-mode:color-dodge" opacity="0.6" d="M54.9642 67.4266C54.9642 67.4266 61.3851 66.4339 65.0274 69.2856C67.8892 71.5354 62.8979 79.5166 62.8979 79.5166C67.6763 75.8419 73.662 74.0989 79.6661 74.6337C79.6661 74.6337 71.6712 73.8492 68.3339 68.7837C65.5565 64.5066 70.1454 65.1002 71.7155 65.3963C61.3933 62.8502 54.9642 67.4266 54.9642 67.4266Z" fill="url(#paint20_linear_4586_11287)"/>
<path style="mix-blend-mode:color-dodge" opacity="0.6" d="M128.733 90.1584C132.432 93.1968 135.425 97.0041 137.505 101.316C137.505 101.316 141.903 96.4114 147.179 96.418C152.455 96.4247 160.111 100.94 160.111 100.94C159.68 93.4681 154.515 89.1118 151.368 87.1226C159.623 93.8185 134.913 94.2557 128.733 90.1584Z" fill="url(#paint21_linear_4586_11287)"/>
<path style="mix-blend-mode:multiply" opacity="0.51" d="M71.917 79.0478C69.0287 79.7759 66.7213 74.75 76.4965 74.5955C86.2717 74.4411 87.9396 75.7682 84.18 76.9795C83.0364 77.4195 81.8592 77.7668 80.6599 78.0179C80.6599 78.0179 78.0246 77.5074 71.917 79.0478Z" fill="url(#paint22_linear_4586_11287)"/>
<path style="mix-blend-mode:multiply" d="M110.264 85.9178C110.264 85.9178 119.426 84.9769 120.107 79.9792C120.787 74.9814 123.188 81.9154 122.599 82.8777C122.01 83.84 141.356 88.3944 148.309 85.2881L148.931 85.7587C148.931 85.7587 142.846 91.4798 136.728 90.0047C130.611 88.5296 125.702 90.8347 122.023 89.3836C118.345 87.9325 116.859 88.2316 112.848 87.2661C109.197 86.4328 106.548 87.2525 110.264 85.9178Z" fill="url(#paint23_linear_4586_11287)"/>
<path style="mix-blend-mode:multiply" opacity="0.61" d="M151.366 87.1236C151.366 87.1236 159.738 91.9876 160.116 100.9L156.663 102.637C156.663 102.637 152.42 97.2874 149.039 96.6141C145.658 95.9407 141.045 97.5218 137.523 101.32L137.073 105.678C139.559 102.555 142.679 99.9957 146.228 98.1691C146.228 98.1691 147.08 101.997 146.177 113.273C145.275 124.548 166.937 103.779 166.54 99.1042C166.143 94.4293 164.878 93.622 160.929 91.7466C156.981 89.8712 151.366 87.1236 151.366 87.1236Z" fill="url(#paint24_linear_4586_11287)"/>
<path style="mix-blend-mode:multiply" opacity="0.51" d="M137.572 155.979C151.199 119.106 168.011 105.643 162.077 136.399C156.144 167.155 150.831 187.795 146.316 192.438C141.801 197.08 124.93 190.166 137.572 155.979Z" fill="url(#paint25_linear_4586_11287)"/>
<path style="mix-blend-mode:color-dodge" opacity="0.6" d="M146.947 116.416C146.596 118.126 155.753 114.667 163.268 105.01C170.782 95.3534 170.347 93.3372 168.917 102.053C167.487 110.768 163.625 129.824 164.826 124.223C166.027 118.622 164.233 112.579 158.833 113.864C153.433 115.148 141.962 143.92 144.238 133.173C145.49 127.65 146.395 122.053 146.947 116.416Z" fill="url(#paint26_linear_4586_11287)"/>
<path style="mix-blend-mode:color-dodge" opacity="0.6" d="M134.055 167.529L160.537 143.373L158.552 153.754L132.267 178.587L134.055 167.529Z" fill="url(#paint27_linear_4586_11287)"/>
<path style="mix-blend-mode:color-dodge" opacity="0.6" d="M131.475 183.5L156.934 161.029L155.758 166.01L130.051 186.749L131.475 183.5Z" fill="url(#paint28_linear_4586_11287)"/>
<path d="M99.3074 96.9155C106.747 101.068 112.985 99.8981 122.324 98.4569C131.662 97.0157 115.749 96.7386 107.431 95.2674C101.19 94.1636 87.7749 90.4725 99.3074 96.9155Z" fill="#FFFCFB"/>
<path d="M39.8073 78.4226C37.6069 75.6135 58.0311 80.5642 52.6941 81.3936C47.357 82.2231 42.5071 81.9363 39.8073 78.4226Z" fill="#FFFCFB"/>
</g>
<defs>
<linearGradient id="paint0_linear_4586_11287" x1="95.634" y1="202.735" x2="116.303" y2="74.8488" gradientUnits="userSpaceOnUse">
<stop offset="0.01" stop-color="#7B00C6"/>
<stop offset="1" stop-color="#EF71C3"/>
</linearGradient>
<linearGradient id="paint1_linear_4586_11287" x1="94.5448" y1="209.089" x2="116.187" y2="75.184" gradientUnits="userSpaceOnUse">
<stop stop-color="#8800FC"/>
<stop offset="1" stop-color="#4E78F1"/>
</linearGradient>
<linearGradient id="paint2_linear_4586_11287" x1="96.6165" y1="196.274" x2="115.555" y2="79.096" gradientUnits="userSpaceOnUse">
<stop offset="0.41"/>
<stop offset="0.45" stop-color="#100615"/>
<stop offset="0.61" stop-color="#4F1C65"/>
<stop offset="0.75" stop-color="#812EA6"/>
<stop offset="0.86" stop-color="#A53AD4"/>
<stop offset="0.95" stop-color="#BC42F0"/>
<stop offset="1" stop-color="#C445FB"/>
</linearGradient>
<linearGradient id="paint3_linear_4586_11287" x1="325.178" y1="149.682" x2="37.3336" y2="103.161" gradientUnits="userSpaceOnUse">
<stop offset="0.48"/>
<stop offset="0.51" stop-color="#0A0B15"/>
<stop offset="0.65" stop-color="#2F3565"/>
<stop offset="0.77" stop-color="#4D56A6"/>
<stop offset="0.88" stop-color="#626FD4"/>
<stop offset="0.95" stop-color="#6F7DF0"/>
<stop offset="1" stop-color="#7483FB"/>
</linearGradient>
<linearGradient id="paint4_linear_4586_11287" x1="226.817" y1="154.977" x2="45.979" y2="125.75" gradientUnits="userSpaceOnUse">
<stop stop-color="#7B00C6"/>
<stop offset="0.47" stop-color="#B539B5"/>
</linearGradient>
<linearGradient id="paint5_linear_4586_11287" x1="94.5768" y1="192.224" x2="122.85" y2="17.2914" gradientUnits="userSpaceOnUse">
<stop stop-color="#FF7C13"/>
<stop offset="0.15" stop-color="#FF8214"/>
<stop offset="0.34" stop-color="#FF9117"/>
<stop offset="0.56" stop-color="#FFAB1C"/>
<stop offset="0.74" stop-color="#FFC721"/>
</linearGradient>
<linearGradient id="paint6_linear_4586_11287" x1="53.9148" y1="73.9216" x2="84.6574" y2="78.8902" gradientUnits="userSpaceOnUse">
<stop stop-color="#EF71A4"/>
<stop offset="0.29" stop-color="#D153AD"/>
<stop offset="0.94" stop-color="#8308C4"/>
<stop offset="1" stop-color="#7B00C6"/>
</linearGradient>
<linearGradient id="paint7_linear_4586_11287" x1="97.6519" y1="199.543" x2="124.794" y2="31.6082" gradientUnits="userSpaceOnUse">
<stop stop-color="#7B00C6"/>
<stop offset="0.06" stop-color="#8308C4"/>
<stop offset="0.71" stop-color="#D153AD"/>
<stop offset="1" stop-color="#EF71A4"/>
</linearGradient>
<linearGradient id="paint8_linear_4586_11287" x1="97.1999" y1="88.6274" x2="100.198" y2="70.0767" gradientUnits="userSpaceOnUse">
<stop offset="0.05" stop-color="white"/>
<stop offset="0.07" stop-color="#FEF8FC"/>
<stop offset="0.19" stop-color="#F9C8E8"/>
<stop offset="0.31" stop-color="#F5A2D8"/>
<stop offset="0.42" stop-color="#F187CC"/>
<stop offset="0.51" stop-color="#F077C5"/>
<stop offset="0.59" stop-color="#EF71C3"/>
</linearGradient>
<linearGradient id="paint9_linear_4586_11287" x1="141.692" y1="92.339" x2="146.644" y2="61.6995" gradientUnits="userSpaceOnUse">
<stop offset="0.05" stop-color="white"/>
<stop offset="0.07" stop-color="#FEF8FC"/>
<stop offset="0.19" stop-color="#F9C8E8"/>
<stop offset="0.31" stop-color="#F5A2D8"/>
<stop offset="0.42" stop-color="#F187CC"/>
<stop offset="0.51" stop-color="#F077C5"/>
<stop offset="0.59" stop-color="#EF71C3"/>
</linearGradient>
<linearGradient id="paint10_linear_4586_11287" x1="133.152" y1="64.8338" x2="137.761" y2="36.3173" gradientUnits="userSpaceOnUse">
<stop offset="0.05" stop-color="white"/>
<stop offset="0.07" stop-color="#FEF8FC"/>
<stop offset="0.19" stop-color="#F9C8E8"/>
<stop offset="0.31" stop-color="#F5A2D8"/>
<stop offset="0.42" stop-color="#F187CC"/>
<stop offset="0.51" stop-color="#F077C5"/>
<stop offset="0.59" stop-color="#EF71C3"/>
</linearGradient>
<linearGradient id="paint11_linear_4586_11287" x1="108.567" y1="59.1221" x2="112.862" y2="32.5535" gradientUnits="userSpaceOnUse">
<stop offset="0.05" stop-color="white"/>
<stop offset="0.07" stop-color="#FEF8FC"/>
<stop offset="0.19" stop-color="#F9C8E8"/>
<stop offset="0.31" stop-color="#F5A2D8"/>
<stop offset="0.42" stop-color="#F187CC"/>
<stop offset="0.51" stop-color="#F077C5"/>
<stop offset="0.59" stop-color="#EF71C3"/>
</linearGradient>
<linearGradient id="paint12_linear_4586_11287" x1="90.2104" y1="67.3721" x2="93.3168" y2="48.1515" gradientUnits="userSpaceOnUse">
<stop offset="0.05" stop-color="white"/>
<stop offset="0.07" stop-color="#FEF8FC"/>
<stop offset="0.19" stop-color="#F9C8E8"/>
<stop offset="0.31" stop-color="#F5A2D8"/>
<stop offset="0.42" stop-color="#F187CC"/>
<stop offset="0.51" stop-color="#F077C5"/>
<stop offset="0.59" stop-color="#EF71C3"/>
</linearGradient>
<linearGradient id="paint13_linear_4586_11287" x1="106.766" y1="33.6757" x2="108.245" y2="24.5241" gradientUnits="userSpaceOnUse">
<stop/>
<stop offset="0.13" stop-color="#13162A"/>
<stop offset="0.37" stop-color="#353C73"/>
<stop offset="0.59" stop-color="#505BAD"/>
<stop offset="0.77" stop-color="#6471D8"/>
<stop offset="0.91" stop-color="#707EF1"/>
<stop offset="1" stop-color="#7483FB"/>
</linearGradient>
<linearGradient id="paint14_linear_4586_11287" x1="135.33" y1="39.2497" x2="137.404" y2="26.4188" gradientUnits="userSpaceOnUse">
<stop/>
<stop offset="0.13" stop-color="#13162A"/>
<stop offset="0.37" stop-color="#353C73"/>
<stop offset="0.59" stop-color="#505BAD"/>
<stop offset="0.77" stop-color="#6471D8"/>
<stop offset="0.91" stop-color="#707EF1"/>
<stop offset="1" stop-color="#7483FB"/>
</linearGradient>
<linearGradient id="paint15_linear_4586_11287" x1="85.3931" y1="52.9928" x2="86.9572" y2="43.3155" gradientUnits="userSpaceOnUse">
<stop/>
<stop offset="0.13" stop-color="#13162A"/>
<stop offset="0.37" stop-color="#353C73"/>
<stop offset="0.59" stop-color="#505BAD"/>
<stop offset="0.77" stop-color="#6471D8"/>
<stop offset="0.91" stop-color="#707EF1"/>
<stop offset="1" stop-color="#7483FB"/>
</linearGradient>
<linearGradient id="paint16_linear_4586_11287" x1="94.4594" y1="59.7819" x2="103.964" y2="72.9507" gradientUnits="userSpaceOnUse">
<stop stop-color="#7483FB"/>
<stop offset="0.09" stop-color="#707EF1"/>
<stop offset="0.23" stop-color="#6471D8"/>
<stop offset="0.41" stop-color="#505BAD"/>
<stop offset="0.63" stop-color="#353C73"/>
<stop offset="0.87" stop-color="#13162A"/>
<stop offset="1"/>
</linearGradient>
<linearGradient id="paint17_linear_4586_11287" x1="84.094" y1="70.7201" x2="85.7413" y2="60.5275" gradientUnits="userSpaceOnUse">
<stop/>
<stop offset="0.13" stop-color="#13162A"/>
<stop offset="0.37" stop-color="#353C73"/>
<stop offset="0.59" stop-color="#505BAD"/>
<stop offset="0.77" stop-color="#6471D8"/>
<stop offset="0.91" stop-color="#707EF1"/>
<stop offset="1" stop-color="#7483FB"/>
</linearGradient>
<linearGradient id="paint18_linear_4586_11287" x1="152.677" y1="51.9837" x2="133.69" y2="65.6872" gradientUnits="userSpaceOnUse">
<stop stop-color="#7483FB"/>
<stop offset="0.09" stop-color="#707EF1"/>
<stop offset="0.23" stop-color="#6471D8"/>
<stop offset="0.41" stop-color="#505BAD"/>
<stop offset="0.63" stop-color="#353C73"/>
<stop offset="0.87" stop-color="#13162A"/>
<stop offset="1"/>
</linearGradient>
<linearGradient id="paint19_linear_4586_11287" x1="80.1062" y1="95.9153" x2="83.0878" y2="77.4677" gradientUnits="userSpaceOnUse">
<stop stop-color="#7483FB"/>
<stop offset="0.09" stop-color="#707EF1"/>
<stop offset="0.23" stop-color="#6471D8"/>
<stop offset="0.41" stop-color="#505BAD"/>
<stop offset="0.63" stop-color="#353C73"/>
<stop offset="0.87" stop-color="#13162A"/>
<stop offset="1"/>
</linearGradient>
<linearGradient id="paint20_linear_4586_11287" x1="73.7353" y1="66.3784" x2="60.3973" y2="76.0139" gradientUnits="userSpaceOnUse">
<stop/>
<stop offset="0.13" stop-color="#13162A"/>
<stop offset="0.37" stop-color="#353C73"/>
<stop offset="0.59" stop-color="#505BAD"/>
<stop offset="0.77" stop-color="#6471D8"/>
<stop offset="0.91" stop-color="#707EF1"/>
<stop offset="1" stop-color="#7483FB"/>
</linearGradient>
<linearGradient id="paint21_linear_4586_11287" x1="143.338" y1="102.259" x2="145.926" y2="86.2432" gradientUnits="userSpaceOnUse">
<stop stop-color="#7483FB"/>
<stop offset="0.09" stop-color="#707EF1"/>
<stop offset="0.23" stop-color="#6471D8"/>
<stop offset="0.41" stop-color="#505BAD"/>
<stop offset="0.63" stop-color="#353C73"/>
<stop offset="0.87" stop-color="#13162A"/>
<stop offset="1"/>
</linearGradient>
<linearGradient id="paint22_linear_4586_11287" x1="74.7952" y1="72.7554" x2="80.2213" y2="80.2736" gradientUnits="userSpaceOnUse">
<stop offset="0.05" stop-color="white"/>
<stop offset="0.07" stop-color="#FEF8FC"/>
<stop offset="0.19" stop-color="#F9C8E8"/>
<stop offset="0.31" stop-color="#F5A2D8"/>
<stop offset="0.42" stop-color="#F187CC"/>
<stop offset="0.51" stop-color="#F077C5"/>
<stop offset="0.59" stop-color="#EF71C3"/>
</linearGradient>
<linearGradient id="paint23_linear_4586_11287" x1="127.655" y1="92.6203" x2="129.421" y2="81.696" gradientUnits="userSpaceOnUse">
<stop stop-color="white"/>
<stop offset="0.06" stop-color="#F5E4E5"/>
<stop offset="0.21" stop-color="#E1A9AB"/>
<stop offset="0.35" stop-color="#CF797B"/>
<stop offset="0.48" stop-color="#C25356"/>
<stop offset="0.61" stop-color="#B8373B"/>
<stop offset="0.71" stop-color="#B2272B"/>
<stop offset="0.8" stop-color="#B02125"/>
</linearGradient>
<linearGradient id="paint24_linear_4586_11287" x1="149.548" y1="115.71" x2="154.277" y2="86.4519" gradientUnits="userSpaceOnUse">
<stop stop-color="white"/>
<stop offset="0.06" stop-color="#F5E4E5"/>
<stop offset="0.21" stop-color="#E1A9AB"/>
<stop offset="0.35" stop-color="#CF797B"/>
<stop offset="0.48" stop-color="#C25356"/>
<stop offset="0.61" stop-color="#B8373B"/>
<stop offset="0.71" stop-color="#B2272B"/>
<stop offset="0.8" stop-color="#B02125"/>
</linearGradient>
<linearGradient id="paint25_linear_4586_11287" x1="141.828" y1="190.697" x2="154.004" y2="115.361" gradientUnits="userSpaceOnUse">
<stop offset="0.05" stop-color="white"/>
<stop offset="0.07" stop-color="#FEF8FC"/>
<stop offset="0.19" stop-color="#F9C8E8"/>
<stop offset="0.31" stop-color="#F5A2D8"/>
<stop offset="0.42" stop-color="#F187CC"/>
<stop offset="0.51" stop-color="#F077C5"/>
<stop offset="0.59" stop-color="#EF71C3"/>
</linearGradient>
<linearGradient id="paint26_linear_4586_11287" x1="179.681" y1="119.729" x2="146.238" y2="114.324" gradientUnits="userSpaceOnUse">
<stop stop-color="#7483FB"/>
<stop offset="0.09" stop-color="#707EF1"/>
<stop offset="0.23" stop-color="#6471D8"/>
<stop offset="0.41" stop-color="#505BAD"/>
<stop offset="0.63" stop-color="#353C73"/>
<stop offset="0.87" stop-color="#13162A"/>
<stop offset="1"/>
</linearGradient>
<linearGradient id="paint27_linear_4586_11287" x1="172.564" y1="165.208" x2="134.257" y2="159.017" gradientUnits="userSpaceOnUse">
<stop stop-color="#7483FB"/>
<stop offset="0.16" stop-color="#606DD0"/>
<stop offset="0.75" stop-color="#1C1F3C"/>
<stop offset="1"/>
</linearGradient>
<linearGradient id="paint28_linear_4586_11287" x1="169.818" y1="178.149" x2="131.274" y2="171.919" gradientUnits="userSpaceOnUse">
<stop stop-color="#7483FB"/>
<stop offset="0.16" stop-color="#606DD0"/>
<stop offset="0.75" stop-color="#1C1F3C"/>
<stop offset="1"/>
</linearGradient>
<clipPath id="clip0_4586_11287">
<rect width="184.197" height="189.365" fill="white" transform="translate(30.4014 0.330078) rotate(9.18083)"/>
</clipPath>
</defs>
</svg>
