<svg width="24" height="24" viewBox="0 0 24 24" fill="none" xmlns="http://www.w3.org/2000/svg">
<path d="M21 5.75C21.6897 5.75 22.1793 6.29162 22.1212 6.92642C22.0547 7.65312 21.9643 8.4396 21.852 9.0727C21.7955 9.39112 21.7368 9.65161 21.6787 9.83924C21.6534 9.9209 21.6319 9.97674 21.6162 10.0115C21.157 10.3985 20.4579 10.7832 19.5219 11.1236C18.5569 11.4745 17.3944 11.7586 16.0978 11.9539C14.8027 12.149 13.4098 12.25 12 12.25C10.5903 12.25 9.19733 12.149 7.9022 11.9539C6.60563 11.7586 5.4431 11.4745 4.47814 11.1236C3.54212 10.7832 2.84303 10.3985 2.3838 10.0115C2.36809 9.97674 2.34658 9.9209 2.32131 9.83924C2.26324 9.6516 2.2045 9.39111 2.14801 9.07269C2.0357 8.43959 1.94527 7.65311 1.87881 6.92641C1.82075 6.29162 2.31025 5.75 3 5.75L12 5.75H21ZM21.5997 10.0442C21.5997 10.0441 21.6007 10.0423 21.6027 10.039C21.6008 10.0427 21.5997 10.0443 21.5997 10.0442ZM2.40035 10.0442C2.40032 10.0443 2.39926 10.0427 2.39727 10.039C2.39938 10.0423 2.40038 10.0441 2.40035 10.0442Z" fill="#060D18" stroke="#E0E0E0" stroke-width="1.5"/>
<rect x="11" y="12" width="2" height="5" fill="#E0E0E0"/>
<path d="M16 3.75C16.6901 3.75 17.2276 4.30292 17.2087 4.97686C17.1765 6.12861 17.1258 7.56759 17.0571 8.77935C17.0226 9.38616 16.9841 9.92846 16.942 10.3464C16.9208 10.5559 16.8996 10.726 16.8788 10.8534C16.8596 10.9718 16.8463 11.0164 16.8471 11.0166C16.8473 11.0167 16.8483 11.014 16.8504 11.0091C16.5865 11.6461 16.1998 12.2248 15.7123 12.7123C15.2248 13.1998 14.6461 13.5865 14.0091 13.8504C13.3721 14.1142 12.6894 14.25 12 14.25C11.3106 14.25 10.6279 14.1142 9.99092 13.8504C9.35396 13.5865 8.7752 13.1998 8.28769 12.7123C7.80019 12.2248 7.41347 11.6461 7.14964 11.0091C7.15168 11.014 7.15273 11.0167 7.15293 11.0166C7.15371 11.0164 7.14044 10.9718 7.12117 10.8534C7.10044 10.726 7.07919 10.5559 7.05805 10.3464C7.01589 9.92846 6.97737 9.38616 6.94295 8.77935C6.87422 7.56759 6.82346 6.12861 6.79126 4.97686C6.77241 4.30292 7.30987 3.75 8 3.75L12 3.75H16Z" fill="#060D18" stroke="#E0E0E0" stroke-width="1.5"/>
<path d="M16 21.25C16.6922 21.25 17.1945 20.7026 17.1441 20.0621C17.1064 19.5828 17.0597 19.1115 17.0053 18.7435C16.9778 18.5581 16.9506 18.414 16.9254 18.3143C16.921 18.2967 16.917 18.282 16.9135 18.27C16.694 18.0263 16.3618 17.7768 15.9072 17.5495C15.4181 17.3049 14.8202 17.1028 14.144 16.9628C13.469 16.823 12.7399 16.75 12 16.75C11.2601 16.75 10.531 16.823 9.85601 16.9628C9.17979 17.1028 8.58192 17.3049 8.09277 17.5495L7.75736 16.8787L8.09277 17.5495C7.63826 17.7768 7.30601 18.0263 7.08652 18.27C7.08306 18.282 7.07906 18.2967 7.0746 18.3143C7.04943 18.414 7.02219 18.5581 6.99476 18.7435C6.94031 19.1115 6.89363 19.5828 6.8559 20.0621C6.80549 20.7026 7.30777 21.25 8 21.25L12 21.25H16ZM16.9005 18.2295C16.898 18.2232 16.898 18.2242 16.901 18.2308C16.9008 18.2303 16.9006 18.2299 16.9005 18.2295ZM7.09954 18.2295C7.09939 18.2299 7.09923 18.2303 7.09905 18.2308C7.10203 18.2242 7.10201 18.2232 7.09954 18.2295Z" fill="#060D18" stroke="#E0E0E0" stroke-width="1.5"/>
</svg>
