<svg width="213" height="201" viewBox="0 0 213 201" fill="none" xmlns="http://www.w3.org/2000/svg">
<circle cx="-14.2531" cy="196.472" r="16.3167" transform="rotate(-36.4053 -14.2531 196.472)" fill="white" fill-opacity="0.02"/>
<circle cx="-2.75816" cy="120.413" r="16.3167" transform="rotate(-36.4053 -2.75816 120.413)" fill="white" fill-opacity="0.02"/>
<circle cx="29.5211" cy="164.191" r="16.3167" transform="rotate(-36.4053 29.5211 164.191)" fill="white" fill-opacity="0.02"/>
<circle cx="61.8006" cy="207.972" r="16.3167" transform="rotate(-36.4053 61.8006 207.972)" fill="white" fill-opacity="0.02"/>
<circle cx="41.0161" cy="88.1438" r="16.3167" transform="rotate(-36.4053 41.0161 88.1438)" fill="white" fill-opacity="0.02"/>
<circle cx="73.2956" cy="131.905" r="16.3167" transform="rotate(-36.4053 73.2956 131.905)" fill="white" fill-opacity="0.02"/>
<circle cx="105.575" cy="175.691" r="16.3167" transform="rotate(-36.4053 105.575 175.691)" fill="white" fill-opacity="0.02"/>
<circle cx="137.854" cy="219.464" r="16.3167" transform="rotate(-36.4053 137.854 219.464)" fill="white" fill-opacity="0.02"/>
<circle cx="84.7904" cy="55.8625" r="16.3167" transform="rotate(-36.4053 84.7904 55.8625)" fill="white" fill-opacity="0.02"/>
<circle cx="128.565" cy="23.5813" r="16.3167" transform="rotate(-36.4053 128.565 23.5813)" fill="white" fill-opacity="0.02"/>
<circle cx="117.07" cy="99.636" r="16.3167" transform="rotate(-36.4053 117.07 99.636)" fill="white" fill-opacity="0.02"/>
<circle cx="160.844" cy="67.3547" r="16.3167" transform="rotate(-36.4053 160.844 67.3547)" fill="white" fill-opacity="0.02"/>
<circle cx="149.349" cy="143.405" r="16.3167" transform="rotate(-36.4053 149.349 143.405)" fill="white" fill-opacity="0.02"/>
<circle cx="193.124" cy="111.128" r="16.3167" transform="rotate(-36.4053 193.124 111.128)" fill="white" fill-opacity="0.02"/>
<circle cx="181.629" cy="187.183" r="16.3167" transform="rotate(-36.4053 181.629 187.183)" fill="white" fill-opacity="0.02"/>
<circle cx="225.403" cy="154.905" r="16.3167" transform="rotate(-36.4053 225.403 154.905)" fill="white" fill-opacity="0.02"/>
</svg>
