<svg width="11" height="14" viewBox="0 0 11 14" fill="none" xmlns="http://www.w3.org/2000/svg">
<path d="M4.25615 4.88689C4.34215 4.73794 4.53262 4.6869 4.68157 4.7729L7.15386 6.20028C7.30281 6.28628 7.35385 6.47674 7.26785 6.6257L3.26362 13.5612C3.14787 13.7617 2.86159 13.7703 2.73403 13.5771L2.01163 12.483C1.95689 12.4001 1.86588 12.3483 1.76665 12.3435L0.510143 12.2833C0.277258 12.2721 0.138776 12.0184 0.255352 11.8165L4.25615 4.88689Z" fill="#90ADE8"/>
<path d="M6.54127 4.88689C6.45527 4.73794 6.26481 4.6869 6.11585 4.7729L3.64357 6.20028C3.49461 6.28628 3.44358 6.47674 3.52958 6.6257L7.5338 13.5612C7.64956 13.7617 7.93584 13.7703 8.0634 13.5771L8.7858 12.483C8.84053 12.4001 8.93154 12.3483 9.03077 12.3435L10.2873 12.2833C10.5202 12.2721 10.6586 12.0184 10.5421 11.8165L6.54127 4.88689Z" fill="#90ADE8"/>
<mask id="mask0_3911_9617" style="mask-type:alpha" maskUnits="userSpaceOnUse" x="0" y="4" width="11" height="10">
<path d="M4.25615 4.88689C4.34215 4.73794 4.53262 4.6869 4.68157 4.7729L7.15386 6.20028C7.30281 6.28628 7.35385 6.47674 7.26785 6.6257L3.26362 13.5612C3.14787 13.7617 2.86159 13.7703 2.73403 13.5771L2.01163 12.483C1.95689 12.4001 1.86588 12.3483 1.76665 12.3435L0.510143 12.2833C0.277258 12.2721 0.138776 12.0184 0.255352 11.8165L4.25615 4.88689Z" fill="#F7F9FF"/>
<path d="M6.54127 4.88689C6.45527 4.73794 6.26481 4.6869 6.11585 4.7729L3.64357 6.20028C3.49461 6.28628 3.44358 6.47674 3.52958 6.6257L7.5338 13.5612C7.64956 13.7617 7.93584 13.7703 8.0634 13.5771L8.7858 12.483C8.84053 12.4001 8.93154 12.3483 9.03077 12.3435L10.2873 12.2833C10.5202 12.2721 10.6586 12.0184 10.5421 11.8165L6.54127 4.88689Z" fill="#F7F9FF"/>
</mask>
<g mask="url(#mask0_3911_9617)">
<path d="M4.86959 1.63508C5.17271 1.32191 5.6749 1.32191 5.97803 1.63508L6.06717 1.72717C6.27956 1.94659 6.6014 2.02005 6.88797 1.91451L7.00824 1.87022C7.41722 1.71959 7.86968 1.93748 8.00691 2.35115L8.04726 2.4728C8.14341 2.76265 8.40151 2.96847 8.70549 2.99772L8.83307 3.00999C9.2669 3.05173 9.58002 3.44436 9.52417 3.87661L9.50775 4.00372C9.46862 4.30658 9.61185 4.60401 9.87304 4.76225L9.98266 4.82866C10.3554 5.0545 10.4672 5.5441 10.2293 5.90931L10.1594 6.01671C9.9927 6.2726 9.9927 6.60272 10.1594 6.85862L10.2293 6.96601C10.4672 7.33122 10.3554 7.82083 9.98266 8.04666L9.87304 8.11308C9.61185 8.27131 9.46862 8.56874 9.50775 8.87161L9.52417 8.99872C9.58002 9.43096 9.2669 9.82359 8.83307 9.86533L8.70549 9.8776C8.40151 9.90685 8.14341 10.1127 8.04726 10.4025L8.00691 10.5242C7.86968 10.9378 7.41722 11.1557 7.00824 11.0051L6.88797 10.9608C6.6014 10.8553 6.27956 10.9287 6.06717 11.1482L5.97803 11.2402C5.6749 11.5534 5.17271 11.5534 4.86959 11.2402L4.78045 11.1482C4.56806 10.9287 4.24621 10.8553 3.95965 10.9608L3.83938 11.0051C3.4304 11.1557 2.97794 10.9378 2.84071 10.5242L2.80035 10.4025C2.7042 10.1127 2.4461 9.90685 2.14212 9.8776L2.01455 9.86533C1.58071 9.82359 1.2676 9.43096 1.32344 8.99872L1.33987 8.87161C1.379 8.56874 1.23576 8.27131 0.974578 8.11308L0.864959 8.04666C0.492196 7.82083 0.380448 7.33122 0.618308 6.96601L0.688256 6.85862C0.854918 6.60272 0.854918 6.2726 0.688256 6.01671L0.618308 5.90931C0.380448 5.5441 0.492196 5.0545 0.864959 4.82866L0.974578 4.76225C1.23576 4.60401 1.379 4.30658 1.33987 4.00372L1.32344 3.87661C1.2676 3.44436 1.58071 3.05173 2.01455 3.00999L2.14212 2.99772C2.4461 2.96847 2.7042 2.76265 2.80035 2.4728L2.84071 2.35115C2.97794 1.93748 3.4304 1.71959 3.83938 1.87022L3.95965 1.91451C4.24621 2.02005 4.56806 1.94659 4.78045 1.72717L4.86959 1.63508Z" fill="#5375BB"/>
</g>
<path d="M4.86806 0.572578C5.17118 0.259415 5.67338 0.259414 5.9765 0.572577L6.06564 0.66467C6.27803 0.884095 6.59988 0.957554 6.88644 0.852012L7.00671 0.807716C7.41569 0.657086 7.86815 0.87498 8.00538 1.28865L8.04573 1.4103C8.14189 1.70015 8.39999 1.90597 8.70396 1.93522L8.83154 1.94749C9.26538 1.98923 9.57849 2.38186 9.52264 2.81411L9.50622 2.94122C9.46709 3.24408 9.61033 3.54151 9.87151 3.69975L9.98113 3.76616C10.3539 3.992 10.4656 4.4816 10.2278 4.84681L10.1578 4.95421C9.99117 5.2101 9.99117 5.54022 10.1578 5.79612L10.2278 5.90351C10.4656 6.26872 10.3539 6.75833 9.98113 6.98416L9.87151 7.05058C9.61033 7.20881 9.46709 7.50624 9.50622 7.80911L9.52264 7.93622C9.57849 8.36846 9.26538 8.76109 8.83154 8.80283L8.70396 8.8151C8.39999 8.84435 8.14189 9.05018 8.04573 9.34002L8.00538 9.46167C7.86815 9.87534 7.41569 10.0932 7.00671 9.94261L6.88644 9.89831C6.59988 9.79277 6.27803 9.86623 6.06564 10.0857L5.9765 10.1777C5.67338 10.4909 5.17118 10.4909 4.86806 10.1777L4.77892 10.0857C4.56653 9.86623 4.24468 9.79277 3.95812 9.89831L3.83785 9.94261C3.42887 10.0932 2.97641 9.87534 2.83918 9.46167L2.79883 9.34002C2.70268 9.05018 2.44458 8.84435 2.1406 8.8151L2.01302 8.80283C1.57919 8.76109 1.26607 8.36846 1.32192 7.93622L1.33834 7.80911C1.37747 7.50624 1.23424 7.20881 0.973053 7.05058L0.863433 6.98416C0.490671 6.75833 0.378922 6.26872 0.616782 5.90351L0.68673 5.79612C0.853392 5.54022 0.853392 5.2101 0.68673 4.95421L0.616782 4.84681C0.378922 4.4816 0.49067 3.992 0.863433 3.76616L0.973052 3.69975C1.23424 3.54151 1.37747 3.24408 1.33834 2.94122L1.32192 2.81411C1.26607 2.38186 1.57919 1.98923 2.01302 1.94749L2.1406 1.93522C2.44457 1.90597 2.70268 1.70015 2.79883 1.4103L2.83918 1.28865C2.97641 0.87498 3.42887 0.657086 3.83785 0.807716L3.95812 0.852012C4.24468 0.957554 4.56653 0.884095 4.77892 0.66467L4.86806 0.572578Z" fill="url(#paint0_linear_3911_9617)"/>
<path d="M4.95466 0.656398C5.21042 0.392167 5.63415 0.392167 5.8899 0.656398L5.97904 0.748491C6.22462 1.0022 6.59676 1.08714 6.92809 0.965105L7.04836 0.920808C7.39344 0.793714 7.7752 0.977563 7.89099 1.3266L7.93135 1.44825C8.04252 1.78338 8.34095 2.02137 8.69242 2.05518L8.82 2.06746C9.18605 2.10267 9.45024 2.43396 9.40312 2.79866L9.38669 2.92577C9.34145 3.27596 9.50707 3.61986 9.80906 3.80283L9.91868 3.86924C10.2332 4.05979 10.3275 4.47289 10.1268 4.78104L10.0568 4.88843C9.86414 5.18431 9.86414 5.56601 10.0568 5.86189L10.1268 5.96929C10.3275 6.27743 10.2332 6.69053 9.91868 6.88108L9.80906 6.9475C9.50707 7.13046 9.34145 7.47437 9.38669 7.82455L9.40312 7.95166C9.45024 8.31637 9.18605 8.64765 8.82 8.68287L8.69242 8.69514C8.34095 8.72895 8.04252 8.96694 7.93135 9.30208L7.89099 9.42373C7.7752 9.77276 7.39344 9.95661 7.04836 9.82952L6.92809 9.78522C6.59676 9.66319 6.22462 9.74812 5.97904 10.0018L5.8899 10.0939C5.63414 10.3582 5.21042 10.3582 4.95466 10.0939L4.86552 10.0018C4.61994 9.74812 4.24781 9.66319 3.91647 9.78522L3.7962 9.82952C3.45112 9.95661 3.06936 9.77276 2.95357 9.42373L2.91322 9.30208C2.80204 8.96694 2.50361 8.72895 2.15214 8.69514L2.02456 8.68287C1.65851 8.64765 1.39432 8.31637 1.44144 7.95166L1.45787 7.82455C1.50311 7.47437 1.3375 7.13046 1.0355 6.9475L0.925882 6.88108C0.611364 6.69053 0.517076 6.27743 0.71777 5.96929L0.787719 5.86189C0.980422 5.56602 0.980422 5.18431 0.787719 4.88843L0.717771 4.78104C0.517076 4.47289 0.611364 4.05979 0.925882 3.86924L1.0355 3.80283C1.3375 3.61986 1.50311 3.27596 1.45787 2.92578L1.44144 2.79866C1.39432 2.43396 1.65851 2.10267 2.02456 2.06746L2.15214 2.05518C2.50361 2.02137 2.80204 1.78338 2.91322 1.44825L2.95357 1.3266C3.06936 0.977563 3.45112 0.793714 3.7962 0.920808L3.91647 0.965105C4.24781 1.08714 4.61994 1.0022 4.86552 0.748491L4.95466 0.656398Z" stroke="#F88A2E" stroke-opacity="0.36" stroke-width="0.241039"/>
<mask id="mask1_3911_9617" style="mask-type:alpha" maskUnits="userSpaceOnUse" x="0" y="0" width="11" height="11">
<path d="M4.86806 0.572578C5.17118 0.259415 5.67338 0.259414 5.9765 0.572577L6.06564 0.66467C6.27803 0.884095 6.59988 0.957554 6.88644 0.852012L7.00671 0.807716C7.41569 0.657086 7.86815 0.87498 8.00538 1.28865L8.04573 1.4103C8.14189 1.70015 8.39999 1.90597 8.70396 1.93522L8.83154 1.94749C9.26538 1.98923 9.57849 2.38186 9.52264 2.81411L9.50622 2.94122C9.46709 3.24408 9.61033 3.54151 9.87151 3.69975L9.98113 3.76616C10.3539 3.992 10.4656 4.4816 10.2278 4.84681L10.1578 4.95421C9.99117 5.2101 9.99117 5.54022 10.1578 5.79612L10.2278 5.90351C10.4656 6.26872 10.3539 6.75833 9.98113 6.98416L9.87151 7.05058C9.61033 7.20881 9.46709 7.50624 9.50622 7.80911L9.52264 7.93622C9.57849 8.36846 9.26538 8.76109 8.83154 8.80283L8.70396 8.8151C8.39999 8.84435 8.14189 9.05018 8.04573 9.34002L8.00538 9.46167C7.86815 9.87534 7.41569 10.0932 7.00671 9.94261L6.88644 9.89831C6.59988 9.79277 6.27803 9.86623 6.06564 10.0857L5.9765 10.1777C5.67338 10.4909 5.17118 10.4909 4.86806 10.1777L4.77892 10.0857C4.56653 9.86623 4.24468 9.79277 3.95812 9.89831L3.83785 9.94261C3.42887 10.0932 2.97641 9.87534 2.83918 9.46167L2.79883 9.34002C2.70268 9.05018 2.44458 8.84435 2.1406 8.8151L2.01302 8.80283C1.57919 8.76109 1.26607 8.36846 1.32192 7.93622L1.33834 7.80911C1.37747 7.50624 1.23424 7.20881 0.973053 7.05058L0.863433 6.98416C0.490671 6.75833 0.378922 6.26872 0.616782 5.90351L0.68673 5.79612C0.853392 5.54022 0.853392 5.2101 0.68673 4.95421L0.616782 4.84681C0.378922 4.4816 0.49067 3.992 0.863433 3.76616L0.973052 3.69975C1.23424 3.54151 1.37747 3.24408 1.33834 2.94122L1.32192 2.81411C1.26607 2.38186 1.57919 1.98923 2.01302 1.94749L2.1406 1.93522C2.44457 1.90597 2.70268 1.70015 2.79883 1.4103L2.83918 1.28865C2.97641 0.87498 3.42887 0.657086 3.83785 0.807716L3.95812 0.852012C4.24468 0.957554 4.56653 0.884095 4.77892 0.66467L4.86806 0.572578Z" fill="#CFC69C"/>
<path d="M4.95466 0.656398C5.21042 0.392167 5.63415 0.392167 5.8899 0.656398L5.97904 0.748491C6.22462 1.0022 6.59676 1.08714 6.92809 0.965105L7.04836 0.920808C7.39344 0.793714 7.7752 0.977563 7.89099 1.3266L7.93135 1.44825C8.04252 1.78338 8.34095 2.02137 8.69242 2.05518L8.82 2.06746C9.18605 2.10267 9.45024 2.43396 9.40312 2.79866L9.38669 2.92577C9.34145 3.27596 9.50707 3.61986 9.80906 3.80283L9.91868 3.86924C10.2332 4.05979 10.3275 4.47289 10.1268 4.78104L10.0568 4.88843C9.86414 5.18431 9.86414 5.56601 10.0568 5.86189L10.1268 5.96929C10.3275 6.27743 10.2332 6.69053 9.91868 6.88108L9.80906 6.9475C9.50707 7.13046 9.34145 7.47437 9.38669 7.82455L9.40312 7.95166C9.45024 8.31637 9.18605 8.64765 8.82 8.68287L8.69242 8.69514C8.34095 8.72895 8.04252 8.96694 7.93135 9.30208L7.89099 9.42373C7.7752 9.77276 7.39344 9.95661 7.04836 9.82952L6.92809 9.78522C6.59676 9.66319 6.22462 9.74812 5.97904 10.0018L5.8899 10.0939C5.63414 10.3582 5.21042 10.3582 4.95466 10.0939L4.86552 10.0018C4.61994 9.74812 4.24781 9.66319 3.91647 9.78522L3.7962 9.82952C3.45112 9.95661 3.06936 9.77276 2.95357 9.42373L2.91322 9.30208C2.80204 8.96694 2.50361 8.72895 2.15214 8.69514L2.02456 8.68287C1.65851 8.64765 1.39432 8.31637 1.44144 7.95166L1.45787 7.82455C1.50311 7.47437 1.3375 7.13046 1.0355 6.9475L0.925882 6.88108C0.611364 6.69053 0.517076 6.27743 0.71777 5.96929L0.787719 5.86189C0.980422 5.56602 0.980422 5.18431 0.787719 4.88843L0.717771 4.78104C0.517076 4.47289 0.611364 4.05979 0.925882 3.86924L1.0355 3.80283C1.3375 3.61986 1.50311 3.27596 1.45787 2.92578L1.44144 2.79866C1.39432 2.43396 1.65851 2.10267 2.02456 2.06746L2.15214 2.05518C2.50361 2.02137 2.80204 1.78338 2.91322 1.44825L2.95357 1.3266C3.06936 0.977563 3.45112 0.793714 3.7962 0.920808L3.91647 0.965105C4.24781 1.08714 4.61994 1.0022 4.86552 0.748491L4.95466 0.656398Z" stroke="#F88A2E" stroke-opacity="0.36" stroke-width="0.241039"/>
</mask>
<g mask="url(#mask1_3911_9617)">
<circle cx="4.56182" cy="4.36907" r="4.75579" fill="url(#paint1_linear_3911_9617)"/>
</g>
<g opacity="0.5">
<mask id="mask2_3911_9617" style="mask-type:alpha" maskUnits="userSpaceOnUse" x="1" y="0" width="8" height="9">
<path d="M1.64171 5.83248L1.59406 5.91113L1.64171 5.83248C1.40172 5.68708 1.32978 5.37187 1.48292 5.13675L1.53629 5.0548C1.68333 4.82904 1.68333 4.53779 1.53629 4.31203L1.48292 4.23009C1.32978 3.99496 1.40172 3.67976 1.64171 3.53436L1.72535 3.48369C1.95578 3.34408 2.08215 3.08167 2.04763 2.81447L2.0351 2.71748C1.99914 2.4392 2.20073 2.18643 2.48003 2.15956L2.57738 2.15019C2.84556 2.12439 3.07327 1.9428 3.1581 1.68708L3.18889 1.59426C3.27724 1.32794 3.56853 1.18766 3.83184 1.28463L3.92361 1.31843C4.17643 1.41155 4.46037 1.34674 4.64775 1.15315L4.71577 1.08288L4.6497 1.01892L4.71577 1.08288C4.91092 0.881265 5.23424 0.881265 5.42939 1.08288L5.4974 1.15315C5.68478 1.34674 5.96873 1.41155 6.22155 1.31843L6.31332 1.28463C6.57662 1.18766 6.86792 1.32794 6.95627 1.59426L6.98706 1.68708C7.07189 1.9428 7.2996 2.12439 7.56778 2.15019L7.66513 2.15956C7.94443 2.18643 8.14602 2.4392 8.11006 2.71748L8.09753 2.81447C8.06301 3.08167 8.18938 3.34408 8.41981 3.48369L8.50345 3.53436C8.74343 3.67976 8.81538 3.99496 8.66224 4.23009L8.60887 4.31203C8.46183 4.53779 8.46183 4.82904 8.60887 5.0548L8.66224 5.13675C8.81538 5.37187 8.74343 5.68708 8.50345 5.83248L8.41981 5.88315C8.18938 6.02276 8.06301 6.28517 8.09753 6.55237L8.11006 6.64935C8.14602 6.92763 7.94443 7.18041 7.66513 7.20728L7.56778 7.21665C7.2996 7.24245 7.07189 7.42404 6.98706 7.67976L6.95627 7.77258C6.86792 8.0389 6.57662 8.17918 6.31332 8.08221L6.22155 8.04841C5.96873 7.95529 5.68478 8.0201 5.4974 8.21369L5.42939 8.28396C5.23424 8.48557 4.91092 8.48557 4.71577 8.28396L4.64775 8.21369C4.46037 8.0201 4.17643 7.95529 3.92361 8.04841L3.83184 8.08221C3.56853 8.17918 3.27724 8.0389 3.18889 7.77258L3.1581 7.67976C3.07327 7.42404 2.84556 7.24245 2.57738 7.21665L2.48003 7.20728C2.20073 7.18041 1.99914 6.92764 2.0351 6.64935L2.04763 6.55236C2.08215 6.28517 1.95578 6.02276 1.72535 5.88315L1.64171 5.83248Z" fill="#CFC69C" stroke="#FFBB42" stroke-width="0.183919"/>
</mask>
<g mask="url(#mask2_3911_9617)">
<g style="mix-blend-mode:screen">
<circle cx="4.41578" cy="3.91395" r="3.62879" fill="url(#paint2_linear_3911_9617)"/>
</g>
</g>
</g>
<g filter="url(#filter0_d_3911_9617)">
<path d="M5.12392 3.6985C5.25054 3.45852 5.59423 3.45852 5.72084 3.6985L6.03012 4.28468C6.07894 4.37722 6.16794 4.44188 6.27104 4.45972L6.9241 4.57272C7.19146 4.61898 7.29767 4.94585 7.10856 5.14042L6.64664 5.61569C6.57371 5.69073 6.53972 5.79535 6.55462 5.89892L6.64896 6.55493C6.68758 6.8235 6.40953 7.02552 6.16604 6.90579L5.57129 6.61335C5.47739 6.56718 5.36738 6.56718 5.27348 6.61335L4.67873 6.90579C4.43524 7.02552 4.15719 6.8235 4.19581 6.55493L4.29015 5.89892C4.30505 5.79535 4.27106 5.69073 4.19813 5.61569L3.73621 5.14042C3.5471 4.94585 3.65331 4.61898 3.92067 4.57272L4.57373 4.45972C4.67683 4.44188 4.76583 4.37722 4.81465 4.28468L5.12392 3.6985Z" fill="white"/>
</g>
<mask id="mask3_3911_9617" style="mask-type:alpha" maskUnits="userSpaceOnUse" x="3" y="3" width="5" height="4">
<path d="M5.12417 3.6985C5.25078 3.45852 5.59447 3.45852 5.72109 3.6985L6.03036 4.28468C6.07919 4.37722 6.16818 4.44188 6.27129 4.45972L6.92434 4.57272C7.1917 4.61898 7.29791 4.94585 7.1088 5.14042L6.64689 5.61569C6.57396 5.69073 6.53996 5.79535 6.55486 5.89892L6.6492 6.55493C6.68782 6.8235 6.40977 7.02552 6.16628 6.90579L5.57153 6.61335C5.47763 6.56718 5.36763 6.56718 5.27373 6.61335L4.67898 6.90579C4.43549 7.02552 4.15743 6.8235 4.19606 6.55493L4.2904 5.89892C4.30529 5.79535 4.2713 5.69073 4.19837 5.61569L3.73646 5.14042C3.54735 4.94585 3.65355 4.61898 3.92091 4.57272L4.57397 4.45972C4.67707 4.44188 4.76607 4.37722 4.8149 4.28468L5.12417 3.6985Z" fill="white"/>
</mask>
<g mask="url(#mask3_3911_9617)">
<path d="M3.20526 6.98964L5.26252 6.29094C6.2919 5.94134 6.92638 4.90823 6.77263 3.83203L7.785 6.00138L7.03778 7.56813L3.20526 6.98964Z" fill="#E4EDFF"/>
</g>
<circle cx="5.42339" cy="5.37902" r="3.03709" stroke="url(#paint3_linear_3911_9617)" stroke-width="0.43387"/>
<circle cx="5.42339" cy="5.37902" r="3.37454" stroke="white" stroke-width="0.241039"/>
<defs>
<filter id="filter0_d_3911_9617" x="3.3994" y="3.47132" width="4.04598" height="3.90395" filterUnits="userSpaceOnUse" color-interpolation-filters="sRGB">
<feFlood flood-opacity="0" result="BackgroundImageFix"/>
<feColorMatrix in="SourceAlpha" type="matrix" values="0 0 0 0 0 0 0 0 0 0 0 0 0 0 0 0 0 0 127 0" result="hardAlpha"/>
<feOffset dy="0.192831"/>
<feGaussianBlur stdDeviation="0.120519"/>
<feComposite in2="hardAlpha" operator="out"/>
<feColorMatrix type="matrix" values="0 0 0 0 0.883333 0 0 0 0 0.658672 0 0 0 0 0.0809722 0 0 0 0.41 0"/>
<feBlend mode="normal" in2="BackgroundImageFix" result="effect1_dropShadow_3911_9617"/>
<feBlend mode="normal" in="SourceGraphic" in2="effect1_dropShadow_3911_9617" result="shape"/>
</filter>
<linearGradient id="paint0_linear_3911_9617" x1="1.13179" y1="0.674908" x2="10.2431" y2="9.78617" gradientUnits="userSpaceOnUse">
<stop stop-color="#FDB83D"/>
<stop offset="1" stop-color="#F9D534"/>
</linearGradient>
<linearGradient id="paint1_linear_3911_9617" x1="8.20146" y1="7.81459" x2="1.98981" y2="0.486794" gradientUnits="userSpaceOnUse">
<stop stop-color="#FFBB42"/>
<stop offset="0.619792" stop-color="#F9B434" stop-opacity="0"/>
</linearGradient>
<linearGradient id="paint2_linear_3911_9617" x1="7.19291" y1="6.54297" x2="2.45327" y2="0.951669" gradientUnits="userSpaceOnUse">
<stop stop-color="#F88A2E" stop-opacity="0.33"/>
<stop offset="1" stop-color="#F9B434" stop-opacity="0"/>
</linearGradient>
<linearGradient id="paint3_linear_3911_9617" x1="2.16937" y1="3.1654" x2="8.67742" y2="6.97283" gradientUnits="userSpaceOnUse">
<stop stop-color="#FEB441"/>
<stop offset="0.386364" stop-color="#F88A2E"/>
</linearGradient>
</defs>
</svg>
