<svg width="48" height="48" viewBox="0 0 48 48" fill="none" xmlns="http://www.w3.org/2000/svg">
<rect x="0.5" y="0.5" width="47" height="47" rx="23.5" stroke="#1F252F"/>
<g clip-path="url(#clip0_4457_3104)">
<path d="M19.7497 18.75C22.7871 18.75 25.2492 21.0908 25.2492 23.9782C25.2492 26.8655 22.7869 29.2062 19.7497 29.2062C16.7125 29.2062 14.25 26.8655 14.25 23.9782C14.25 21.0908 16.7123 18.75 19.7497 18.75ZM28.5323 19.0563C30.051 19.0563 31.2821 21.2596 31.2821 23.9782H31.2823C31.2823 26.696 30.0512 28.9001 28.5325 28.9001C27.0138 28.9001 25.7826 26.696 25.7826 23.9782C25.7826 21.2604 27.0136 19.0563 28.5323 19.0563ZM32.7829 19.5689C33.3169 19.5689 33.75 21.543 33.75 23.9782C33.75 26.4127 33.3171 28.3874 32.7829 28.3874C32.2487 28.3874 31.8159 26.4132 31.8159 23.9782C31.8159 21.5431 32.2489 19.5689 32.7829 19.5689Z" fill="#FCFDFF"/>
</g>
<defs>
<clipPath id="clip0_4457_3104">
<rect width="19.5" height="10.5" fill="white" transform="translate(14.25 18.75)"/>
</clipPath>
</defs>
</svg>
