<svg width="72" height="72" viewBox="0 0 72 72" fill="none" xmlns="http://www.w3.org/2000/svg">
<path fill-rule="evenodd" clip-rule="evenodd" d="M4.5 18C4.5 14.2721 7.52208 11.25 11.25 11.25H60.75C64.4779 11.25 67.5 14.2721 67.5 18V54C67.5 57.7279 64.4779 60.75 60.75 60.75H11.25C7.52208 60.75 4.5 57.7279 4.5 54V18ZM9 48.182V54C9 55.2426 10.0074 56.25 11.25 56.25H60.75C61.9926 56.25 63 55.2426 63 54V48.182L54.932 40.114C53.1746 38.3566 50.3254 38.3566 48.568 40.114L45.932 42.75L48.841 45.659C49.7197 46.5377 49.7197 47.9623 48.841 48.841C47.9623 49.7197 46.5377 49.7197 45.659 48.841L30.182 33.364C28.4246 31.6066 25.5754 31.6066 23.818 33.364L9 48.182ZM39.375 24.75C39.375 22.886 40.886 21.375 42.75 21.375C44.614 21.375 46.125 22.886 46.125 24.75C46.125 26.614 44.614 28.125 42.75 28.125C40.886 28.125 39.375 26.614 39.375 24.75Z" fill="#7D7AFF"/>
</svg>
