<svg width="24" height="24" viewBox="0 0 24 24" fill="none" xmlns="http://www.w3.org/2000/svg">
<g clip-path="url(#clip0_829_6861)">
<path fill-rule="evenodd" clip-rule="evenodd" d="M22.1411 7.65675L22.1655 7.68108L22.1875 7.70754C22.6319 8.242 22.7824 8.80842 22.7173 9.32721C22.6569 9.8082 22.4189 10.1866 22.1833 10.4122L18.2351 14.3604C18.392 16.9992 17.1622 18.6634 16.763 19.1628C16.4528 19.551 16.0329 19.6932 15.6415 19.6586C15.3007 19.6284 15.0247 19.4711 14.8597 19.3346L14.8325 19.3121L14.8075 19.2871L14.7897 19.2693L14.7718 19.2514L14.7538 19.2334L14.7357 19.2153L14.7176 19.1972L14.6994 19.179L14.6812 19.1607L14.6628 19.1424L14.6444 19.124L14.626 19.1055L14.6074 19.087L14.5888 19.0684L14.5702 19.0498L14.5514 19.031L14.5326 19.0122L14.5138 18.9934L14.4949 18.9744L14.4759 18.9555L14.4568 18.9364L14.4377 18.9173L14.4185 18.8981L14.3993 18.8789L14.38 18.8596L14.3606 18.8402L14.3412 18.8208L14.3217 18.8013L14.3022 18.7818L14.2826 18.7622L14.2629 18.7425L14.2432 18.7228L14.2234 18.703L14.2036 18.6832L14.1837 18.6633L14.1637 18.6433L14.1437 18.6233L14.1237 18.6032L14.1035 18.5831L14.0833 18.5629L14.0631 18.5427L14.0428 18.5224L14.0225 18.5021L14.0021 18.4817L13.9816 18.4612L13.9611 18.4407L13.9406 18.4201L13.9199 18.3995L13.8993 18.3789L13.8786 18.3582L13.8578 18.3374L13.837 18.3166L13.8161 18.2957L13.7952 18.2748L13.7742 18.2538L13.7532 18.2328L13.7321 18.2117L13.711 18.1906L13.6899 18.1694L13.6687 18.1482L13.6474 18.127L13.6261 18.1057L13.6047 18.0843L13.5833 18.0629L13.5619 18.0415L13.5404 18.02L13.5189 17.9985L13.4973 17.9769L13.4757 17.9553L13.454 17.9336L13.4323 17.9119L13.4105 17.8901L13.3887 17.8683L13.3669 17.8465L13.345 17.8246L13.3231 17.8027L13.3011 17.7807L13.2791 17.7587L13.2571 17.7367L13.235 17.7146L13.2129 17.6925L13.1907 17.6703L13.1685 17.6481L13.1463 17.6259L13.124 17.6036L13.1017 17.5813L13.0794 17.559L13.057 17.5366L13.0346 17.5142L13.0121 17.4917L12.9896 17.4692L12.9671 17.4467L12.9445 17.4241L12.9219 17.4015L12.8993 17.3789L12.8767 17.3562L12.854 17.3335L12.8312 17.3108L12.8085 17.2881L12.7857 17.2653L12.7629 17.2424L12.74 17.2196L12.7171 17.1967L12.6942 17.1738L12.6713 17.1509L12.6483 17.1279L12.6253 17.1049L12.6023 17.0819L12.5792 17.0588L12.5561 17.0357L12.533 17.0126L12.5099 16.9895L12.4867 16.9663L12.4635 16.9431L12.4403 16.9199L12.4171 16.8966L12.3938 16.8734L12.3705 16.8501L12.3472 16.8268L12.3239 16.8034L12.3005 16.7801L12.2771 16.7567L12.2537 16.7333L12.2303 16.7099L12.2068 16.6864L12.1834 16.6629L12.1599 16.6394L12.1364 16.6159L12.1128 16.5924L12.0893 16.5688L12.0657 16.5453L12.0421 16.5217L12.0185 16.4981L11.9949 16.4745L11.9712 16.4508L11.9476 16.4272L11.9239 16.4035L11.9002 16.3798L11.8765 16.3561L11.8528 16.3323L11.829 16.3086L11.8053 16.2849L11.7815 16.2611L11.7577 16.2373L11.7339 16.2135L11.7101 16.1897L11.6863 16.1659L11.6625 16.142L11.6386 16.1182L11.6148 16.0943L11.5909 16.0705L11.567 16.0466L11.5431 16.0227L11.5192 15.9988L11.4953 15.9749L11.4714 15.951L11.4475 15.9271L11.4235 15.9031L11.3996 15.8792L11.3756 15.8552L11.3517 15.8313L11.3277 15.8073L11.3038 15.7833L11.2798 15.7594L11.2558 15.7354L11.2318 15.7114L11.2226 15.7022C11.1551 15.9351 11.0296 16.1547 10.8461 16.3382L6.64278 20.5415C6.06242 21.1219 5.12148 21.1219 4.54113 20.5415C3.96077 19.9612 3.96077 19.0202 4.54113 18.4399L8.74443 14.2366C8.92799 14.053 9.14762 13.9275 9.3805 13.8601L9.37861 13.8582L9.35551 13.8351L9.33243 13.812L9.30937 13.789L9.28635 13.7659L9.26335 13.7429L9.24038 13.72L9.21745 13.697L9.19454 13.6741L9.17166 13.6512L9.14881 13.6284L9.126 13.6056L9.10321 13.5828L9.08046 13.56L9.05773 13.5373L9.03504 13.5146L9.01239 13.492L8.98976 13.4693L8.96718 13.4468L8.94462 13.4242L8.9221 13.4017L8.89961 13.3792L8.87716 13.3567L8.85475 13.3343L8.83237 13.3119L8.81003 13.2896L8.78772 13.2673L8.76545 13.245L8.74322 13.2228L8.72103 13.2006L8.69888 13.1785L8.67676 13.1563L8.65469 13.1343L8.63265 13.1122L8.61065 13.0902L8.5887 13.0683L8.56679 13.0464L8.54491 13.0245L8.52308 13.0027L8.50129 12.9809L8.47955 12.9591L8.45784 12.9374L8.43618 12.9158L8.41457 12.8941L8.393 12.8726L8.37147 12.851L8.34999 12.8296L8.32855 12.8081L8.30716 12.7867L8.28581 12.7654L8.26451 12.7441L8.24326 12.7228L8.22206 12.7016L8.2009 12.6805L8.17979 12.6594L8.15874 12.6383L8.13772 12.6173L8.11676 12.5963L8.09585 12.5754L8.07499 12.5546L8.05418 12.5338L8.03342 12.513L8.01271 12.4923L7.99206 12.4716L7.97145 12.451L7.9509 12.4305L7.93041 12.41L7.90996 12.3895L7.88957 12.3692L7.86923 12.3488L7.84895 12.3285L7.82873 12.3083L7.80855 12.2881L7.78844 12.268L7.76838 12.248L7.74838 12.228L7.72843 12.208L7.70854 12.1881L7.68871 12.1683L7.66894 12.1485L7.64923 12.1288L7.62957 12.1092L7.60998 12.0896L7.59045 12.07L7.57097 12.0506L7.55156 12.0311L7.53221 12.0118L7.51291 11.9925L7.49369 11.9733L7.47452 11.9541L7.45542 11.935L7.43637 11.916L7.4174 11.897L7.39848 11.8781L7.37963 11.8592L7.36085 11.8404L7.34213 11.8217L7.32348 11.8031L7.30489 11.7845L7.28637 11.7659L7.26791 11.7475L7.24953 11.7291L7.23121 11.7108L7.21295 11.6925L7.19477 11.6744L7.17666 11.6562L7.15861 11.6382L7.14063 11.6202L7.12273 11.6023L7.10489 11.5845L7.08713 11.5667L7.06944 11.549L7.05181 11.5314L7.03426 11.5138L7.01679 11.4964L6.99938 11.479L6.98205 11.4616L6.96479 11.4444L6.94761 11.4272L6.9305 11.4101L6.91346 11.393L6.8965 11.3761L6.87962 11.3592L6.86281 11.3424L6.84608 11.3257L6.82942 11.309L6.81285 11.2924L6.79635 11.2759L6.77993 11.2595L6.76358 11.2432L6.74732 11.2269L6.73113 11.2107L6.71503 11.1946L6.699 11.1786L6.68306 11.1626L6.66719 11.1468L6.65141 11.131L6.63571 11.1153L6.62009 11.0997L6.60455 11.0841L6.5891 11.0687L6.57373 11.0533L6.55844 11.038L6.54324 11.0228L6.52812 11.0077L6.51309 10.9927L6.49814 10.9777L6.48328 10.9629L6.4685 10.9481L6.45381 10.9334L6.43921 10.9188L6.42469 10.9043L6.41026 10.8898L6.39593 10.8755L6.38167 10.8613L6.36751 10.8471L6.35344 10.833L6.33946 10.819L6.32556 10.8051L6.31176 10.7913L6.29805 10.7776L6.28443 10.764L6.2709 10.7505L6.25746 10.737L6.24412 10.7237L6.23087 10.7105L6.21771 10.6973L6.20465 10.6842L6.19168 10.6713L6.1788 10.6584L6.16602 10.6456L6.15334 10.6329L6.14075 10.6203L6.12826 10.6078L6.11586 10.5954L6.10356 10.5831L6.09136 10.5709L6.07926 10.5588L6.06725 10.5468L6.05535 10.5349L6.04354 10.5231L6.03183 10.5114L6.02022 10.4998L6.00871 10.4883L5.9973 10.4769L5.986 10.4656L5.97479 10.4544L5.96369 10.4433L5.95269 10.4323L5.94179 10.4214L5.93099 10.4106L5.9203 10.3999L5.90971 10.3893L5.89923 10.3788L5.88885 10.3684L5.87857 10.3582L5.86841 10.348L5.85834 10.3379L5.84839 10.328L5.83854 10.3181L5.82879 10.3084L5.81916 10.2987L5.80963 10.2892L5.80021 10.2798L5.7909 10.2705L5.7817 10.2613L5.7726 10.2522L5.76362 10.2432L5.75475 10.2343L5.74599 10.2256L5.73734 10.2169L5.7288 10.2084L5.72037 10.2L5.71206 10.1916L5.70386 10.1834L5.69577 10.1753L5.68779 10.1674L5.67993 10.1595L5.67218 10.1518L5.66455 10.1441L5.65704 10.1366L5.64963 10.1292L5.64235 10.1219L5.63518 10.1148L5.62813 10.1077L5.62119 10.1008L5.61437 10.094L5.60767 10.0873L5.60109 10.0807L5.59463 10.0742L5.58829 10.0679L5.58206 10.0616L5.57596 10.0555L5.56997 10.0496L5.56411 10.0437L5.55837 10.038L5.55275 10.0323L5.54725 10.0268L5.54188 10.0215L5.53662 10.0162L5.53149 10.0111L5.52649 10.0061L5.52161 10.0012L5.51685 9.99643L5.51222 9.9918L5.50771 9.98729L5.50333 9.98291L5.49907 9.97865L5.49494 9.97452L5.49094 9.97052L5.48706 9.96664L5.48331 9.9629L5.4797 9.95928L5.4762 9.95578L5.47284 9.95242L5.46961 9.94919L5.4665 9.94609L5.46353 9.94311L5.46069 9.94027L5.45797 9.93756L5.45539 9.93497L5.45294 9.93253L5.45063 9.93021L5.44844 9.92802L5.44639 9.92597L5.44447 9.92405L5.44269 9.92227L5.44104 9.92062L5.43952 9.9191L5.43814 9.91772L5.43689 9.91647C5.10657 9.58615 5.05039 9.17358 5.07798 8.88116C5.09194 8.73316 5.12801 8.59487 5.1762 8.47507C5.21897 8.36875 5.29302 8.22261 5.41717 8.09846L5.43341 8.08222L5.4506 8.06701C7.06292 6.64091 9.19622 6.41429 10.368 6.48449L10.3706 6.48187L10.3783 6.47418L10.386 6.46647L10.3938 6.45873L10.4015 6.45097L10.4093 6.44318L10.4171 6.43536L10.425 6.42753L10.4328 6.41967L10.4407 6.41178L10.4486 6.40388L10.4565 6.39595L10.4645 6.38799L10.4725 6.38001L10.4805 6.37201L10.4885 6.36399L10.4965 6.35595L10.5046 6.34788L10.5127 6.33979L10.5208 6.33167L10.529 6.32354L10.5371 6.31538L10.5453 6.3072L10.5535 6.299L10.5617 6.29078L10.57 6.28253L10.5782 6.27427L10.5865 6.26598L10.5948 6.25768L10.6031 6.24935L10.6115 6.241L10.6199 6.23263L10.6283 6.22424L10.6367 6.21583L10.6451 6.2074L10.6535 6.19895L10.662 6.19047L10.6705 6.18198L10.679 6.17347L10.6875 6.16495L10.6961 6.1564L10.7047 6.14783L10.7133 6.13924L10.7219 6.13063L10.7305 6.12201L10.7391 6.11337L10.7478 6.1047L10.7565 6.09602L10.7652 6.08733L10.7739 6.07861L10.7826 6.06987L10.7914 6.06112L10.8001 6.05235L10.8089 6.04356L10.8177 6.03476L10.8266 6.02594L10.8354 6.0171L10.8443 6.00824L10.8531 5.99937L10.862 5.99048L10.8709 5.98157L10.8798 5.97265L10.8888 5.96371L10.8977 5.95475L10.9067 5.94578L10.9157 5.9368L10.9247 5.92779L10.9337 5.91877L10.9428 5.90974L10.9518 5.90069L10.9609 5.89163L10.9699 5.88255L10.979 5.87345L10.9881 5.86435L10.9973 5.85522L11.0064 5.84608L11.0156 5.83693L11.0247 5.82777L11.0339 5.81859L11.0431 5.80939L11.0523 5.80018L11.0615 5.79096L11.0708 5.78173L11.08 5.77248L11.0893 5.76322L11.0985 5.75394L11.1078 5.74466L11.1171 5.73536L11.1264 5.72604L11.1358 5.71672L11.1451 5.70738L11.1545 5.69803L11.1638 5.68867L11.1732 5.6793L11.1826 5.66991L11.192 5.66052L11.2014 5.65111L11.2108 5.64169L11.2202 5.63226L11.2297 5.62281L11.2391 5.61336L11.2486 5.6039L11.2581 5.59442L11.2676 5.58494L11.277 5.57544L11.2866 5.56594L11.2961 5.55642L11.3056 5.54689L11.3151 5.53736L11.3247 5.52781L11.3342 5.51826L11.3438 5.5087L11.3534 5.49912L11.363 5.48954L11.3725 5.47995L11.3821 5.47035L11.3918 5.46074L11.4014 5.45112L11.411 5.4415L11.4206 5.43186L11.4303 5.42222L11.4399 5.41257L11.4496 5.40291L11.4592 5.39325L11.4689 5.38357L11.4786 5.37389L11.4883 5.3642L11.498 5.35451L11.5077 5.34481L11.5174 5.3351L11.5271 5.32538L11.5368 5.31566L11.5466 5.30593L11.5563 5.2962L11.566 5.28646L11.5758 5.27671L11.5855 5.26696L11.5953 5.2572L11.6051 5.24743L11.6148 5.23766L11.6246 5.22789L11.6344 5.21811L11.6442 5.20832L11.654 5.19853L11.6638 5.18874L11.6736 5.17894L11.6834 5.16913L11.6932 5.15932L11.703 5.14951L11.7128 5.1397L11.7226 5.12987L11.7324 5.12005L11.7423 5.11022L11.7521 5.10039L11.7619 5.09056L11.7718 5.08072L11.7816 5.07088L11.7915 5.06103L11.8013 5.05119L11.8112 5.04134L11.821 5.03148L11.8309 5.02163L11.8407 5.01177L11.8506 5.00191L11.8604 4.99205L11.8703 4.98219L11.8802 4.97233L11.89 4.96246L11.8999 4.9526L11.9098 4.94273L11.9196 4.93286L11.9295 4.92299L11.9394 4.91312L11.9492 4.90324L11.9591 4.89337L11.969 4.8835L11.9789 4.87363L11.9887 4.86375L11.9986 4.85388L12.0085 4.84401L12.0184 4.83413L12.0282 4.82426L12.0381 4.81439L12.048 4.80452L12.0578 4.79465L12.0677 4.78478L12.0776 4.77491L12.0874 4.76504L12.0973 4.75518L12.1072 4.74532L12.117 4.73545L12.1269 4.72559L12.1368 4.71574L12.1466 4.70588L12.1565 4.69603L12.1663 4.68617L12.1762 4.67632L12.186 4.66648L12.1959 4.65664L12.2057 4.64679L12.2155 4.63696L12.2254 4.62712L12.2352 4.61729L12.245 4.60747L12.2548 4.59764L12.2647 4.58782L12.2745 4.57801L12.2843 4.56819L12.2941 4.55839L12.3039 4.54858L12.3137 4.53879L12.3235 4.52899L12.3333 4.5192L12.3431 4.50942L12.3529 4.49964L12.3626 4.48987L12.3724 4.4801L12.3822 4.47033L12.3919 4.46058L12.4017 4.45082L12.4114 4.44108L12.4212 4.43134L12.4309 4.42161L12.4406 4.41188L12.4503 4.40216L12.46 4.39244L12.4698 4.38274L12.4795 4.37304L12.4891 4.36334L12.4988 4.35366L12.5085 4.34398L12.5182 4.33431L12.5279 4.32464L12.5375 4.31499L12.5472 4.30534L12.5568 4.2957L12.5664 4.28606L12.5761 4.27644L12.5857 4.26682L12.5953 4.25722L12.6049 4.24762L12.6145 4.23803L12.624 4.22845L12.6336 4.21888L12.6432 4.20932L12.6527 4.19977L12.6623 4.19022L12.6718 4.18069L12.6813 4.17117L12.6908 4.16165L12.7003 4.15215L12.7098 4.14266L12.7193 4.13317L12.7288 4.1237L12.7383 4.11424L12.7477 4.10479L12.7571 4.09535L12.7666 4.08592L12.776 4.0765L12.7854 4.0671L12.7948 4.0577L12.8042 4.04832L12.8135 4.03895L12.8229 4.02959L12.8322 4.02025L12.8416 4.01091L12.8509 4.00159L12.8602 3.99228L12.8695 3.98298L12.8788 3.9737L12.8881 3.96443L12.8973 3.95517L12.9066 3.94592L12.9158 3.93669L12.925 3.92747L12.9342 3.91827L12.9434 3.90908L12.9526 3.8999L12.9618 3.89074L12.9709 3.88159L12.98 3.87245L12.9892 3.86333L12.9983 3.85423L13.0074 3.84514L13.0164 3.83606L13.0255 3.827L13.0345 3.81796L13.0436 3.80893L13.0526 3.79991L13.0616 3.79091L13.0706 3.78193L13.0795 3.77296L13.0885 3.76401L13.0974 3.75507L13.1063 3.74615L13.1152 3.73725L13.1241 3.72837L13.133 3.7195L13.1418 3.71064L13.1507 3.70181L13.1595 3.69299L13.1683 3.68419L13.1771 3.67541L13.1859 3.66664L13.1946 3.65789L13.2033 3.64916L13.212 3.64045L13.2207 3.63175L13.2294 3.62308L13.2381 3.61442L13.2467 3.60578L13.2553 3.59716L13.2639 3.58856L13.2725 3.57998L13.2811 3.57141L13.2896 3.56287L13.2981 3.55434L13.3067 3.54584L13.3151 3.53735L13.3236 3.52888L13.3321 3.52044L13.3405 3.51201L13.3489 3.50361L13.3573 3.49522L13.3656 3.48686L13.374 3.47851L13.3823 3.47019L13.3906 3.46189L13.3989 3.4536L13.4071 3.44534L13.4154 3.4371L13.4236 3.42889L13.4318 3.42069L13.44 3.41252L13.4481 3.40436L13.4563 3.39623L13.4644 3.38813L13.4725 3.38004L13.4805 3.37198L13.4886 3.36394L13.4966 3.35592L13.5046 3.34792L13.5125 3.33995L13.5205 3.332L13.5284 3.32408L13.5363 3.31618L13.5442 3.3083L13.552 3.30044L13.5599 3.29261L13.5677 3.28481L13.5755 3.27702L13.5832 3.26926L13.591 3.26153L13.5987 3.25382L13.6064 3.24614L13.614 3.23848L13.6216 3.23084L13.6293 3.22323L13.6368 3.21565L13.6444 3.20809L13.6519 3.20056L13.6594 3.19305L13.6669 3.18557L13.6744 3.17811L13.6818 3.17068L13.6892 3.16328L13.6966 3.1559L13.7039 3.14855L13.7113 3.14123L13.7186 3.13393L13.7258 3.12666L13.7331 3.11941L13.7403 3.1122L13.7475 3.10501L13.7546 3.09785L13.7618 3.09072L13.7689 3.08361L13.776 3.07653L13.783 3.06948L13.79 3.06246L13.797 3.05547L13.804 3.04851L13.8109 3.04157L13.8178 3.03466L13.8247 3.02779L13.8316 3.02094L13.8384 3.01412L13.8452 3.00733L13.8519 3.00057L13.8587 2.99383L13.8654 2.98713L13.872 2.98046L13.8787 2.97382L13.8853 2.96721L13.8919 2.96063L13.8984 2.95408L13.9049 2.94756L13.9114 2.94107L13.9179 2.93461L13.9243 2.92818L13.9307 2.92179L13.9371 2.91542L13.9434 2.90909L13.9497 2.90279L13.956 2.89652L13.9622 2.89028L13.9684 2.88407L13.9746 2.8779L13.9807 2.87176L13.9868 2.86565L13.9929 2.85957L13.999 2.85353L14.005 2.84752L14.011 2.84154L14.0169 2.83559L14.0228 2.82968L14.0287 2.8238L14.0345 2.81796L14.0403 2.81215L14.0461 2.80637L14.0519 2.80063L14.0576 2.79492L14.0633 2.78924L14.0689 2.7836L14.0745 2.77799L14.0801 2.77242L14.0856 2.76689L14.0911 2.76139L14.0966 2.75592L14.102 2.75049L14.1074 2.74509L14.1128 2.73973L14.1181 2.73441L14.1234 2.72912L14.1286 2.72387L14.1338 2.71865L14.139 2.71347L14.1442 2.70832L14.1493 2.70322L14.1543 2.69814L14.1594 2.69311L14.1644 2.68811L14.1693 2.68315L14.1743 2.67823L14.1791 2.67334L14.184 2.6685L14.1888 2.66369L14.1936 2.65891L14.1983 2.65418L14.203 2.64948L14.2077 2.64482L14.2123 2.6402L14.2169 2.63562L14.2214 2.63108L14.2259 2.62657L14.2304 2.62211L14.2348 2.61768L14.2392 2.61329L14.2435 2.60894L14.2479 2.60463L14.2521 2.60036L14.2564 2.59614L14.2605 2.59195L14.2647 2.5878L14.2688 2.58369L14.2729 2.57962L14.2769 2.57559L14.2809 2.5716L14.2848 2.56765L14.2887 2.56375L14.2926 2.55988L14.2964 2.55606L14.3002 2.55227L14.304 2.54853L14.3077 2.54483L14.3113 2.54117L14.3149 2.53756L14.3185 2.53398C14.8224 2.03009 15.4272 1.9321 15.9348 2.02192C16.4054 2.10521 16.7963 2.34525 17.0285 2.54677L17.0485 2.56414L17.0673 2.58289L22.1411 7.65675ZM21.229 9.14035C21.2376 9.07166 21.2372 8.9212 21.0536 8.69057L16.0294 3.66635C15.9482 3.6011 15.8084 3.52286 15.6734 3.49897C15.6094 3.48765 15.5613 3.49105 15.5245 3.5012C15.4917 3.51025 15.4426 3.53126 15.3792 3.59464L15.3756 3.59822L15.372 3.60183L15.3683 3.60549L15.3646 3.60919L15.3609 3.61293L15.3571 3.61672L15.3533 3.62054L15.3494 3.62441L15.3455 3.62831L15.3416 3.63226L15.3376 3.63625L15.3335 3.64028L15.3295 3.64435L15.3254 3.64846L15.3212 3.65261L15.317 3.6568L15.3128 3.66103L15.3085 3.66529L15.3042 3.6696L15.2999 3.67395L15.2955 3.67834L15.291 3.68277L15.2866 3.68723L15.2821 3.69174L15.2775 3.69628L15.273 3.70086L15.2683 3.70548L15.2637 3.71014L15.259 3.71484L15.2542 3.71957L15.2495 3.72435L15.2447 3.72916L15.2398 3.734L15.2349 3.73889L15.23 3.74381L15.225 3.74877L15.22 3.75377L15.215 3.75881L15.2099 3.76388L15.2048 3.76898L15.1997 3.77413L15.1945 3.77931L15.1893 3.78453L15.184 3.78978L15.1787 3.79507L15.1734 3.80039L15.1681 3.80575L15.1627 3.81115L15.1572 3.81658L15.1518 3.82205L15.1463 3.82755L15.1407 3.83308L15.1352 3.83865L15.1296 3.84426L15.1239 3.8499L15.1182 3.85558L15.1125 3.86129L15.1068 3.86703L15.101 3.87281L15.0952 3.87862L15.0894 3.88446L15.0835 3.89034L15.0776 3.89625L15.0716 3.9022L15.0656 3.90818L15.0596 3.91419L15.0536 3.92023L15.0475 3.92631L15.0414 3.93242L15.0353 3.93856L15.0291 3.94473L15.0229 3.95094L15.0166 3.95718L15.0104 3.96345L15.0041 3.96975L14.9977 3.97608L14.9914 3.98245L14.985 3.98884L14.9785 3.99527L14.9721 4.00173L14.9656 4.00822L14.9591 4.01474L14.9525 4.02129L14.9459 4.02787L14.9393 4.03448L14.9327 4.04112L14.926 4.04779L14.9193 4.05449L14.9126 4.06123L14.9058 4.06799L14.899 4.07478L14.8922 4.0816L14.8854 4.08845L14.8785 4.09532L14.8716 4.10223L14.8646 4.10917L14.8577 4.11613L14.8507 4.12312L14.8437 4.13014L14.8366 4.13719L14.8295 4.14427L14.8224 4.15138L14.8153 4.15851L14.8081 4.16567L14.801 4.17286L14.7937 4.18008L14.7865 4.18732L14.7792 4.19459L14.7719 4.20189L14.7646 4.20921L14.7573 4.21656L14.7499 4.22394L14.7425 4.23134L14.735 4.23877L14.7276 4.24623L14.7201 4.25371L14.7126 4.26122L14.7051 4.26875L14.6975 4.27631L14.6899 4.28389L14.6823 4.2915L14.6747 4.29914L14.667 4.3068L14.6593 4.31448L14.6516 4.32219L14.6439 4.32992L14.6361 4.33768L14.6283 4.34547L14.6205 4.35327L14.6127 4.3611L14.6049 4.36896L14.597 4.37684L14.5891 4.38474L14.5811 4.39266L14.5732 4.40061L14.5652 4.40858L14.5572 4.41658L14.5492 4.4246L14.5412 4.43264L14.5331 4.4407L14.525 4.44879L14.5169 4.45689L14.5088 4.46502L14.5006 4.47318L14.4925 4.48135L14.4843 4.48955L14.476 4.49776L14.4678 4.506L14.4595 4.51426L14.4513 4.52255L14.443 4.53085L14.4346 4.53917L14.4263 4.54752L14.4179 4.55588L14.4095 4.56427L14.4011 4.57267L14.3927 4.5811L14.3843 4.58954L14.3758 4.59801L14.3673 4.6065L14.3588 4.615L14.3503 4.62353L14.3417 4.63207L14.3332 4.64064L14.3246 4.64922L14.316 4.65782L14.3074 4.66644L14.2987 4.67508L14.2901 4.68374L14.2814 4.69241L14.2727 4.70111L14.264 4.70982L14.2553 4.71855L14.2465 4.7273L14.2377 4.73607L14.229 4.74485L14.2202 4.75365L14.2113 4.76247L14.2025 4.7713L14.1937 4.78016L14.1848 4.78903L14.1759 4.79791L14.167 4.80682L14.1581 4.81573L14.1491 4.82467L14.1402 4.83362L14.1312 4.84259L14.1222 4.85157L14.1132 4.86057L14.1042 4.86959L14.0952 4.87862L14.0862 4.88766L14.0771 4.89672L14.068 4.9058L14.0589 4.91489L14.0498 4.92399L14.0407 4.93311L14.0316 4.94225L14.0224 4.9514L14.0133 4.96056L14.0041 4.96974L13.9949 4.97893L13.9857 4.98813L13.9765 4.99735L13.9672 5.00658L13.958 5.01583L13.9487 5.02509L13.9395 5.03436L13.9302 5.04364L13.9209 5.05294L13.9116 5.06225L13.9022 5.07157L13.8929 5.08091L13.8836 5.09025L13.8742 5.09961L13.8648 5.10898L13.8554 5.11836L13.8461 5.12776L13.8366 5.13716L13.8272 5.14658L13.8178 5.15601L13.8084 5.16545L13.7989 5.1749L13.7894 5.18436L13.78 5.19383L13.7705 5.20332L13.761 5.21281L13.7515 5.22231L13.742 5.23183L13.7325 5.24135L13.7229 5.25088L13.7134 5.26043L13.7038 5.26998L13.6943 5.27954L13.6847 5.28911L13.6751 5.29869L13.6655 5.30828L13.6559 5.31788L13.6463 5.32749L13.6367 5.3371L13.6271 5.34672L13.6175 5.35636L13.6078 5.366L13.5982 5.37565L13.5885 5.3853L13.5788 5.39497L13.5692 5.40464L13.5595 5.41432L13.5498 5.424L13.5401 5.4337L13.5304 5.4434L13.5207 5.4531L13.511 5.46282L13.5013 5.47254L13.4915 5.48227L13.4818 5.492L13.4721 5.50174L13.4623 5.51148L13.4526 5.52124L13.4428 5.53099L13.4331 5.54076L13.4233 5.55053L13.4135 5.5603L13.4037 5.57008L13.3939 5.57986L13.3842 5.58965L13.3744 5.59945L13.3646 5.60924L13.3548 5.61905L13.345 5.62885L13.3351 5.63867L13.3253 5.64848L13.3155 5.6583L13.3057 5.66813L13.2959 5.67795L13.286 5.68778L13.2762 5.69762L13.2664 5.70745L13.2565 5.7173L13.2467 5.72714L13.2368 5.73698L13.227 5.74683L13.2171 5.75669L13.2073 5.76654L13.1974 5.7764L13.1876 5.78625L13.1777 5.79611L13.1678 5.80598L13.158 5.81584L13.1481 5.8257L13.1382 5.83557L13.1284 5.84544L13.1185 5.85531L13.1086 5.86518L13.0988 5.87505L13.0889 5.88492L13.079 5.89479L13.0691 5.90467L13.0593 5.91454L13.0494 5.92441L13.0395 5.93429L13.0297 5.94416L13.0198 5.95403L13.0099 5.9639L13 5.97378L12.9902 5.98365L12.9803 5.99352L12.9704 6.00339L12.9606 6.01326L12.9507 6.02312L12.9408 6.03299L12.931 6.04285L12.9211 6.05271L12.9112 6.06258L12.9014 6.07243L12.8915 6.08229L12.8817 6.09214L12.8718 6.102L12.862 6.11185L12.8521 6.12169L12.8423 6.13154L12.8324 6.14138L12.8226 6.15122L12.8128 6.16105L12.8029 6.17088L12.7931 6.18071L12.7833 6.19053L12.7735 6.20036L12.7636 6.21017L12.7538 6.21998L12.744 6.22979L12.7342 6.2396L12.7244 6.2494L12.7146 6.25919L12.7048 6.26898L12.695 6.27877L12.6853 6.28855L12.6755 6.29832L12.6657 6.30809L12.656 6.31786L12.6462 6.32762L12.6364 6.33737L12.6267 6.34712L12.617 6.35686L12.6072 6.36659L12.5975 6.37632L12.5878 6.38604L12.5781 6.39576L12.5683 6.40547L12.5586 6.41517L12.5489 6.42486L12.5393 6.43455L12.5296 6.44423L12.5199 6.45391L12.5102 6.46357L12.5006 6.47323L12.4909 6.48288L12.4813 6.49252L12.4717 6.50216L12.462 6.51178L12.4524 6.5214L12.4428 6.53101L12.4332 6.54061L12.4236 6.5502L12.414 6.55978L12.4045 6.56936L12.3949 6.57892L12.3853 6.58847L12.3758 6.59802L12.3663 6.60756L12.3567 6.61708L12.3472 6.6266L12.3377 6.6361L12.3282 6.6456L12.3187 6.65508L12.3093 6.66456L12.2998 6.67402L12.2903 6.68347L12.2809 6.69292L12.2715 6.70235L12.262 6.71177L12.2526 6.72118L12.2432 6.73057L12.2339 6.73996L12.2245 6.74933L12.2151 6.75869L12.2058 6.76804L12.1964 6.77738L12.1871 6.78671L12.1778 6.79602L12.1685 6.80532L12.1592 6.8146L12.1499 6.82388L12.1407 6.83314L12.1314 6.84239L12.1222 6.85162L12.113 6.86084L12.1038 6.87005L12.0946 6.87925L12.0854 6.88843L12.0762 6.89759L12.0671 6.90675L12.0579 6.91588L12.0488 6.92501L12.0397 6.93411L12.0306 6.94321L12.0215 6.95229L12.0125 6.96135L12.0034 6.9704L11.9944 6.97943L11.9854 6.98845L11.9764 6.99746L11.9674 7.00644L11.9584 7.01541L11.9494 7.02437L11.9405 7.03331L11.9316 7.04223L11.9227 7.05114L11.9138 7.06003L11.9049 7.0689L11.8961 7.07776L11.8872 7.0866L11.8784 7.09542L11.8696 7.10422L11.8608 7.11301L11.852 7.12178L11.8433 7.13053L11.8345 7.13927L11.8258 7.14799L11.8171 7.15668L11.8084 7.16536L11.7998 7.17403L11.7911 7.18267L11.7825 7.19129L11.7739 7.1999L11.7653 7.20849L11.7568 7.21706L11.7482 7.22561L11.7397 7.23413L11.7312 7.24264L11.7227 7.25114L11.7142 7.25961L11.7058 7.26806L11.6973 7.27649L11.6889 7.2849L11.6805 7.29329L11.6722 7.30166L11.6638 7.31001L11.6555 7.31834L11.6472 7.32664L11.6389 7.33493L11.6306 7.34319L11.6224 7.35144L11.6142 7.35966L11.606 7.36786L11.5978 7.37604L11.5896 7.3842L11.5815 7.39233L11.5734 7.40045L11.5653 7.40854L11.5572 7.41661L11.5492 7.42465L11.5411 7.43267L11.5331 7.44067L11.5252 7.44865L11.5172 7.45661L11.5093 7.46454L11.5014 7.47244L11.4935 7.48033L11.4856 7.48819L11.4778 7.49602L11.47 7.50384L11.4622 7.51163L11.4544 7.51939L11.4467 7.52713L11.439 7.53484L11.4313 7.54253L11.4236 7.5502L11.416 7.55784L11.4084 7.56546L11.4008 7.57305L11.3932 7.58061L11.3857 7.58815L11.3781 7.59566L11.3707 7.60315L11.3632 7.61061L11.3558 7.61805L11.3484 7.62546L11.341 7.63284L11.3336 7.6402L11.3263 7.64753L11.319 7.65483L11.3117 7.66211L11.3045 7.66936L11.2972 7.67658L11.29 7.68377L11.2829 7.69094L11.2757 7.69808L11.2686 7.70519L11.2615 7.71228L11.2545 7.71933L11.2475 7.72636L11.2405 7.73336L11.2335 7.74033L11.2265 7.74727L11.2196 7.75419L11.2127 7.76107L11.2059 7.76793L11.1991 7.77475L11.1923 7.78155L11.1855 7.78832L11.1788 7.79506L10.9139 8.05991L10.5431 8.00729C9.79393 7.90099 7.99682 7.98219 6.65686 9.01512L6.66175 9.02001L6.66833 9.0266L6.67503 9.03329L6.68185 9.04011L6.68879 9.04705L6.69584 9.0541L6.70301 9.06127L6.71029 9.06856L6.7177 9.07596L6.72521 9.08347L6.73284 9.09111L6.74059 9.09885L6.74845 9.10671L6.75643 9.11469L6.76452 9.12278L6.77272 9.13098L6.78103 9.13929L6.78946 9.14772L6.798 9.15626L6.80665 9.16491L6.81541 9.17367L6.82428 9.18254L6.83327 9.19153L6.84236 9.20062L6.85156 9.20982L6.86087 9.21913L6.87029 9.22855L6.87982 9.23808L6.88945 9.24771L6.8992 9.25746L6.90905 9.26731L6.919 9.27726L6.92907 9.28733L6.93923 9.29749L6.94951 9.30777L6.95989 9.31815L6.97037 9.32863L6.98096 9.33922L6.99165 9.34991L7.00245 9.36071L7.01335 9.37161L7.02435 9.38261L7.03545 9.39371L7.04666 9.40492L7.05797 9.41623L7.06937 9.42763L7.08088 9.43914L7.09249 9.45075L7.1042 9.46246L7.11601 9.47427L7.12791 9.48617L7.13992 9.49818L7.15202 9.51028L7.16422 9.52248L7.17652 9.53478L7.18892 9.54718L7.20141 9.55967L7.214 9.57226L7.22668 9.58495L7.23946 9.59773L7.25234 9.6106L7.26531 9.62357L7.27837 9.63663L7.29153 9.64979L7.30478 9.66304L7.31812 9.67639L7.33156 9.68982L7.34509 9.70335L7.35871 9.71697L7.37242 9.73068L7.38622 9.74448L7.40012 9.75838L7.4141 9.77236L7.42817 9.78643L7.44233 9.80059L7.45659 9.81485L7.47092 9.82919L7.48535 9.84361L7.49987 9.85813L7.51447 9.87273L7.52916 9.88742L7.54394 9.9022L7.5588 9.91706L7.57375 9.93201L7.58878 9.94704L7.6039 9.96216L7.6191 9.97736L7.63439 9.99265L7.64976 10.008L7.66521 10.0235L7.68075 10.039L7.69637 10.0546L7.71207 10.0703L7.72785 10.0861L7.74372 10.102L7.75966 10.1179L7.77569 10.1339L7.79179 10.1501L7.80798 10.1662L7.82424 10.1825L7.84059 10.1988L7.85701 10.2153L7.87351 10.2318L7.89008 10.2483L7.90674 10.265L7.92347 10.2817L7.94028 10.2985L7.95716 10.3154L7.97412 10.3324L7.99116 10.3494L8.00827 10.3665L8.02545 10.3837L8.04271 10.401L8.06004 10.4183L8.07745 10.4357L8.09492 10.4532L8.11247 10.4707L8.1301 10.4884L8.14779 10.506L8.16555 10.5238L8.18339 10.5416L8.2013 10.5596L8.21927 10.5775L8.23732 10.5956L8.25543 10.6137L8.27362 10.6319L8.29187 10.6501L8.31019 10.6684L8.32857 10.6868L8.34703 10.7053L8.36555 10.7238L8.38414 10.7424L8.40279 10.7611L8.42151 10.7798L8.44029 10.7986L8.45914 10.8174L8.47806 10.8363L8.49703 10.8553L8.51608 10.8743L8.53518 10.8934L8.55435 10.9126L8.57358 10.9318L8.59287 10.9511L8.61222 10.9705L8.63163 10.9899L8.65111 11.0094L8.67064 11.0289L8.69023 11.0485L8.70989 11.0681L8.7296 11.0879L8.74937 11.1076L8.7692 11.1275L8.78909 11.1474L8.80904 11.1673L8.82904 11.1873L8.8491 11.2074L8.86921 11.2275L8.88939 11.2476L8.90961 11.2679L8.92989 11.2882L8.95023 11.3085L8.97062 11.3289L8.99107 11.3493L9.01156 11.3698L9.03211 11.3904L9.05272 11.411L9.07337 11.4316L9.09408 11.4523L9.11484 11.4731L9.13565 11.4939L9.15651 11.5148L9.17742 11.5357L9.19838 11.5566L9.2194 11.5777L9.24045 11.5987L9.26156 11.6198L9.28272 11.641L9.30392 11.6622L9.32517 11.6834L9.34647 11.7047L9.36782 11.7261L9.38921 11.7475L9.41065 11.7689L9.43213 11.7904L9.45366 11.8119L9.47523 11.8335L9.49684 11.8551L9.5185 11.8768L9.54021 11.8985L9.56195 11.9202L9.58374 11.942L9.60557 11.9638L9.62745 11.9857L9.64936 12.0076L9.67131 12.0296L9.69331 12.0516L9.71535 12.0736L9.73742 12.0957L9.75954 12.1178L9.78169 12.14L9.80388 12.1621L9.82611 12.1844L9.84838 12.2066L9.87069 12.2289L9.89303 12.2513L9.91541 12.2737L9.93782 12.2961L9.96027 12.3185L9.98276 12.341L10.0053 12.3635L10.0278 12.3861L10.0504 12.4087L10.073 12.4313L10.0957 12.454L10.1184 12.4767L10.1411 12.4994L10.1639 12.5221L10.1867 12.5449L10.2095 12.5677L10.2323 12.5906L10.2552 12.6135L10.2781 12.6364L10.301 12.6593L10.324 12.6823L10.347 12.7053L10.37 12.7283L10.3931 12.7513L10.4162 12.7744L10.4393 12.7975L10.4624 12.8207L10.4856 12.8438L10.5088 12.867L10.532 12.8902L10.5552 12.9135L10.5785 12.9367L10.6018 12.96L10.6251 12.9833L10.6484 13.0067L10.6718 13.03L10.6951 13.0534L10.7185 13.0768L10.742 13.1002L10.7654 13.1237L10.7889 13.1471L10.8124 13.1706L10.8359 13.1941L10.8594 13.2177L10.883 13.2412L10.9065 13.2648L10.9301 13.2884L10.9537 13.312L10.9773 13.3356L11.001 13.3592L11.0246 13.3829L11.0483 13.4066L11.072 13.4303L11.0957 13.454L11.1194 13.4777L11.1432 13.5014L11.1669 13.5252L11.1907 13.5489L11.2145 13.5727L11.2383 13.5965L11.2621 13.6203L11.2859 13.6441L11.3097 13.668L11.3336 13.6918L11.3574 13.7157L11.3813 13.7395L11.4052 13.7634L11.4291 13.7873L11.4529 13.8112L11.4769 13.8351L11.5008 13.859L11.5247 13.883L11.5486 13.9069L11.5726 13.9308L11.5965 13.9548L11.6205 13.9787L11.6444 14.0027L11.6684 14.0267L11.6924 14.0506L11.7164 14.0746L11.7403 14.0986L11.7643 14.1226L11.7883 14.1466L11.8123 14.1706L11.8363 14.1946L11.8603 14.2186L11.8843 14.2426L11.9083 14.2666L11.9324 14.2906L11.9564 14.3146L11.9804 14.3386L12.0044 14.3627L12.0284 14.3867L12.0524 14.4107L12.0764 14.4347L12.1005 14.4587L12.1245 14.4827L12.1485 14.5067L12.1725 14.5307L12.1965 14.5547L12.2205 14.5788L12.2445 14.6028L12.2685 14.6267L12.2925 14.6507L12.3165 14.6747L12.3404 14.6987L12.3644 14.7227L12.3884 14.7466L12.4123 14.7706L12.4363 14.7946L12.4603 14.8185L12.4842 14.8425L12.5081 14.8664L12.5321 14.8903L12.556 14.9142L12.5799 14.9381L12.6038 14.962L12.6277 14.9859L12.6516 15.0098L12.6754 15.0337L12.6993 15.0575L12.7231 15.0814L12.747 15.1052L12.7708 15.129L12.7946 15.1528L12.8184 15.1766L12.8422 15.2004L12.8659 15.2242L12.8897 15.248L12.9134 15.2717L12.9372 15.2954L12.9609 15.3191L12.9846 15.3428L13.0082 15.3665L13.0319 15.3902L13.0555 15.4138L13.0792 15.4374L13.1028 15.461L13.1264 15.4846L13.1499 15.5082L13.1735 15.5317L13.197 15.5553L13.2205 15.5788L13.244 15.6023L13.2675 15.6257L13.2909 15.6492L13.3144 15.6726L13.3378 15.696L13.3612 15.7194L13.3845 15.7428L13.4079 15.7661L13.4312 15.7894L13.4545 15.8127L13.4777 15.836L13.501 15.8592L13.5242 15.8824L13.5474 15.9056L13.5705 15.9288L13.5937 15.9519L13.6168 15.9751L13.6399 15.9981L13.6629 16.0212L13.686 16.0442L13.709 16.0672L13.7319 16.0902L13.7549 16.1131L13.7778 16.136L13.8007 16.1589L13.8235 16.1818L13.8463 16.2046L13.8691 16.2274L13.8919 16.2502L13.9146 16.2729L13.9373 16.2956L13.96 16.3182L13.9826 16.3409L14.0052 16.3635L14.0278 16.386L14.0503 16.4085L14.0728 16.431L14.0952 16.4535L14.1177 16.4759L14.14 16.4983L14.1624 16.5206L14.1847 16.543L14.207 16.5652L14.2292 16.5875L14.2514 16.6097L14.2736 16.6318L14.2957 16.6539L14.3178 16.676L14.3398 16.6981L14.3618 16.7201L14.3838 16.742L14.4057 16.764L14.4276 16.7858L14.4494 16.8077L14.4712 16.8295L14.493 16.8512L14.5147 16.8729L14.5363 16.8946L14.558 16.9162L14.5795 16.9378L14.6011 16.9593L14.6226 16.9808L14.644 17.0023L14.6654 17.0237L14.6868 17.045L14.7081 17.0663L14.7293 17.0876L14.7505 17.1088L14.7717 17.1299L14.7928 17.1511L14.8139 17.1721L14.8349 17.1931L14.8559 17.2141L14.8768 17.235L14.8976 17.2559L14.9185 17.2767L14.9392 17.2975L14.9599 17.3182L14.9806 17.3389L15.0012 17.3595L15.0218 17.38L15.0423 17.4005L15.0627 17.421L15.0831 17.4414L15.1035 17.4617L15.1238 17.482L15.144 17.5023L15.1642 17.5224L15.1843 17.5426L15.2044 17.5626L15.2244 17.5827L15.2443 17.6026L15.2642 17.6225L15.2841 17.6423L15.3039 17.6621L15.3236 17.6818L15.3432 17.7015L15.3628 17.7211L15.3824 17.7407L15.4019 17.7601L15.4213 17.7796L15.4407 17.7989L15.46 17.8182L15.4792 17.8375L15.4984 17.8566L15.5175 17.8757L15.5365 17.8948L15.5555 17.9138L15.5744 17.9327L15.5933 17.9516L15.6121 17.9704L15.6308 17.9891L15.6495 18.0078L15.6681 18.0264L15.6866 18.0449L15.7051 18.0633L15.7117 18.07C16.1091 17.5322 16.9278 16.1937 16.7134 14.154L16.676 13.7982L16.929 13.5453L21.1294 9.34484L21.1376 9.33663L21.146 9.32868C21.1455 9.32922 21.1509 9.32405 21.1598 9.31236C21.1685 9.30098 21.1785 9.2859 21.1882 9.2676C21.2079 9.23068 21.2231 9.18742 21.229 9.14035Z" fill="#F5F5F5"/>
</g>
<defs>
<clipPath id="clip0_829_6861">
<rect width="24" height="24" fill="white"/>
</clipPath>
</defs>
</svg>
