<svg width="12" height="13" viewBox="0 0 12 13" fill="none" xmlns="http://www.w3.org/2000/svg">
<path d="M10.435 9.125L9.08004 6.785C9.35731 6.27575 9.50176 5.70484 9.50004 5.125C9.50004 4.19674 9.13129 3.3065 8.47491 2.65013C7.81853 1.99375 6.92829 1.625 6.00004 1.625C5.07178 1.625 4.18154 1.99375 3.52516 2.65013C2.86879 3.3065 2.50004 4.19674 2.50004 5.125C2.49831 5.70484 2.64276 6.27575 2.92004 6.785L1.56504 9.125C1.52107 9.20116 1.49796 9.28756 1.49805 9.3755C1.49813 9.46344 1.52141 9.54979 1.56553 9.62586C1.60965 9.70193 1.67305 9.76502 1.74934 9.80876C1.82563 9.8525 1.9121 9.87535 2.00004 9.875H3.43504L4.16504 11.105C4.18965 11.1458 4.21995 11.1828 4.25504 11.215C4.34773 11.3043 4.4713 11.3545 4.60004 11.355H4.67004C4.74552 11.3447 4.81765 11.3172 4.88091 11.2748C4.94417 11.2323 4.99688 11.1759 5.03504 11.11L6.00004 9.45L6.96504 11.125C7.00375 11.19 7.05672 11.2454 7.11994 11.287C7.18317 11.3285 7.255 11.3552 7.33004 11.365H7.40004C7.5305 11.3658 7.6561 11.3155 7.75004 11.225C7.78367 11.1946 7.81234 11.1592 7.83504 11.12L8.56504 9.89H10C10.0881 9.89035 10.1748 9.86741 10.2512 9.82351C10.3276 9.77961 10.391 9.7163 10.435 9.64C10.4818 9.56223 10.5064 9.47322 10.5064 9.3825C10.5064 9.29178 10.4818 9.20277 10.435 9.125ZM4.59504 9.89L4.15004 9.145C4.10622 9.07109 4.04409 9.00971 3.96965 8.9668C3.8952 8.92388 3.81096 8.90088 3.72504 8.9H2.86004L3.57504 7.66C4.0674 8.13444 4.68795 8.45427 5.36004 8.58L4.59504 9.89ZM6.00004 7.625C5.50558 7.625 5.02223 7.47838 4.61111 7.20367C4.19999 6.92897 3.87956 6.53852 3.69034 6.08171C3.50112 5.62489 3.45161 5.12223 3.54807 4.63727C3.64454 4.15232 3.88264 3.70686 4.23227 3.35723C4.5819 3.0076 5.02736 2.7695 5.51231 2.67304C5.99726 2.57657 6.49993 2.62608 6.95675 2.8153C7.41356 3.00452 7.80401 3.32495 8.07871 3.73607C8.35341 4.1472 8.50004 4.63055 8.50004 5.125C8.50004 5.78804 8.23664 6.42393 7.7678 6.89277C7.29896 7.36161 6.66308 7.625 6.00004 7.625ZM8.27504 8.9C8.18911 8.90088 8.10487 8.92388 8.03043 8.9668C7.95598 9.00971 7.89385 9.07109 7.85004 9.145L7.40504 9.89L6.64504 8.565C7.31478 8.4367 7.93302 8.11716 8.42504 7.645L9.14004 8.885L8.27504 8.9Z" fill="#292929"/>
</svg>
