<svg width="24" height="24" viewBox="0 0 24 24" fill="none" xmlns="http://www.w3.org/2000/svg">
<path fill-rule="evenodd" clip-rule="evenodd" d="M10.8 4.20164C9.0496 4.20164 7.37086 4.89699 6.13312 6.13473C4.89538 7.37247 4.20002 9.05121 4.20002 10.8016C4.20002 12.5521 4.89538 14.2308 6.13312 15.4685C7.37086 16.7063 9.0496 17.4016 10.8 17.4016C12.5505 17.4016 14.2292 16.7063 15.4669 15.4685C16.7047 14.2308 17.4 12.5521 17.4 10.8016C17.4 9.05121 16.7047 7.37247 15.4669 6.13473C14.2292 4.89699 12.5505 4.20164 10.8 4.20164ZM2.40002 10.8016C2.40014 9.45844 2.72236 8.13486 3.33966 6.94191C3.95696 5.74897 4.85134 4.72145 5.94777 3.94555C7.0442 3.16966 8.31071 2.668 9.64106 2.48268C10.9714 2.29736 12.3268 2.43377 13.5935 2.88046C14.8603 3.32716 16.0014 4.07112 16.9213 5.04994C17.8411 6.02875 18.5128 7.21388 18.88 8.50591C19.2472 9.79793 19.2992 11.1592 19.0317 12.4755C18.7642 13.7917 18.1849 15.0247 17.3424 16.0708L21.336 20.0656C21.4244 20.148 21.4954 20.2474 21.5446 20.3578C21.5938 20.4682 21.6202 20.5874 21.6223 20.7082C21.6245 20.8291 21.6022 20.9491 21.557 21.0612C21.5117 21.1732 21.4443 21.275 21.3589 21.3605C21.2734 21.4459 21.1716 21.5133 21.0595 21.5586C20.9475 21.6038 20.8274 21.6261 20.7066 21.6239C20.5858 21.6218 20.4666 21.5954 20.3562 21.5462C20.2458 21.497 20.1464 21.4261 20.064 21.3376L16.0692 17.344C14.8351 18.3381 13.3449 18.9628 11.7708 19.1459C10.1968 19.3291 8.60297 19.0632 7.17356 18.3791C5.74415 17.6949 4.53743 16.6204 3.69275 15.2796C2.84808 13.9387 2.39992 12.3863 2.40002 10.8016Z" fill="#F5F5F5"/>
</svg>
