<svg width="286" height="157" viewBox="0 0 286 157" fill="none" xmlns="http://www.w3.org/2000/svg">
<rect x="83.573" y="2.76562" width="182.931" height="34" rx="5" transform="rotate(-0.728327 83.573 2.76562)" fill="#00AD45"/>
<rect x="0.450439" y="42.1289" width="115.809" height="34" rx="5" transform="rotate(-1.1338 0.450439 42.1289)" fill="#FF7A00"/>
<rect x="50.814" y="121.411" width="189.214" height="34" rx="5" transform="rotate(-1.03322 50.814 121.411)" fill="#BD00FF"/>
<rect x="167.838" y="82.3291" width="113.585" height="34" rx="5" transform="rotate(-0.947668 167.838 82.3291)" fill="#BD00FF"/>
<path d="M40.4283 12.096H32.5883V16.744H40.2043V20.44H32.5883V28H28.7243V8.4H40.4283V12.096ZM44.8678 12.32C44.2705 12.32 43.7478 12.1053 43.2998 11.676C42.8705 11.228 42.6558 10.7053 42.6558 10.108C42.6558 9.51067 42.8705 8.988 43.2998 8.54C43.7478 8.092 44.2705 7.868 44.8678 7.868C45.4838 7.868 46.0065 8.092 46.4358 8.54C46.8838 8.988 47.1078 9.51067 47.1078 10.108C47.1078 10.7053 46.8838 11.228 46.4358 11.676C46.0065 12.1053 45.4838 12.32 44.8678 12.32ZM43.0758 28V14H46.6878V28H43.0758ZM57.7778 13.608C59.3085 13.608 60.5685 14.1213 61.5578 15.148C62.5658 16.1747 63.0698 17.5933 63.0698 19.404V28H59.4578V19.852C59.4578 18.9187 59.2058 18.2093 58.7018 17.724C58.1978 17.22 57.5258 16.968 56.6858 16.968C55.7525 16.968 55.0058 17.2573 54.4458 17.836C53.8858 18.4147 53.6058 19.2827 53.6058 20.44V28H49.9938V14H53.6058V15.568C54.4831 14.2613 55.8738 13.608 57.7778 13.608ZM76.766 8.4H80.378V28H76.766V26.348C75.702 27.7107 74.19 28.392 72.23 28.392C70.3446 28.392 68.73 27.6827 67.386 26.264C66.0606 24.8267 65.398 23.072 65.398 21C65.398 18.928 66.0606 17.1827 67.386 15.764C68.73 14.3267 70.3446 13.608 72.23 13.608C74.19 13.608 75.702 14.2893 76.766 15.652V8.4ZM70.102 23.856C70.8486 24.584 71.782 24.948 72.902 24.948C74.022 24.948 74.946 24.584 75.674 23.856C76.402 23.1093 76.766 22.1573 76.766 21C76.766 19.8427 76.402 18.9 75.674 18.172C74.946 17.4253 74.022 17.052 72.902 17.052C71.782 17.052 70.8486 17.4253 70.102 18.172C69.374 18.9 69.01 19.8427 69.01 21C69.01 22.1573 69.374 23.1093 70.102 23.856ZM103.813 8.4V12.096H98.5213V28H94.6573V12.096H89.3933V8.4H103.813ZM115.187 26.264C113.75 27.6827 111.995 28.392 109.923 28.392C107.851 28.392 106.097 27.6827 104.659 26.264C103.241 24.8267 102.531 23.072 102.531 21C102.531 18.928 103.241 17.1827 104.659 15.764C106.097 14.3267 107.851 13.608 109.923 13.608C111.995 13.608 113.75 14.3267 115.187 15.764C116.625 17.1827 117.343 18.928 117.343 21C117.343 23.072 116.625 24.8267 115.187 26.264ZM107.207 23.772C107.935 24.5 108.841 24.864 109.923 24.864C111.006 24.864 111.911 24.5 112.639 23.772C113.367 23.044 113.731 22.12 113.731 21C113.731 19.88 113.367 18.956 112.639 18.228C111.911 17.5 111.006 17.136 109.923 17.136C108.841 17.136 107.935 17.5 107.207 18.228C106.498 18.956 106.143 19.88 106.143 21C106.143 22.12 106.498 23.044 107.207 23.772ZM129.124 14H132.736V28H129.124V26.432C128.247 27.7387 126.856 28.392 124.952 28.392C123.422 28.392 122.152 27.8787 121.144 26.852C120.155 25.8253 119.66 24.4067 119.66 22.596V14H123.272V22.148C123.272 23.0813 123.524 23.8 124.028 24.304C124.532 24.7893 125.204 25.032 126.044 25.032C126.978 25.032 127.724 24.7427 128.284 24.164C128.844 23.5853 129.124 22.7173 129.124 21.56V14ZM139.657 16.408C139.993 15.512 140.543 14.84 141.309 14.392C142.093 13.944 142.961 13.72 143.913 13.72V17.752C142.811 17.6213 141.822 17.8453 140.945 18.424C140.086 19.0027 139.657 19.964 139.657 21.308V28H136.045V14H139.657V16.408ZM153.809 13.608C155.34 13.608 156.6 14.1213 157.589 15.148C158.597 16.1747 159.101 17.5933 159.101 19.404V28H155.489V19.852C155.489 18.9187 155.237 18.2093 154.733 17.724C154.229 17.22 153.557 16.968 152.717 16.968C151.784 16.968 151.037 17.2573 150.477 17.836C149.917 18.4147 149.637 19.2827 149.637 20.44V28H146.025V14H149.637V15.568C150.514 14.2613 151.905 13.608 153.809 13.608ZM172.825 14H176.437V28H172.825V26.348C171.743 27.7107 170.221 28.392 168.261 28.392C166.395 28.392 164.789 27.6827 163.445 26.264C162.12 24.8267 161.457 23.072 161.457 21C161.457 18.928 162.12 17.1827 163.445 15.764C164.789 14.3267 166.395 13.608 168.261 13.608C170.221 13.608 171.743 14.2893 172.825 15.652V14ZM166.161 23.856C166.889 24.584 167.813 24.948 168.933 24.948C170.053 24.948 170.977 24.584 171.705 23.856C172.452 23.1093 172.825 22.1573 172.825 21C172.825 19.8427 172.452 18.9 171.705 18.172C170.977 17.4253 170.053 17.052 168.933 17.052C167.813 17.052 166.889 17.4253 166.161 18.172C165.433 18.9 165.069 19.8427 165.069 21C165.069 22.1573 165.433 23.1093 166.161 23.856ZM195.197 13.608C196.802 13.608 198.081 14.1307 199.033 15.176C200.003 16.2213 200.489 17.6213 200.489 19.376V28H196.877V19.628C196.877 18.788 196.671 18.1347 196.261 17.668C195.85 17.2013 195.271 16.968 194.525 16.968C193.703 16.968 193.059 17.2387 192.593 17.78C192.145 18.3213 191.921 19.1053 191.921 20.132V28H188.309V19.628C188.309 18.788 188.103 18.1347 187.693 17.668C187.282 17.2013 186.703 16.968 185.957 16.968C185.154 16.968 184.51 17.2387 184.025 17.78C183.558 18.3213 183.325 19.1053 183.325 20.132V28H179.713V14H183.325V15.484C184.165 14.2333 185.462 13.608 187.217 13.608C188.934 13.608 190.203 14.28 191.025 15.624C191.958 14.28 193.349 13.608 195.197 13.608ZM206.608 22.484C207.094 24.2387 208.41 25.116 210.556 25.116C211.938 25.116 212.983 24.6493 213.692 23.716L216.604 25.396C215.223 27.3933 213.188 28.392 210.5 28.392C208.186 28.392 206.328 27.692 204.928 26.292C203.528 24.892 202.828 23.128 202.828 21C202.828 18.8907 203.519 17.136 204.9 15.736C206.282 14.3173 208.055 13.608 210.22 13.608C212.274 13.608 213.963 14.3173 215.288 15.736C216.632 17.1547 217.304 18.9093 217.304 21C217.304 21.4667 217.258 21.9613 217.164 22.484H206.608ZM206.552 19.684H213.692C213.487 18.732 213.058 18.0227 212.404 17.556C211.77 17.0893 211.042 16.856 210.22 16.856C209.25 16.856 208.447 17.108 207.812 17.612C207.178 18.0973 206.758 18.788 206.552 19.684ZM227.61 13.608C229.14 13.608 230.4 14.1213 231.39 15.148C232.398 16.1747 232.902 17.5933 232.902 19.404V28H229.29V19.852C229.29 18.9187 229.038 18.2093 228.534 17.724C228.03 17.22 227.358 16.968 226.518 16.968C225.584 16.968 224.838 17.2573 224.278 17.836C223.718 18.4147 223.438 19.2827 223.438 20.44V28H219.826V14H223.438V15.568C224.315 14.2613 225.706 13.608 227.61 13.608ZM243.994 17.472H240.83V23.296C240.83 23.7813 240.951 24.136 241.194 24.36C241.437 24.584 241.791 24.7147 242.258 24.752C242.725 24.7707 243.303 24.7613 243.994 24.724V28C241.511 28.28 239.757 28.0467 238.73 27.3C237.722 26.5533 237.218 25.2187 237.218 23.296V17.472H234.782V14H237.218V11.172L240.83 10.08V14H243.994V17.472ZM249.572 17.976C249.572 18.3493 249.815 18.6573 250.3 18.9C250.804 19.124 251.411 19.3293 252.12 19.516C252.829 19.684 253.539 19.908 254.248 20.188C254.957 20.4493 255.555 20.8973 256.04 21.532C256.544 22.1667 256.796 22.96 256.796 23.912C256.796 25.3493 256.255 26.46 255.172 27.244C254.108 28.0093 252.773 28.392 251.168 28.392C248.293 28.392 246.333 27.2813 245.288 25.06L248.424 23.296C248.835 24.5093 249.749 25.116 251.168 25.116C252.456 25.116 253.1 24.7147 253.1 23.912C253.1 23.5387 252.848 23.24 252.344 23.016C251.859 22.7733 251.261 22.5587 250.552 22.372C249.843 22.1853 249.133 21.952 248.424 21.672C247.715 21.392 247.108 20.9533 246.604 20.356C246.119 19.74 245.876 18.9747 245.876 18.06C245.876 16.6787 246.38 15.596 247.388 14.812C248.415 14.0093 249.684 13.608 251.196 13.608C252.335 13.608 253.371 13.8693 254.304 14.392C255.237 14.896 255.975 15.624 256.516 16.576L253.436 18.256C252.988 17.304 252.241 16.828 251.196 16.828C250.729 16.828 250.337 16.9307 250.02 17.136C249.721 17.3413 249.572 17.6213 249.572 17.976ZM263.715 24.136L261.615 31.92H258.675L259.795 24.136H263.715ZM19.5838 47.4H23.4478V67H20.5078L12.1078 55.016V67H8.24383V47.4H11.1838L19.5838 59.356V47.4ZM29.9677 61.484C30.453 63.2387 31.769 64.116 33.9157 64.116C35.297 64.116 36.3423 63.6493 37.0517 62.716L39.9637 64.396C38.5823 66.3933 36.5477 67.392 33.8597 67.392C31.545 67.392 29.6877 66.692 28.2877 65.292C26.8877 63.892 26.1877 62.128 26.1877 60C26.1877 57.8907 26.8783 56.136 28.2597 54.736C29.641 53.3173 31.4143 52.608 33.5797 52.608C35.633 52.608 37.3223 53.3173 38.6477 54.736C39.9917 56.1547 40.6637 57.9093 40.6637 60C40.6637 60.4667 40.617 60.9613 40.5237 61.484H29.9677ZM29.9117 58.684H37.0517C36.8463 57.732 36.417 57.0227 35.7637 56.556C35.129 56.0893 34.401 55.856 33.5797 55.856C32.609 55.856 31.8063 56.108 31.1717 56.612C30.537 57.0973 30.117 57.788 29.9117 58.684ZM50.783 56.472H47.619V62.296C47.619 62.7813 47.7404 63.136 47.983 63.36C48.2257 63.584 48.5804 63.7147 49.047 63.752C49.5137 63.7707 50.0924 63.7613 50.783 63.724V67C48.3004 67.28 46.5457 67.0467 45.519 66.3C44.511 65.5533 44.007 64.2187 44.007 62.296V56.472H41.571V53H44.007V50.172L47.619 49.08V53H50.783V56.472ZM69.3125 53H73.1485L68.6965 67H65.2525L62.6765 58.516L60.1005 67H56.6565L52.2045 53H56.0405L58.4205 61.596L60.9685 53H64.3845L66.9325 61.624L69.3125 53ZM86.4765 65.264C85.0392 66.6827 83.2845 67.392 81.2125 67.392C79.1405 67.392 77.3858 66.6827 75.9485 65.264C74.5298 63.8267 73.8205 62.072 73.8205 60C73.8205 57.928 74.5298 56.1827 75.9485 54.764C77.3858 53.3267 79.1405 52.608 81.2125 52.608C83.2845 52.608 85.0392 53.3267 86.4765 54.764C87.9138 56.1827 88.6325 57.928 88.6325 60C88.6325 62.072 87.9138 63.8267 86.4765 65.264ZM78.4965 62.772C79.2245 63.5 80.1298 63.864 81.2125 63.864C82.2952 63.864 83.2005 63.5 83.9285 62.772C84.6565 62.044 85.0205 61.12 85.0205 60C85.0205 58.88 84.6565 57.956 83.9285 57.228C83.2005 56.5 82.2952 56.136 81.2125 56.136C80.1298 56.136 79.2245 56.5 78.4965 57.228C77.7872 57.956 77.4325 58.88 77.4325 60C77.4325 61.12 77.7872 62.044 78.4965 62.772ZM94.7855 55.408C95.1215 54.512 95.6722 53.84 96.4375 53.392C97.2215 52.944 98.0895 52.72 99.0415 52.72V56.752C97.9402 56.6213 96.9508 56.8453 96.0735 57.424C95.2148 58.0027 94.7855 58.964 94.7855 60.308V67H91.1735V53H94.7855V55.408ZM114.062 67H109.862L104.766 60.644V67H101.154V47.4H104.766V59.16L109.582 53H113.894L108.266 59.916L114.062 67ZM138.629 53H142.465L138.013 67H134.569L131.993 58.516L129.417 67H125.973L121.521 53H125.357L127.737 61.596L130.285 53H133.701L136.249 61.624L138.629 53ZM146.204 51.32C145.606 51.32 145.084 51.1053 144.636 50.676C144.206 50.228 143.992 49.7053 143.992 49.108C143.992 48.5107 144.206 47.988 144.636 47.54C145.084 47.092 145.606 46.868 146.204 46.868C146.82 46.868 147.342 47.092 147.772 47.54C148.22 47.988 148.444 48.5107 148.444 49.108C148.444 49.7053 148.22 50.228 147.772 50.676C147.342 51.1053 146.82 51.32 146.204 51.32ZM144.412 67V53H148.024V67H144.412ZM159.338 56.472H156.174V62.296C156.174 62.7813 156.295 63.136 156.538 63.36C156.78 63.584 157.135 63.7147 157.602 63.752C158.068 63.7707 158.647 63.7613 159.338 63.724V67C156.855 67.28 155.1 67.0467 154.074 66.3C153.066 65.5533 152.562 64.2187 152.562 62.296V56.472H150.126V53H152.562V50.172L156.174 49.08V53H159.338V56.472ZM169.668 52.608C171.199 52.608 172.459 53.1213 173.448 54.148C174.456 55.1747 174.96 56.5933 174.96 58.404V67H171.348V58.852C171.348 57.9187 171.096 57.2093 170.592 56.724C170.088 56.22 169.416 55.968 168.576 55.968C167.643 55.968 166.896 56.2573 166.336 56.836C165.776 57.4147 165.496 58.2827 165.496 59.44V67H161.884V47.4H165.496V54.568C166.374 53.2613 167.764 52.608 169.668 52.608ZM204.449 56.472V57.984C204.449 60.784 203.553 63.052 201.761 64.788C199.969 66.524 197.654 67.392 194.817 67.392C191.793 67.392 189.282 66.412 187.285 64.452C185.306 62.4733 184.317 60.0653 184.317 57.228C184.317 54.372 185.297 51.9547 187.257 49.976C189.235 47.9973 191.681 47.008 194.593 47.008C196.422 47.008 198.093 47.428 199.605 48.268C201.117 49.0893 202.293 50.1907 203.133 51.572L199.829 53.476C199.362 52.6733 198.653 52.02 197.701 51.516C196.767 51.012 195.722 50.76 194.565 50.76C192.698 50.76 191.158 51.376 189.945 52.608C188.75 53.8213 188.153 55.3613 188.153 57.228C188.153 59.076 188.759 60.6067 189.973 61.82C191.205 63.0147 192.829 63.612 194.845 63.612C196.338 63.612 197.57 63.2853 198.541 62.632C199.53 61.96 200.202 61.0453 200.557 59.888H194.621V56.472H204.449ZM217.669 53H221.281V67H217.669V65.348C216.586 66.7107 215.065 67.392 213.105 67.392C211.238 67.392 209.633 66.6827 208.289 65.264C206.964 63.8267 206.301 62.072 206.301 60C206.301 57.928 206.964 56.1827 208.289 54.764C209.633 53.3267 211.238 52.608 213.105 52.608C215.065 52.608 216.586 53.2893 217.669 54.652V53ZM211.005 62.856C211.733 63.584 212.657 63.948 213.777 63.948C214.897 63.948 215.821 63.584 216.549 62.856C217.296 62.1093 217.669 61.1573 217.669 60C217.669 58.8427 217.296 57.9 216.549 57.172C215.821 56.4253 214.897 56.052 213.777 56.052C212.657 56.052 211.733 56.4253 211.005 57.172C210.277 57.9 209.913 58.8427 209.913 60C209.913 61.1573 210.277 62.1093 211.005 62.856ZM240.04 52.608C241.646 52.608 242.924 53.1307 243.876 54.176C244.847 55.2213 245.332 56.6213 245.332 58.376V67H241.72V58.628C241.72 57.788 241.515 57.1347 241.104 56.668C240.694 56.2013 240.115 55.968 239.368 55.968C238.547 55.968 237.903 56.2387 237.436 56.78C236.988 57.3213 236.764 58.1053 236.764 59.132V67H233.152V58.628C233.152 57.788 232.947 57.1347 232.536 56.668C232.126 56.2013 231.547 55.968 230.8 55.968C229.998 55.968 229.354 56.2387 228.868 56.78C228.402 57.3213 228.168 58.1053 228.168 59.132V67H224.556V53H228.168V54.484C229.008 53.2333 230.306 52.608 232.06 52.608C233.778 52.608 235.047 53.28 235.868 54.624C236.802 53.28 238.192 52.608 240.04 52.608ZM251.452 61.484C251.937 63.2387 253.253 64.116 255.4 64.116C256.781 64.116 257.827 63.6493 258.536 62.716L261.448 64.396C260.067 66.3933 258.032 67.392 255.344 67.392C253.029 67.392 251.172 66.692 249.772 65.292C248.372 63.892 247.672 62.128 247.672 60C247.672 57.8907 248.363 56.136 249.744 54.736C251.125 53.3173 252.899 52.608 255.064 52.608C257.117 52.608 258.807 53.3173 260.132 54.736C261.476 56.1547 262.148 57.9093 262.148 60C262.148 60.4667 262.101 60.9613 262.008 61.484H251.452ZM251.396 58.684H258.536C258.331 57.732 257.901 57.0227 257.248 56.556C256.613 56.0893 255.885 55.856 255.064 55.856C254.093 55.856 253.291 56.108 252.656 56.612C252.021 57.0973 251.601 57.788 251.396 58.684ZM268.282 55.408C268.618 54.512 269.168 53.84 269.934 53.392C270.718 52.944 271.586 52.72 272.538 52.72V56.752C271.436 56.6213 270.447 56.8453 269.57 57.424C268.711 58.0027 268.282 58.964 268.282 60.308V67H264.67V53H268.282V55.408ZM277.545 56.976C277.545 57.3493 277.787 57.6573 278.273 57.9C278.777 58.124 279.383 58.3293 280.093 58.516C280.802 58.684 281.511 58.908 282.221 59.188C282.93 59.4493 283.527 59.8973 284.013 60.532C284.517 61.1667 284.769 61.96 284.769 62.912C284.769 64.3493 284.227 65.46 283.145 66.244C282.081 67.0093 280.746 67.392 279.141 67.392C276.266 67.392 274.306 66.2813 273.261 64.06L276.397 62.296C276.807 63.5093 277.722 64.116 279.141 64.116C280.429 64.116 281.073 63.7147 281.073 62.912C281.073 62.5387 280.821 62.24 280.317 62.016C279.831 61.7733 279.234 61.5587 278.525 61.372C277.815 61.1853 277.106 60.952 276.397 60.672C275.687 60.392 275.081 59.9533 274.577 59.356C274.091 58.74 273.849 57.9747 273.849 57.06C273.849 55.6787 274.353 54.596 275.361 53.812C276.387 53.0093 277.657 52.608 279.169 52.608C280.307 52.608 281.343 52.8693 282.277 53.392C283.21 53.896 283.947 54.624 284.489 55.576L281.409 57.256C280.961 56.304 280.214 55.828 279.169 55.828C278.702 55.828 278.31 55.9307 277.993 56.136C277.694 56.3413 277.545 56.6213 277.545 56.976ZM25.8556 104.88L22.7756 106.644L20.9836 104.712C19.4716 105.832 17.7169 106.392 15.7196 106.392C13.7036 106.392 12.0516 105.869 10.7636 104.824C9.49428 103.76 8.85961 102.341 8.85961 100.568C8.85961 99.4107 9.13961 98.3373 9.69961 97.348C10.2596 96.3587 11.0716 95.556 12.1356 94.94C11.5009 93.932 11.1836 92.84 11.1836 91.664C11.1836 90.0027 11.7623 88.6493 12.9196 87.604C14.0769 86.54 15.5423 86.008 17.3156 86.008C18.7156 86.008 19.9663 86.372 21.0676 87.1C22.1876 87.8093 23.0183 88.8453 23.5596 90.208L20.2556 92.112C19.7143 90.544 18.7529 89.76 17.3716 89.76C16.6996 89.76 16.1396 89.956 15.6916 90.348C15.2623 90.74 15.0476 91.2347 15.0476 91.832C15.0476 92.3547 15.1689 92.8307 15.4116 93.26C15.6729 93.6893 16.0836 94.2027 16.6436 94.8L20.8436 99.392C21.2543 98.5147 21.5716 97.432 21.7956 96.144L25.0436 97.992C24.6889 99.504 24.1196 100.876 23.3356 102.108L25.8556 104.88ZM15.9716 102.836C16.9423 102.836 17.8103 102.603 18.5756 102.136L14.3476 97.544C14.3103 97.5067 14.2916 97.4787 14.2916 97.46C13.2649 98.0947 12.7516 99 12.7516 100.176C12.7516 100.979 13.0223 101.623 13.5636 102.108C14.1236 102.593 14.9263 102.836 15.9716 102.836ZM54.4955 95.472V96.984C54.4955 99.784 53.5995 102.052 51.8075 103.788C50.0155 105.524 47.7008 106.392 44.8635 106.392C41.8395 106.392 39.3288 105.412 37.3315 103.452C35.3528 101.473 34.3635 99.0653 34.3635 96.228C34.3635 93.372 35.3435 90.9547 37.3035 88.976C39.2821 86.9973 41.7275 86.008 44.6395 86.008C46.4688 86.008 48.1395 86.428 49.6515 87.268C51.1635 88.0893 52.3395 89.1907 53.1795 90.572L49.8755 92.476C49.4088 91.6733 48.6995 91.02 47.7475 90.516C46.8141 90.012 45.7688 89.76 44.6115 89.76C42.7448 89.76 41.2048 90.376 39.9915 91.608C38.7968 92.8213 38.1995 94.3613 38.1995 96.228C38.1995 98.076 38.8061 99.6067 40.0195 100.82C41.2515 102.015 42.8755 102.612 44.8915 102.612C46.3848 102.612 47.6168 102.285 48.5875 101.632C49.5768 100.96 50.2488 100.045 50.6035 98.888H44.6675V95.472H54.4955ZM60.6878 94.408C61.0238 93.512 61.5745 92.84 62.3398 92.392C63.1238 91.944 63.9918 91.72 64.9438 91.72V95.752C63.8425 95.6213 62.8532 95.8453 61.9758 96.424C61.1172 97.0027 60.6878 97.964 60.6878 99.308V106H57.0758V92H60.6878V94.408ZM78.4648 104.264C77.0274 105.683 75.2728 106.392 73.2008 106.392C71.1288 106.392 69.3741 105.683 67.9368 104.264C66.5181 102.827 65.8088 101.072 65.8088 99C65.8088 96.928 66.5181 95.1827 67.9368 93.764C69.3741 92.3267 71.1288 91.608 73.2008 91.608C75.2728 91.608 77.0274 92.3267 78.4648 93.764C79.9021 95.1827 80.6208 96.928 80.6208 99C80.6208 101.072 79.9021 102.827 78.4648 104.264ZM70.4848 101.772C71.2128 102.5 72.1181 102.864 73.2008 102.864C74.2834 102.864 75.1888 102.5 75.9168 101.772C76.6448 101.044 77.0088 100.12 77.0088 99C77.0088 97.88 76.6448 96.956 75.9168 96.228C75.1888 95.5 74.2834 95.136 73.2008 95.136C72.1181 95.136 71.2128 95.5 70.4848 96.228C69.7754 96.956 69.4208 97.88 69.4208 99C69.4208 100.12 69.7754 101.044 70.4848 101.772ZM98.3789 92H102.215L97.7629 106H94.3189L91.7429 97.516L89.1669 106H85.7229L81.2709 92H85.1069L87.4869 100.596L90.0349 92H93.4509L95.9989 100.624L98.3789 92ZM120.29 92H124.154L119.058 106C118.33 108.016 117.359 109.472 116.146 110.368C114.951 111.283 113.458 111.693 111.666 111.6V108.24C112.636 108.259 113.402 108.053 113.962 107.624C114.54 107.195 114.998 106.504 115.334 105.552L109.594 92H113.542L117.182 101.408L120.29 92ZM137.254 104.264C135.816 105.683 134.062 106.392 131.99 106.392C129.918 106.392 128.163 105.683 126.726 104.264C125.307 102.827 124.598 101.072 124.598 99C124.598 96.928 125.307 95.1827 126.726 93.764C128.163 92.3267 129.918 91.608 131.99 91.608C134.062 91.608 135.816 92.3267 137.254 93.764C138.691 95.1827 139.41 96.928 139.41 99C139.41 101.072 138.691 102.827 137.254 104.264ZM129.274 101.772C130.002 102.5 130.907 102.864 131.99 102.864C133.072 102.864 133.978 102.5 134.706 101.772C135.434 101.044 135.798 100.12 135.798 99C135.798 97.88 135.434 96.956 134.706 96.228C133.978 95.5 133.072 95.136 131.99 95.136C130.907 95.136 130.002 95.5 129.274 96.228C128.564 96.956 128.21 97.88 128.21 99C128.21 100.12 128.564 101.044 129.274 101.772ZM151.191 92H154.803V106H151.191V104.432C150.313 105.739 148.923 106.392 147.019 106.392C145.488 106.392 144.219 105.879 143.211 104.852C142.221 103.825 141.727 102.407 141.727 100.596V92H145.339V100.148C145.339 101.081 145.591 101.8 146.095 102.304C146.599 102.789 147.271 103.032 148.111 103.032C149.044 103.032 149.791 102.743 150.351 102.164C150.911 101.585 151.191 100.717 151.191 99.56V92ZM161.723 94.408C162.059 93.512 162.61 92.84 163.375 92.392C164.159 91.944 165.027 91.72 165.979 91.72V95.752C164.878 95.6213 163.888 95.8453 163.011 96.424C162.152 97.0027 161.723 97.964 161.723 99.308V106H158.111V92H161.723V94.408ZM194.495 95.472V96.984C194.495 99.784 193.599 102.052 191.807 103.788C190.015 105.524 187.701 106.392 184.863 106.392C181.839 106.392 179.329 105.412 177.331 103.452C175.353 101.473 174.363 99.0653 174.363 96.228C174.363 93.372 175.343 90.9547 177.303 88.976C179.282 86.9973 181.727 86.008 184.639 86.008C186.469 86.008 188.139 86.428 189.651 87.268C191.163 88.0893 192.339 89.1907 193.179 90.572L189.875 92.476C189.409 91.6733 188.699 91.02 187.747 90.516C186.814 90.012 185.769 89.76 184.611 89.76C182.745 89.76 181.205 90.376 179.991 91.608C178.797 92.8213 178.199 94.3613 178.199 96.228C178.199 98.076 178.806 99.6067 180.019 100.82C181.251 102.015 182.875 102.612 184.891 102.612C186.385 102.612 187.617 102.285 188.587 101.632C189.577 100.96 190.249 100.045 190.603 98.888H184.667V95.472H194.495ZM207.716 92H211.328V106H207.716V104.348C206.633 105.711 205.112 106.392 203.152 106.392C201.285 106.392 199.68 105.683 198.336 104.264C197.01 102.827 196.348 101.072 196.348 99C196.348 96.928 197.01 95.1827 198.336 93.764C199.68 92.3267 201.285 91.608 203.152 91.608C205.112 91.608 206.633 92.2893 207.716 93.652V92ZM201.052 101.856C201.78 102.584 202.704 102.948 203.824 102.948C204.944 102.948 205.868 102.584 206.596 101.856C207.342 101.109 207.716 100.157 207.716 99C207.716 97.8427 207.342 96.9 206.596 96.172C205.868 95.4253 204.944 95.052 203.824 95.052C202.704 95.052 201.78 95.4253 201.052 96.172C200.324 96.9 199.96 97.8427 199.96 99C199.96 100.157 200.324 101.109 201.052 101.856ZM230.087 91.608C231.693 91.608 232.971 92.1307 233.923 93.176C234.894 94.2213 235.379 95.6213 235.379 97.376V106H231.767V97.628C231.767 96.788 231.562 96.1347 231.151 95.668C230.741 95.2013 230.162 94.968 229.415 94.968C228.594 94.968 227.95 95.2387 227.483 95.78C227.035 96.3213 226.811 97.1053 226.811 98.132V106H223.199V97.628C223.199 96.788 222.994 96.1347 222.583 95.668C222.173 95.2013 221.594 94.968 220.847 94.968C220.045 94.968 219.401 95.2387 218.915 95.78C218.449 96.3213 218.215 97.1053 218.215 98.132V106H214.603V92H218.215V93.484C219.055 92.2333 220.353 91.608 222.107 91.608C223.825 91.608 225.094 92.28 225.915 93.624C226.849 92.28 228.239 91.608 230.087 91.608ZM240.239 90.32C239.642 90.32 239.119 90.1053 238.671 89.676C238.242 89.228 238.027 88.7053 238.027 88.108C238.027 87.5107 238.242 86.988 238.671 86.54C239.119 86.092 239.642 85.868 240.239 85.868C240.855 85.868 241.378 86.092 241.807 86.54C242.255 86.988 242.479 87.5107 242.479 88.108C242.479 88.7053 242.255 89.228 241.807 89.676C241.378 90.1053 240.855 90.32 240.239 90.32ZM238.447 106V92H242.059V106H238.447ZM253.149 91.608C254.68 91.608 255.94 92.1213 256.929 93.148C257.937 94.1747 258.441 95.5933 258.441 97.404V106H254.829V97.852C254.829 96.9187 254.577 96.2093 254.073 95.724C253.569 95.22 252.897 94.968 252.057 94.968C251.124 94.968 250.377 95.2573 249.817 95.836C249.257 96.4147 248.977 97.2827 248.977 98.44V106H245.365V92H248.977V93.568C249.854 92.2613 251.245 91.608 253.149 91.608ZM272.249 92H275.777V105.328C275.777 107.493 275.058 109.145 273.621 110.284C272.202 111.423 270.485 111.992 268.469 111.992C266.957 111.992 265.622 111.703 264.465 111.124C263.326 110.545 262.449 109.696 261.833 108.576L264.913 106.812C265.622 108.119 266.845 108.772 268.581 108.772C269.72 108.772 270.616 108.473 271.269 107.876C271.922 107.279 272.249 106.429 272.249 105.328V103.816C271.185 105.235 269.692 105.944 267.769 105.944C265.79 105.944 264.129 105.253 262.785 103.872C261.46 102.472 260.797 100.773 260.797 98.776C260.797 96.7973 261.469 95.108 262.813 93.708C264.157 92.308 265.809 91.608 267.769 91.608C269.692 91.608 271.185 92.3173 272.249 93.736V92ZM265.501 101.548C266.248 102.257 267.19 102.612 268.329 102.612C269.468 102.612 270.401 102.257 271.129 101.548C271.876 100.82 272.249 99.896 272.249 98.776C272.249 97.6747 271.876 96.7693 271.129 96.06C270.401 95.332 269.468 94.968 268.329 94.968C267.19 94.968 266.248 95.332 265.501 96.06C264.773 96.7693 264.409 97.6747 264.409 98.776C264.409 99.896 264.773 100.82 265.501 101.548ZM72.1453 145.392C69.196 145.392 66.76 144.412 64.8373 142.452C62.9146 140.492 61.9533 138.075 61.9533 135.2C61.9533 132.307 62.9146 129.889 64.8373 127.948C66.76 125.988 69.196 125.008 72.1453 125.008C73.9186 125.008 75.552 125.428 77.0453 126.268C78.5573 127.089 79.7333 128.209 80.5733 129.628L77.2413 131.56C76.756 130.683 76.0653 130.001 75.1693 129.516C74.2733 129.012 73.2653 128.76 72.1453 128.76C70.2413 128.76 68.7013 129.357 67.5253 130.552C66.368 131.747 65.7893 133.296 65.7893 135.2C65.7893 137.085 66.368 138.625 67.5253 139.82C68.7013 141.015 70.2413 141.612 72.1453 141.612C73.2653 141.612 74.2733 141.369 75.1693 140.884C76.084 140.38 76.7746 139.699 77.2413 138.84L80.5733 140.772C79.7333 142.191 78.5666 143.32 77.0733 144.16C75.58 144.981 73.9373 145.392 72.1453 145.392ZM94.789 143.264C93.3517 144.683 91.597 145.392 89.525 145.392C87.453 145.392 85.6983 144.683 84.261 143.264C82.8423 141.827 82.133 140.072 82.133 138C82.133 135.928 82.8423 134.183 84.261 132.764C85.6983 131.327 87.453 130.608 89.525 130.608C91.597 130.608 93.3517 131.327 94.789 132.764C96.2263 134.183 96.945 135.928 96.945 138C96.945 140.072 96.2263 141.827 94.789 143.264ZM86.809 140.772C87.537 141.5 88.4423 141.864 89.525 141.864C90.6077 141.864 91.513 141.5 92.241 140.772C92.969 140.044 93.333 139.12 93.333 138C93.333 136.88 92.969 135.956 92.241 135.228C91.513 134.5 90.6077 134.136 89.525 134.136C88.4423 134.136 87.537 134.5 86.809 135.228C86.0997 135.956 85.745 136.88 85.745 138C85.745 139.12 86.0997 140.044 86.809 140.772ZM114.97 130.608C116.575 130.608 117.854 131.131 118.806 132.176C119.777 133.221 120.262 134.621 120.262 136.376V145H116.65V136.628C116.65 135.788 116.445 135.135 116.034 134.668C115.623 134.201 115.045 133.968 114.298 133.968C113.477 133.968 112.833 134.239 112.366 134.78C111.918 135.321 111.694 136.105 111.694 137.132V145H108.082V136.628C108.082 135.788 107.877 135.135 107.466 134.668C107.055 134.201 106.477 133.968 105.73 133.968C104.927 133.968 104.283 134.239 103.798 134.78C103.331 135.321 103.098 136.105 103.098 137.132V145H99.486V131H103.098V132.484C103.938 131.233 105.235 130.608 106.99 130.608C108.707 130.608 109.977 131.28 110.798 132.624C111.731 131.28 113.122 130.608 114.97 130.608ZM138.814 130.608C140.419 130.608 141.698 131.131 142.65 132.176C143.62 133.221 144.106 134.621 144.106 136.376V145H140.494V136.628C140.494 135.788 140.288 135.135 139.878 134.668C139.467 134.201 138.888 133.968 138.142 133.968C137.32 133.968 136.676 134.239 136.21 134.78C135.762 135.321 135.538 136.105 135.538 137.132V145H131.926V136.628C131.926 135.788 131.72 135.135 131.31 134.668C130.899 134.201 130.32 133.968 129.574 133.968C128.771 133.968 128.127 134.239 127.642 134.78C127.175 135.321 126.942 136.105 126.942 137.132V145H123.33V131H126.942V132.484C127.782 131.233 129.079 130.608 130.834 130.608C132.551 130.608 133.82 131.28 134.642 132.624C135.575 131.28 136.966 130.608 138.814 130.608ZM156.413 131H160.025V145H156.413V143.432C155.536 144.739 154.145 145.392 152.241 145.392C150.711 145.392 149.441 144.879 148.433 143.852C147.444 142.825 146.949 141.407 146.949 139.596V131H150.561V139.148C150.561 140.081 150.813 140.8 151.317 141.304C151.821 141.789 152.493 142.032 153.333 142.032C154.267 142.032 155.013 141.743 155.573 141.164C156.133 140.585 156.413 139.717 156.413 138.56V131ZM171.118 130.608C172.648 130.608 173.908 131.121 174.898 132.148C175.906 133.175 176.41 134.593 176.41 136.404V145H172.798V136.852C172.798 135.919 172.546 135.209 172.042 134.724C171.538 134.22 170.866 133.968 170.026 133.968C169.092 133.968 168.346 134.257 167.786 134.836C167.226 135.415 166.946 136.283 166.946 137.44V145H163.334V131H166.946V132.568C167.823 131.261 169.214 130.608 171.118 130.608ZM181.286 129.32C180.688 129.32 180.166 129.105 179.718 128.676C179.288 128.228 179.074 127.705 179.074 127.108C179.074 126.511 179.288 125.988 179.718 125.54C180.166 125.092 180.688 124.868 181.286 124.868C181.902 124.868 182.424 125.092 182.854 125.54C183.302 125.988 183.526 126.511 183.526 127.108C183.526 127.705 183.302 128.228 182.854 128.676C182.424 129.105 181.902 129.32 181.286 129.32ZM179.494 145V131H183.106V145H179.494ZM194.42 134.472H191.256V140.296C191.256 140.781 191.377 141.136 191.62 141.36C191.862 141.584 192.217 141.715 192.684 141.752C193.15 141.771 193.729 141.761 194.42 141.724V145C191.937 145.28 190.182 145.047 189.156 144.3C188.148 143.553 187.644 142.219 187.644 140.296V134.472H185.208V131H187.644V128.172L191.256 127.08V131H194.42V134.472ZM198.758 129.32C198.161 129.32 197.638 129.105 197.19 128.676C196.761 128.228 196.546 127.705 196.546 127.108C196.546 126.511 196.761 125.988 197.19 125.54C197.638 125.092 198.161 124.868 198.758 124.868C199.374 124.868 199.897 125.092 200.326 125.54C200.774 125.988 200.998 126.511 200.998 127.108C200.998 127.705 200.774 128.228 200.326 128.676C199.897 129.105 199.374 129.32 198.758 129.32ZM196.966 145V131H200.578V145H196.966ZM206.936 139.484C207.422 141.239 208.738 142.116 210.884 142.116C212.266 142.116 213.311 141.649 214.02 140.716L216.932 142.396C215.551 144.393 213.516 145.392 210.828 145.392C208.514 145.392 206.656 144.692 205.256 143.292C203.856 141.892 203.156 140.128 203.156 138C203.156 135.891 203.847 134.136 205.228 132.736C206.61 131.317 208.383 130.608 210.548 130.608C212.602 130.608 214.291 131.317 215.616 132.736C216.96 134.155 217.632 135.909 217.632 138C217.632 138.467 217.586 138.961 217.492 139.484H206.936ZM206.88 136.684H214.02C213.815 135.732 213.386 135.023 212.732 134.556C212.098 134.089 211.37 133.856 210.548 133.856C209.578 133.856 208.775 134.108 208.14 134.612C207.506 135.097 207.086 135.788 206.88 136.684ZM222.939 134.976C222.939 135.349 223.182 135.657 223.667 135.9C224.171 136.124 224.778 136.329 225.487 136.516C226.196 136.684 226.906 136.908 227.615 137.188C228.324 137.449 228.922 137.897 229.407 138.532C229.911 139.167 230.163 139.96 230.163 140.912C230.163 142.349 229.622 143.46 228.539 144.244C227.475 145.009 226.14 145.392 224.535 145.392C221.66 145.392 219.7 144.281 218.655 142.06L221.791 140.296C222.202 141.509 223.116 142.116 224.535 142.116C225.823 142.116 226.467 141.715 226.467 140.912C226.467 140.539 226.215 140.24 225.711 140.016C225.226 139.773 224.628 139.559 223.919 139.372C223.21 139.185 222.5 138.952 221.791 138.672C221.082 138.392 220.475 137.953 219.971 137.356C219.486 136.74 219.243 135.975 219.243 135.06C219.243 133.679 219.747 132.596 220.755 131.812C221.782 131.009 223.051 130.608 224.563 130.608C225.702 130.608 226.738 130.869 227.671 131.392C228.604 131.896 229.342 132.624 229.883 133.576L226.803 135.256C226.355 134.304 225.608 133.828 224.563 133.828C224.096 133.828 223.704 133.931 223.387 134.136C223.088 134.341 222.939 134.621 222.939 134.976Z" fill="#F5F5F5"/>
</svg>
