<svg width="285" height="136" viewBox="0 0 285 136" fill="none" xmlns="http://www.w3.org/2000/svg">
<path d="M91 21C134.517 25.5534 228.642 32.5135 257 23.9272" stroke="#00AD45" stroke-width="10"/>
<path d="M1 55C30.099 59.5534 93.0375 66.5135 112 57.9272" stroke="#FF7A00" stroke-width="10"/>
<path d="M62 122C104.469 126.553 196.325 133.514 224 124.927" stroke="#BD00FF" stroke-width="10"/>
<path d="M173 89C199.477 93.5534 256.746 100.514 274 91.9272" stroke="#BD00FF" stroke-width="10"/>
<path d="M39.4283 9.096H31.5883V13.744H39.2043V17.44H31.5883V25H27.7243V5.4H39.4283V9.096ZM43.8678 9.32C43.2705 9.32 42.7478 9.10533 42.2998 8.676C41.8705 8.228 41.6558 7.70533 41.6558 7.108C41.6558 6.51067 41.8705 5.988 42.2998 5.54C42.7478 5.092 43.2705 4.868 43.8678 4.868C44.4838 4.868 45.0065 5.092 45.4358 5.54C45.8838 5.988 46.1078 6.51067 46.1078 7.108C46.1078 7.70533 45.8838 8.228 45.4358 8.676C45.0065 9.10533 44.4838 9.32 43.8678 9.32ZM42.0758 25V11H45.6878V25H42.0758ZM56.7778 10.608C58.3085 10.608 59.5685 11.1213 60.5578 12.148C61.5658 13.1747 62.0698 14.5933 62.0698 16.404V25H58.4578V16.852C58.4578 15.9187 58.2058 15.2093 57.7018 14.724C57.1978 14.22 56.5258 13.968 55.6858 13.968C54.7525 13.968 54.0058 14.2573 53.4458 14.836C52.8858 15.4147 52.6058 16.2827 52.6058 17.44V25H48.9938V11H52.6058V12.568C53.4831 11.2613 54.8738 10.608 56.7778 10.608ZM75.766 5.4H79.378V25H75.766V23.348C74.702 24.7107 73.19 25.392 71.23 25.392C69.3446 25.392 67.73 24.6827 66.386 23.264C65.0606 21.8267 64.398 20.072 64.398 18C64.398 15.928 65.0606 14.1827 66.386 12.764C67.73 11.3267 69.3446 10.608 71.23 10.608C73.19 10.608 74.702 11.2893 75.766 12.652V5.4ZM69.102 20.856C69.8486 21.584 70.782 21.948 71.902 21.948C73.022 21.948 73.946 21.584 74.674 20.856C75.402 20.1093 75.766 19.1573 75.766 18C75.766 16.8427 75.402 15.9 74.674 15.172C73.946 14.4253 73.022 14.052 71.902 14.052C70.782 14.052 69.8486 14.4253 69.102 15.172C68.374 15.9 68.01 16.8427 68.01 18C68.01 19.1573 68.374 20.1093 69.102 20.856ZM102.813 5.4V9.096H97.5213V25H93.6573V9.096H88.3933V5.4H102.813ZM114.187 23.264C112.75 24.6827 110.995 25.392 108.923 25.392C106.851 25.392 105.097 24.6827 103.659 23.264C102.241 21.8267 101.531 20.072 101.531 18C101.531 15.928 102.241 14.1827 103.659 12.764C105.097 11.3267 106.851 10.608 108.923 10.608C110.995 10.608 112.75 11.3267 114.187 12.764C115.625 14.1827 116.343 15.928 116.343 18C116.343 20.072 115.625 21.8267 114.187 23.264ZM106.207 20.772C106.935 21.5 107.841 21.864 108.923 21.864C110.006 21.864 110.911 21.5 111.639 20.772C112.367 20.044 112.731 19.12 112.731 18C112.731 16.88 112.367 15.956 111.639 15.228C110.911 14.5 110.006 14.136 108.923 14.136C107.841 14.136 106.935 14.5 106.207 15.228C105.498 15.956 105.143 16.88 105.143 18C105.143 19.12 105.498 20.044 106.207 20.772ZM128.124 11H131.736V25H128.124V23.432C127.247 24.7387 125.856 25.392 123.952 25.392C122.422 25.392 121.152 24.8787 120.144 23.852C119.155 22.8253 118.66 21.4067 118.66 19.596V11H122.272V19.148C122.272 20.0813 122.524 20.8 123.028 21.304C123.532 21.7893 124.204 22.032 125.044 22.032C125.978 22.032 126.724 21.7427 127.284 21.164C127.844 20.5853 128.124 19.7173 128.124 18.56V11ZM138.657 13.408C138.993 12.512 139.543 11.84 140.309 11.392C141.093 10.944 141.961 10.72 142.913 10.72V14.752C141.811 14.6213 140.822 14.8453 139.945 15.424C139.086 16.0027 138.657 16.964 138.657 18.308V25H135.045V11H138.657V13.408ZM152.809 10.608C154.34 10.608 155.6 11.1213 156.589 12.148C157.597 13.1747 158.101 14.5933 158.101 16.404V25H154.489V16.852C154.489 15.9187 154.237 15.2093 153.733 14.724C153.229 14.22 152.557 13.968 151.717 13.968C150.784 13.968 150.037 14.2573 149.477 14.836C148.917 15.4147 148.637 16.2827 148.637 17.44V25H145.025V11H148.637V12.568C149.514 11.2613 150.905 10.608 152.809 10.608ZM171.825 11H175.437V25H171.825V23.348C170.743 24.7107 169.221 25.392 167.261 25.392C165.395 25.392 163.789 24.6827 162.445 23.264C161.12 21.8267 160.457 20.072 160.457 18C160.457 15.928 161.12 14.1827 162.445 12.764C163.789 11.3267 165.395 10.608 167.261 10.608C169.221 10.608 170.743 11.2893 171.825 12.652V11ZM165.161 20.856C165.889 21.584 166.813 21.948 167.933 21.948C169.053 21.948 169.977 21.584 170.705 20.856C171.452 20.1093 171.825 19.1573 171.825 18C171.825 16.8427 171.452 15.9 170.705 15.172C169.977 14.4253 169.053 14.052 167.933 14.052C166.813 14.052 165.889 14.4253 165.161 15.172C164.433 15.9 164.069 16.8427 164.069 18C164.069 19.1573 164.433 20.1093 165.161 20.856ZM194.197 10.608C195.802 10.608 197.081 11.1307 198.033 12.176C199.003 13.2213 199.489 14.6213 199.489 16.376V25H195.877V16.628C195.877 15.788 195.671 15.1347 195.261 14.668C194.85 14.2013 194.271 13.968 193.525 13.968C192.703 13.968 192.059 14.2387 191.593 14.78C191.145 15.3213 190.921 16.1053 190.921 17.132V25H187.309V16.628C187.309 15.788 187.103 15.1347 186.693 14.668C186.282 14.2013 185.703 13.968 184.957 13.968C184.154 13.968 183.51 14.2387 183.025 14.78C182.558 15.3213 182.325 16.1053 182.325 17.132V25H178.713V11H182.325V12.484C183.165 11.2333 184.462 10.608 186.217 10.608C187.934 10.608 189.203 11.28 190.025 12.624C190.958 11.28 192.349 10.608 194.197 10.608ZM205.608 19.484C206.094 21.2387 207.41 22.116 209.556 22.116C210.938 22.116 211.983 21.6493 212.692 20.716L215.604 22.396C214.223 24.3933 212.188 25.392 209.5 25.392C207.186 25.392 205.328 24.692 203.928 23.292C202.528 21.892 201.828 20.128 201.828 18C201.828 15.8907 202.519 14.136 203.9 12.736C205.282 11.3173 207.055 10.608 209.22 10.608C211.274 10.608 212.963 11.3173 214.288 12.736C215.632 14.1547 216.304 15.9093 216.304 18C216.304 18.4667 216.258 18.9613 216.164 19.484H205.608ZM205.552 16.684H212.692C212.487 15.732 212.058 15.0227 211.404 14.556C210.77 14.0893 210.042 13.856 209.22 13.856C208.25 13.856 207.447 14.108 206.812 14.612C206.178 15.0973 205.758 15.788 205.552 16.684ZM226.61 10.608C228.14 10.608 229.4 11.1213 230.39 12.148C231.398 13.1747 231.902 14.5933 231.902 16.404V25H228.29V16.852C228.29 15.9187 228.038 15.2093 227.534 14.724C227.03 14.22 226.358 13.968 225.518 13.968C224.584 13.968 223.838 14.2573 223.278 14.836C222.718 15.4147 222.438 16.2827 222.438 17.44V25H218.826V11H222.438V12.568C223.315 11.2613 224.706 10.608 226.61 10.608ZM242.994 14.472H239.83V20.296C239.83 20.7813 239.951 21.136 240.194 21.36C240.437 21.584 240.791 21.7147 241.258 21.752C241.725 21.7707 242.303 21.7613 242.994 21.724V25C240.511 25.28 238.757 25.0467 237.73 24.3C236.722 23.5533 236.218 22.2187 236.218 20.296V14.472H233.782V11H236.218V8.172L239.83 7.08V11H242.994V14.472ZM248.572 14.976C248.572 15.3493 248.815 15.6573 249.3 15.9C249.804 16.124 250.411 16.3293 251.12 16.516C251.829 16.684 252.539 16.908 253.248 17.188C253.957 17.4493 254.555 17.8973 255.04 18.532C255.544 19.1667 255.796 19.96 255.796 20.912C255.796 22.3493 255.255 23.46 254.172 24.244C253.108 25.0093 251.773 25.392 250.168 25.392C247.293 25.392 245.333 24.2813 244.288 22.06L247.424 20.296C247.835 21.5093 248.749 22.116 250.168 22.116C251.456 22.116 252.1 21.7147 252.1 20.912C252.1 20.5387 251.848 20.24 251.344 20.016C250.859 19.7733 250.261 19.5587 249.552 19.372C248.843 19.1853 248.133 18.952 247.424 18.672C246.715 18.392 246.108 17.9533 245.604 17.356C245.119 16.74 244.876 15.9747 244.876 15.06C244.876 13.6787 245.38 12.596 246.388 11.812C247.415 11.0093 248.684 10.608 250.196 10.608C251.335 10.608 252.371 10.8693 253.304 11.392C254.237 11.896 254.975 12.624 255.516 13.576L252.436 15.256C251.988 14.304 251.241 13.828 250.196 13.828C249.729 13.828 249.337 13.9307 249.02 14.136C248.721 14.3413 248.572 14.6213 248.572 14.976ZM262.715 21.136L260.615 28.92H257.675L258.795 21.136H262.715ZM18.5838 39.4H22.4478V59H19.5078L11.1078 47.016V59H7.24383V39.4H10.1838L18.5838 51.356V39.4ZM28.9677 53.484C29.453 55.2387 30.769 56.116 32.9157 56.116C34.297 56.116 35.3423 55.6493 36.0517 54.716L38.9637 56.396C37.5823 58.3933 35.5477 59.392 32.8597 59.392C30.545 59.392 28.6877 58.692 27.2877 57.292C25.8877 55.892 25.1877 54.128 25.1877 52C25.1877 49.8907 25.8783 48.136 27.2597 46.736C28.641 45.3173 30.4143 44.608 32.5797 44.608C34.633 44.608 36.3223 45.3173 37.6477 46.736C38.9917 48.1547 39.6637 49.9093 39.6637 52C39.6637 52.4667 39.617 52.9613 39.5237 53.484H28.9677ZM28.9117 50.684H36.0517C35.8463 49.732 35.417 49.0227 34.7637 48.556C34.129 48.0893 33.401 47.856 32.5797 47.856C31.609 47.856 30.8063 48.108 30.1717 48.612C29.537 49.0973 29.117 49.788 28.9117 50.684ZM49.783 48.472H46.619V54.296C46.619 54.7813 46.7404 55.136 46.983 55.36C47.2257 55.584 47.5804 55.7147 48.047 55.752C48.5137 55.7707 49.0924 55.7613 49.783 55.724V59C47.3004 59.28 45.5457 59.0467 44.519 58.3C43.511 57.5533 43.007 56.2187 43.007 54.296V48.472H40.571V45H43.007V42.172L46.619 41.08V45H49.783V48.472ZM68.3125 45H72.1485L67.6965 59H64.2525L61.6765 50.516L59.1005 59H55.6565L51.2045 45H55.0405L57.4205 53.596L59.9685 45H63.3845L65.9325 53.624L68.3125 45ZM85.4765 57.264C84.0392 58.6827 82.2845 59.392 80.2125 59.392C78.1405 59.392 76.3858 58.6827 74.9485 57.264C73.5298 55.8267 72.8205 54.072 72.8205 52C72.8205 49.928 73.5298 48.1827 74.9485 46.764C76.3858 45.3267 78.1405 44.608 80.2125 44.608C82.2845 44.608 84.0392 45.3267 85.4765 46.764C86.9138 48.1827 87.6325 49.928 87.6325 52C87.6325 54.072 86.9138 55.8267 85.4765 57.264ZM77.4965 54.772C78.2245 55.5 79.1298 55.864 80.2125 55.864C81.2952 55.864 82.2005 55.5 82.9285 54.772C83.6565 54.044 84.0205 53.12 84.0205 52C84.0205 50.88 83.6565 49.956 82.9285 49.228C82.2005 48.5 81.2952 48.136 80.2125 48.136C79.1298 48.136 78.2245 48.5 77.4965 49.228C76.7872 49.956 76.4325 50.88 76.4325 52C76.4325 53.12 76.7872 54.044 77.4965 54.772ZM93.7855 47.408C94.1215 46.512 94.6722 45.84 95.4375 45.392C96.2215 44.944 97.0895 44.72 98.0415 44.72V48.752C96.9402 48.6213 95.9508 48.8453 95.0735 49.424C94.2148 50.0027 93.7855 50.964 93.7855 52.308V59H90.1735V45H93.7855V47.408ZM113.062 59H108.862L103.766 52.644V59H100.154V39.4H103.766V51.16L108.582 45H112.894L107.266 51.916L113.062 59ZM137.629 45H141.465L137.013 59H133.569L130.993 50.516L128.417 59H124.973L120.521 45H124.357L126.737 53.596L129.285 45H132.701L135.249 53.624L137.629 45ZM145.204 43.32C144.606 43.32 144.084 43.1053 143.636 42.676C143.206 42.228 142.992 41.7053 142.992 41.108C142.992 40.5107 143.206 39.988 143.636 39.54C144.084 39.092 144.606 38.868 145.204 38.868C145.82 38.868 146.342 39.092 146.772 39.54C147.22 39.988 147.444 40.5107 147.444 41.108C147.444 41.7053 147.22 42.228 146.772 42.676C146.342 43.1053 145.82 43.32 145.204 43.32ZM143.412 59V45H147.024V59H143.412ZM158.338 48.472H155.174V54.296C155.174 54.7813 155.295 55.136 155.538 55.36C155.78 55.584 156.135 55.7147 156.602 55.752C157.068 55.7707 157.647 55.7613 158.338 55.724V59C155.855 59.28 154.1 59.0467 153.074 58.3C152.066 57.5533 151.562 56.2187 151.562 54.296V48.472H149.126V45H151.562V42.172L155.174 41.08V45H158.338V48.472ZM168.668 44.608C170.199 44.608 171.459 45.1213 172.448 46.148C173.456 47.1747 173.96 48.5933 173.96 50.404V59H170.348V50.852C170.348 49.9187 170.096 49.2093 169.592 48.724C169.088 48.22 168.416 47.968 167.576 47.968C166.643 47.968 165.896 48.2573 165.336 48.836C164.776 49.4147 164.496 50.2827 164.496 51.44V59H160.884V39.4H164.496V46.568C165.374 45.2613 166.764 44.608 168.668 44.608ZM203.449 48.472V49.984C203.449 52.784 202.553 55.052 200.761 56.788C198.969 58.524 196.654 59.392 193.817 59.392C190.793 59.392 188.282 58.412 186.285 56.452C184.306 54.4733 183.317 52.0653 183.317 49.228C183.317 46.372 184.297 43.9547 186.257 41.976C188.235 39.9973 190.681 39.008 193.593 39.008C195.422 39.008 197.093 39.428 198.605 40.268C200.117 41.0893 201.293 42.1907 202.133 43.572L198.829 45.476C198.362 44.6733 197.653 44.02 196.701 43.516C195.767 43.012 194.722 42.76 193.565 42.76C191.698 42.76 190.158 43.376 188.945 44.608C187.75 45.8213 187.153 47.3613 187.153 49.228C187.153 51.076 187.759 52.6067 188.973 53.82C190.205 55.0147 191.829 55.612 193.845 55.612C195.338 55.612 196.57 55.2853 197.541 54.632C198.53 53.96 199.202 53.0453 199.557 51.888H193.621V48.472H203.449ZM216.669 45H220.281V59H216.669V57.348C215.586 58.7107 214.065 59.392 212.105 59.392C210.238 59.392 208.633 58.6827 207.289 57.264C205.964 55.8267 205.301 54.072 205.301 52C205.301 49.928 205.964 48.1827 207.289 46.764C208.633 45.3267 210.238 44.608 212.105 44.608C214.065 44.608 215.586 45.2893 216.669 46.652V45ZM210.005 54.856C210.733 55.584 211.657 55.948 212.777 55.948C213.897 55.948 214.821 55.584 215.549 54.856C216.296 54.1093 216.669 53.1573 216.669 52C216.669 50.8427 216.296 49.9 215.549 49.172C214.821 48.4253 213.897 48.052 212.777 48.052C211.657 48.052 210.733 48.4253 210.005 49.172C209.277 49.9 208.913 50.8427 208.913 52C208.913 53.1573 209.277 54.1093 210.005 54.856ZM239.04 44.608C240.646 44.608 241.924 45.1307 242.876 46.176C243.847 47.2213 244.332 48.6213 244.332 50.376V59H240.72V50.628C240.72 49.788 240.515 49.1347 240.104 48.668C239.694 48.2013 239.115 47.968 238.368 47.968C237.547 47.968 236.903 48.2387 236.436 48.78C235.988 49.3213 235.764 50.1053 235.764 51.132V59H232.152V50.628C232.152 49.788 231.947 49.1347 231.536 48.668C231.126 48.2013 230.547 47.968 229.8 47.968C228.998 47.968 228.354 48.2387 227.868 48.78C227.402 49.3213 227.168 50.1053 227.168 51.132V59H223.556V45H227.168V46.484C228.008 45.2333 229.306 44.608 231.06 44.608C232.778 44.608 234.047 45.28 234.868 46.624C235.802 45.28 237.192 44.608 239.04 44.608ZM250.452 53.484C250.937 55.2387 252.253 56.116 254.4 56.116C255.781 56.116 256.827 55.6493 257.536 54.716L260.448 56.396C259.067 58.3933 257.032 59.392 254.344 59.392C252.029 59.392 250.172 58.692 248.772 57.292C247.372 55.892 246.672 54.128 246.672 52C246.672 49.8907 247.363 48.136 248.744 46.736C250.125 45.3173 251.899 44.608 254.064 44.608C256.117 44.608 257.807 45.3173 259.132 46.736C260.476 48.1547 261.148 49.9093 261.148 52C261.148 52.4667 261.101 52.9613 261.008 53.484H250.452ZM250.396 50.684H257.536C257.331 49.732 256.901 49.0227 256.248 48.556C255.613 48.0893 254.885 47.856 254.064 47.856C253.093 47.856 252.291 48.108 251.656 48.612C251.021 49.0973 250.601 49.788 250.396 50.684ZM267.282 47.408C267.618 46.512 268.168 45.84 268.934 45.392C269.718 44.944 270.586 44.72 271.538 44.72V48.752C270.436 48.6213 269.447 48.8453 268.57 49.424C267.711 50.0027 267.282 50.964 267.282 52.308V59H263.67V45H267.282V47.408ZM276.545 48.976C276.545 49.3493 276.787 49.6573 277.273 49.9C277.777 50.124 278.383 50.3293 279.093 50.516C279.802 50.684 280.511 50.908 281.221 51.188C281.93 51.4493 282.527 51.8973 283.013 52.532C283.517 53.1667 283.769 53.96 283.769 54.912C283.769 56.3493 283.227 57.46 282.145 58.244C281.081 59.0093 279.746 59.392 278.141 59.392C275.266 59.392 273.306 58.2813 272.261 56.06L275.397 54.296C275.807 55.5093 276.722 56.116 278.141 56.116C279.429 56.116 280.073 55.7147 280.073 54.912C280.073 54.5387 279.821 54.24 279.317 54.016C278.831 53.7733 278.234 53.5587 277.525 53.372C276.815 53.1853 276.106 52.952 275.397 52.672C274.687 52.392 274.081 51.9533 273.577 51.356C273.091 50.74 272.849 49.9747 272.849 49.06C272.849 47.6787 273.353 46.596 274.361 45.812C275.387 45.0093 276.657 44.608 278.169 44.608C279.307 44.608 280.343 44.8693 281.277 45.392C282.21 45.896 282.947 46.624 283.489 47.576L280.409 49.256C279.961 48.304 279.214 47.828 278.169 47.828C277.702 47.828 277.31 47.9307 276.993 48.136C276.694 48.3413 276.545 48.6213 276.545 48.976ZM24.8556 91.88L21.7756 93.644L19.9836 91.712C18.4716 92.832 16.7169 93.392 14.7196 93.392C12.7036 93.392 11.0516 92.8693 9.76361 91.824C8.49428 90.76 7.85961 89.3413 7.85961 87.568C7.85961 86.4107 8.13961 85.3373 8.69961 84.348C9.25961 83.3587 10.0716 82.556 11.1356 81.94C10.5009 80.932 10.1836 79.84 10.1836 78.664C10.1836 77.0027 10.7623 75.6493 11.9196 74.604C13.0769 73.54 14.5423 73.008 16.3156 73.008C17.7156 73.008 18.9663 73.372 20.0676 74.1C21.1876 74.8093 22.0183 75.8453 22.5596 77.208L19.2556 79.112C18.7143 77.544 17.7529 76.76 16.3716 76.76C15.6996 76.76 15.1396 76.956 14.6916 77.348C14.2623 77.74 14.0476 78.2347 14.0476 78.832C14.0476 79.3547 14.1689 79.8307 14.4116 80.26C14.6729 80.6893 15.0836 81.2027 15.6436 81.8L19.8436 86.392C20.2543 85.5147 20.5716 84.432 20.7956 83.144L24.0436 84.992C23.6889 86.504 23.1196 87.876 22.3356 89.108L24.8556 91.88ZM14.9716 89.836C15.9423 89.836 16.8103 89.6027 17.5756 89.136L13.3476 84.544C13.3103 84.5067 13.2916 84.4787 13.2916 84.46C12.2649 85.0947 11.7516 86 11.7516 87.176C11.7516 87.9787 12.0223 88.6227 12.5636 89.108C13.1236 89.5933 13.9263 89.836 14.9716 89.836ZM53.4955 82.472V83.984C53.4955 86.784 52.5995 89.052 50.8075 90.788C49.0155 92.524 46.7008 93.392 43.8635 93.392C40.8395 93.392 38.3288 92.412 36.3315 90.452C34.3528 88.4733 33.3635 86.0653 33.3635 83.228C33.3635 80.372 34.3435 77.9547 36.3035 75.976C38.2821 73.9973 40.7275 73.008 43.6395 73.008C45.4688 73.008 47.1395 73.428 48.6515 74.268C50.1635 75.0893 51.3395 76.1907 52.1795 77.572L48.8755 79.476C48.4088 78.6733 47.6995 78.02 46.7475 77.516C45.8141 77.012 44.7688 76.76 43.6115 76.76C41.7448 76.76 40.2048 77.376 38.9915 78.608C37.7968 79.8213 37.1995 81.3613 37.1995 83.228C37.1995 85.076 37.8061 86.6067 39.0195 87.82C40.2515 89.0147 41.8755 89.612 43.8915 89.612C45.3848 89.612 46.6168 89.2853 47.5875 88.632C48.5768 87.96 49.2488 87.0453 49.6035 85.888H43.6675V82.472H53.4955ZM59.6878 81.408C60.0238 80.512 60.5745 79.84 61.3398 79.392C62.1238 78.944 62.9918 78.72 63.9438 78.72V82.752C62.8425 82.6213 61.8532 82.8453 60.9758 83.424C60.1172 84.0027 59.6878 84.964 59.6878 86.308V93H56.0758V79H59.6878V81.408ZM77.4648 91.264C76.0274 92.6827 74.2728 93.392 72.2008 93.392C70.1288 93.392 68.3741 92.6827 66.9368 91.264C65.5181 89.8267 64.8088 88.072 64.8088 86C64.8088 83.928 65.5181 82.1827 66.9368 80.764C68.3741 79.3267 70.1288 78.608 72.2008 78.608C74.2728 78.608 76.0274 79.3267 77.4648 80.764C78.9021 82.1827 79.6208 83.928 79.6208 86C79.6208 88.072 78.9021 89.8267 77.4648 91.264ZM69.4848 88.772C70.2128 89.5 71.1181 89.864 72.2008 89.864C73.2834 89.864 74.1888 89.5 74.9168 88.772C75.6448 88.044 76.0088 87.12 76.0088 86C76.0088 84.88 75.6448 83.956 74.9168 83.228C74.1888 82.5 73.2834 82.136 72.2008 82.136C71.1181 82.136 70.2128 82.5 69.4848 83.228C68.7754 83.956 68.4208 84.88 68.4208 86C68.4208 87.12 68.7754 88.044 69.4848 88.772ZM97.3789 79H101.215L96.7629 93H93.3189L90.7429 84.516L88.1669 93H84.7229L80.2709 79H84.1069L86.4869 87.596L89.0349 79H92.4509L94.9989 87.624L97.3789 79ZM119.29 79H123.154L118.058 93C117.33 95.016 116.359 96.472 115.146 97.368C113.951 98.2827 112.458 98.6933 110.666 98.6V95.24C111.636 95.2587 112.402 95.0533 112.962 94.624C113.54 94.1947 113.998 93.504 114.334 92.552L108.594 79H112.542L116.182 88.408L119.29 79ZM136.254 91.264C134.816 92.6827 133.062 93.392 130.99 93.392C128.918 93.392 127.163 92.6827 125.726 91.264C124.307 89.8267 123.598 88.072 123.598 86C123.598 83.928 124.307 82.1827 125.726 80.764C127.163 79.3267 128.918 78.608 130.99 78.608C133.062 78.608 134.816 79.3267 136.254 80.764C137.691 82.1827 138.41 83.928 138.41 86C138.41 88.072 137.691 89.8267 136.254 91.264ZM128.274 88.772C129.002 89.5 129.907 89.864 130.99 89.864C132.072 89.864 132.978 89.5 133.706 88.772C134.434 88.044 134.798 87.12 134.798 86C134.798 84.88 134.434 83.956 133.706 83.228C132.978 82.5 132.072 82.136 130.99 82.136C129.907 82.136 129.002 82.5 128.274 83.228C127.564 83.956 127.21 84.88 127.21 86C127.21 87.12 127.564 88.044 128.274 88.772ZM150.191 79H153.803V93H150.191V91.432C149.313 92.7387 147.923 93.392 146.019 93.392C144.488 93.392 143.219 92.8787 142.211 91.852C141.221 90.8253 140.727 89.4067 140.727 87.596V79H144.339V87.148C144.339 88.0813 144.591 88.8 145.095 89.304C145.599 89.7893 146.271 90.032 147.111 90.032C148.044 90.032 148.791 89.7427 149.351 89.164C149.911 88.5853 150.191 87.7173 150.191 86.56V79ZM160.723 81.408C161.059 80.512 161.61 79.84 162.375 79.392C163.159 78.944 164.027 78.72 164.979 78.72V82.752C163.878 82.6213 162.888 82.8453 162.011 83.424C161.152 84.0027 160.723 84.964 160.723 86.308V93H157.111V79H160.723V81.408ZM193.495 82.472V83.984C193.495 86.784 192.599 89.052 190.807 90.788C189.015 92.524 186.701 93.392 183.863 93.392C180.839 93.392 178.329 92.412 176.331 90.452C174.353 88.4733 173.363 86.0653 173.363 83.228C173.363 80.372 174.343 77.9547 176.303 75.976C178.282 73.9973 180.727 73.008 183.639 73.008C185.469 73.008 187.139 73.428 188.651 74.268C190.163 75.0893 191.339 76.1907 192.179 77.572L188.875 79.476C188.409 78.6733 187.699 78.02 186.747 77.516C185.814 77.012 184.769 76.76 183.611 76.76C181.745 76.76 180.205 77.376 178.991 78.608C177.797 79.8213 177.199 81.3613 177.199 83.228C177.199 85.076 177.806 86.6067 179.019 87.82C180.251 89.0147 181.875 89.612 183.891 89.612C185.385 89.612 186.617 89.2853 187.587 88.632C188.577 87.96 189.249 87.0453 189.603 85.888H183.667V82.472H193.495ZM206.716 79H210.328V93H206.716V91.348C205.633 92.7107 204.112 93.392 202.152 93.392C200.285 93.392 198.68 92.6827 197.336 91.264C196.01 89.8267 195.348 88.072 195.348 86C195.348 83.928 196.01 82.1827 197.336 80.764C198.68 79.3267 200.285 78.608 202.152 78.608C204.112 78.608 205.633 79.2893 206.716 80.652V79ZM200.052 88.856C200.78 89.584 201.704 89.948 202.824 89.948C203.944 89.948 204.868 89.584 205.596 88.856C206.342 88.1093 206.716 87.1573 206.716 86C206.716 84.8427 206.342 83.9 205.596 83.172C204.868 82.4253 203.944 82.052 202.824 82.052C201.704 82.052 200.78 82.4253 200.052 83.172C199.324 83.9 198.96 84.8427 198.96 86C198.96 87.1573 199.324 88.1093 200.052 88.856ZM229.087 78.608C230.693 78.608 231.971 79.1307 232.923 80.176C233.894 81.2213 234.379 82.6213 234.379 84.376V93H230.767V84.628C230.767 83.788 230.562 83.1347 230.151 82.668C229.741 82.2013 229.162 81.968 228.415 81.968C227.594 81.968 226.95 82.2387 226.483 82.78C226.035 83.3213 225.811 84.1053 225.811 85.132V93H222.199V84.628C222.199 83.788 221.994 83.1347 221.583 82.668C221.173 82.2013 220.594 81.968 219.847 81.968C219.045 81.968 218.401 82.2387 217.915 82.78C217.449 83.3213 217.215 84.1053 217.215 85.132V93H213.603V79H217.215V80.484C218.055 79.2333 219.353 78.608 221.107 78.608C222.825 78.608 224.094 79.28 224.915 80.624C225.849 79.28 227.239 78.608 229.087 78.608ZM239.239 77.32C238.642 77.32 238.119 77.1053 237.671 76.676C237.242 76.228 237.027 75.7053 237.027 75.108C237.027 74.5107 237.242 73.988 237.671 73.54C238.119 73.092 238.642 72.868 239.239 72.868C239.855 72.868 240.378 73.092 240.807 73.54C241.255 73.988 241.479 74.5107 241.479 75.108C241.479 75.7053 241.255 76.228 240.807 76.676C240.378 77.1053 239.855 77.32 239.239 77.32ZM237.447 93V79H241.059V93H237.447ZM252.149 78.608C253.68 78.608 254.94 79.1213 255.929 80.148C256.937 81.1747 257.441 82.5933 257.441 84.404V93H253.829V84.852C253.829 83.9187 253.577 83.2093 253.073 82.724C252.569 82.22 251.897 81.968 251.057 81.968C250.124 81.968 249.377 82.2573 248.817 82.836C248.257 83.4147 247.977 84.2827 247.977 85.44V93H244.365V79H247.977V80.568C248.854 79.2613 250.245 78.608 252.149 78.608ZM271.249 79H274.777V92.328C274.777 94.4933 274.058 96.1453 272.621 97.284C271.202 98.4227 269.485 98.992 267.469 98.992C265.957 98.992 264.622 98.7027 263.465 98.124C262.326 97.5453 261.449 96.696 260.833 95.576L263.913 93.812C264.622 95.1187 265.845 95.772 267.581 95.772C268.72 95.772 269.616 95.4733 270.269 94.876C270.922 94.2787 271.249 93.4293 271.249 92.328V90.816C270.185 92.2347 268.692 92.944 266.769 92.944C264.79 92.944 263.129 92.2533 261.785 90.872C260.46 89.472 259.797 87.7733 259.797 85.776C259.797 83.7973 260.469 82.108 261.813 80.708C263.157 79.308 264.809 78.608 266.769 78.608C268.692 78.608 270.185 79.3173 271.249 80.736V79ZM264.501 88.548C265.248 89.2573 266.19 89.612 267.329 89.612C268.468 89.612 269.401 89.2573 270.129 88.548C270.876 87.82 271.249 86.896 271.249 85.776C271.249 84.6747 270.876 83.7693 270.129 83.06C269.401 82.332 268.468 81.968 267.329 81.968C266.19 81.968 265.248 82.332 264.501 83.06C263.773 83.7693 263.409 84.6747 263.409 85.776C263.409 86.896 263.773 87.82 264.501 88.548ZM71.1453 127.392C68.196 127.392 65.76 126.412 63.8373 124.452C61.9146 122.492 60.9533 120.075 60.9533 117.2C60.9533 114.307 61.9146 111.889 63.8373 109.948C65.76 107.988 68.196 107.008 71.1453 107.008C72.9186 107.008 74.552 107.428 76.0453 108.268C77.5573 109.089 78.7333 110.209 79.5733 111.628L76.2413 113.56C75.756 112.683 75.0653 112.001 74.1693 111.516C73.2733 111.012 72.2653 110.76 71.1453 110.76C69.2413 110.76 67.7013 111.357 66.5253 112.552C65.368 113.747 64.7893 115.296 64.7893 117.2C64.7893 119.085 65.368 120.625 66.5253 121.82C67.7013 123.015 69.2413 123.612 71.1453 123.612C72.2653 123.612 73.2733 123.369 74.1693 122.884C75.084 122.38 75.7746 121.699 76.2413 120.84L79.5733 122.772C78.7333 124.191 77.5666 125.32 76.0733 126.16C74.58 126.981 72.9373 127.392 71.1453 127.392ZM93.789 125.264C92.3517 126.683 90.597 127.392 88.525 127.392C86.453 127.392 84.6983 126.683 83.261 125.264C81.8423 123.827 81.133 122.072 81.133 120C81.133 117.928 81.8423 116.183 83.261 114.764C84.6983 113.327 86.453 112.608 88.525 112.608C90.597 112.608 92.3517 113.327 93.789 114.764C95.2263 116.183 95.945 117.928 95.945 120C95.945 122.072 95.2263 123.827 93.789 125.264ZM85.809 122.772C86.537 123.5 87.4423 123.864 88.525 123.864C89.6077 123.864 90.513 123.5 91.241 122.772C91.969 122.044 92.333 121.12 92.333 120C92.333 118.88 91.969 117.956 91.241 117.228C90.513 116.5 89.6077 116.136 88.525 116.136C87.4423 116.136 86.537 116.5 85.809 117.228C85.0997 117.956 84.745 118.88 84.745 120C84.745 121.12 85.0997 122.044 85.809 122.772ZM113.97 112.608C115.575 112.608 116.854 113.131 117.806 114.176C118.777 115.221 119.262 116.621 119.262 118.376V127H115.65V118.628C115.65 117.788 115.445 117.135 115.034 116.668C114.623 116.201 114.045 115.968 113.298 115.968C112.477 115.968 111.833 116.239 111.366 116.78C110.918 117.321 110.694 118.105 110.694 119.132V127H107.082V118.628C107.082 117.788 106.877 117.135 106.466 116.668C106.055 116.201 105.477 115.968 104.73 115.968C103.927 115.968 103.283 116.239 102.798 116.78C102.331 117.321 102.098 118.105 102.098 119.132V127H98.486V113H102.098V114.484C102.938 113.233 104.235 112.608 105.99 112.608C107.707 112.608 108.977 113.28 109.798 114.624C110.731 113.28 112.122 112.608 113.97 112.608ZM137.814 112.608C139.419 112.608 140.698 113.131 141.65 114.176C142.62 115.221 143.106 116.621 143.106 118.376V127H139.494V118.628C139.494 117.788 139.288 117.135 138.878 116.668C138.467 116.201 137.888 115.968 137.142 115.968C136.32 115.968 135.676 116.239 135.21 116.78C134.762 117.321 134.538 118.105 134.538 119.132V127H130.926V118.628C130.926 117.788 130.72 117.135 130.31 116.668C129.899 116.201 129.32 115.968 128.574 115.968C127.771 115.968 127.127 116.239 126.642 116.78C126.175 117.321 125.942 118.105 125.942 119.132V127H122.33V113H125.942V114.484C126.782 113.233 128.079 112.608 129.834 112.608C131.551 112.608 132.82 113.28 133.642 114.624C134.575 113.28 135.966 112.608 137.814 112.608ZM155.413 113H159.025V127H155.413V125.432C154.536 126.739 153.145 127.392 151.241 127.392C149.711 127.392 148.441 126.879 147.433 125.852C146.444 124.825 145.949 123.407 145.949 121.596V113H149.561V121.148C149.561 122.081 149.813 122.8 150.317 123.304C150.821 123.789 151.493 124.032 152.333 124.032C153.267 124.032 154.013 123.743 154.573 123.164C155.133 122.585 155.413 121.717 155.413 120.56V113ZM170.118 112.608C171.648 112.608 172.908 113.121 173.898 114.148C174.906 115.175 175.41 116.593 175.41 118.404V127H171.798V118.852C171.798 117.919 171.546 117.209 171.042 116.724C170.538 116.22 169.866 115.968 169.026 115.968C168.092 115.968 167.346 116.257 166.786 116.836C166.226 117.415 165.946 118.283 165.946 119.44V127H162.334V113H165.946V114.568C166.823 113.261 168.214 112.608 170.118 112.608ZM180.286 111.32C179.688 111.32 179.166 111.105 178.718 110.676C178.288 110.228 178.074 109.705 178.074 109.108C178.074 108.511 178.288 107.988 178.718 107.54C179.166 107.092 179.688 106.868 180.286 106.868C180.902 106.868 181.424 107.092 181.854 107.54C182.302 107.988 182.526 108.511 182.526 109.108C182.526 109.705 182.302 110.228 181.854 110.676C181.424 111.105 180.902 111.32 180.286 111.32ZM178.494 127V113H182.106V127H178.494ZM193.42 116.472H190.256V122.296C190.256 122.781 190.377 123.136 190.62 123.36C190.862 123.584 191.217 123.715 191.684 123.752C192.15 123.771 192.729 123.761 193.42 123.724V127C190.937 127.28 189.182 127.047 188.156 126.3C187.148 125.553 186.644 124.219 186.644 122.296V116.472H184.208V113H186.644V110.172L190.256 109.08V113H193.42V116.472ZM197.758 111.32C197.161 111.32 196.638 111.105 196.19 110.676C195.761 110.228 195.546 109.705 195.546 109.108C195.546 108.511 195.761 107.988 196.19 107.54C196.638 107.092 197.161 106.868 197.758 106.868C198.374 106.868 198.897 107.092 199.326 107.54C199.774 107.988 199.998 108.511 199.998 109.108C199.998 109.705 199.774 110.228 199.326 110.676C198.897 111.105 198.374 111.32 197.758 111.32ZM195.966 127V113H199.578V127H195.966ZM205.936 121.484C206.422 123.239 207.738 124.116 209.884 124.116C211.266 124.116 212.311 123.649 213.02 122.716L215.932 124.396C214.551 126.393 212.516 127.392 209.828 127.392C207.514 127.392 205.656 126.692 204.256 125.292C202.856 123.892 202.156 122.128 202.156 120C202.156 117.891 202.847 116.136 204.228 114.736C205.61 113.317 207.383 112.608 209.548 112.608C211.602 112.608 213.291 113.317 214.616 114.736C215.96 116.155 216.632 117.909 216.632 120C216.632 120.467 216.586 120.961 216.492 121.484H205.936ZM205.88 118.684H213.02C212.815 117.732 212.386 117.023 211.732 116.556C211.098 116.089 210.37 115.856 209.548 115.856C208.578 115.856 207.775 116.108 207.14 116.612C206.506 117.097 206.086 117.788 205.88 118.684ZM221.939 116.976C221.939 117.349 222.182 117.657 222.667 117.9C223.171 118.124 223.778 118.329 224.487 118.516C225.196 118.684 225.906 118.908 226.615 119.188C227.324 119.449 227.922 119.897 228.407 120.532C228.911 121.167 229.163 121.96 229.163 122.912C229.163 124.349 228.622 125.46 227.539 126.244C226.475 127.009 225.14 127.392 223.535 127.392C220.66 127.392 218.7 126.281 217.655 124.06L220.791 122.296C221.202 123.509 222.116 124.116 223.535 124.116C224.823 124.116 225.467 123.715 225.467 122.912C225.467 122.539 225.215 122.24 224.711 122.016C224.226 121.773 223.628 121.559 222.919 121.372C222.21 121.185 221.5 120.952 220.791 120.672C220.082 120.392 219.475 119.953 218.971 119.356C218.486 118.74 218.243 117.975 218.243 117.06C218.243 115.679 218.747 114.596 219.755 113.812C220.782 113.009 222.051 112.608 223.563 112.608C224.702 112.608 225.738 112.869 226.671 113.392C227.604 113.896 228.342 114.624 228.883 115.576L225.803 117.256C225.355 116.304 224.608 115.828 223.563 115.828C223.096 115.828 222.704 115.931 222.387 116.136C222.088 116.341 221.939 116.621 221.939 116.976Z" fill="#F5F5F5"/>
</svg>
