<svg width="48" height="48" viewBox="0 0 48 48" fill="none" xmlns="http://www.w3.org/2000/svg">
<rect x="0.5" y="0.5" width="47" height="47" rx="23.5" stroke="#1F252F"/>
<path d="M32.143 16.8239C32.143 16.7159 32.0359 16.608 31.9289 16.5C31.7148 16.5 31.5007 16.5 31.2867 16.5C31.2867 16.5 16.3016 21.8977 15.4453 22.5455C15.1242 22.7614 15.1242 22.8693 15.0172 22.8693C14.9101 23.3011 15.3383 23.517 15.3383 23.517L19.1916 24.8125C19.2986 24.8125 19.2986 24.8125 19.4057 24.8125C20.262 24.2727 28.2897 19.1989 28.7178 18.983C28.8248 18.983 28.8248 18.983 28.8248 18.983C28.6108 19.6307 21.7605 25.7841 21.7605 25.892C21.7605 25.892 21.6534 26 21.7605 26L21.4393 29.7784C21.4393 29.7784 21.3323 30.9659 22.5097 29.7784C23.366 28.9148 24.1153 28.267 24.5434 27.9432C25.8278 28.9148 27.3263 29.8864 27.9686 30.4261C28.1826 30.642 28.5037 30.75 28.7178 30.75C29.0389 30.75 29.36 30.4261 29.4671 30.1023C29.4671 30.1023 32.25 18.983 32.25 17.4716C32.25 17.3636 32.25 17.2557 32.25 17.1477C32.143 17.0398 32.143 16.9318 32.143 16.8239Z" fill="#EDEDFF"/>
</svg>
