<svg width="41" height="40" viewBox="0 0 41 40" fill="none" xmlns="http://www.w3.org/2000/svg">
<path d="M40.5 20C40.5 31.0457 31.5457 40 20.5 40C9.4543 40 0.5 31.0457 0.5 20C0.5 8.9543 9.4543 0 20.5 0C31.5457 0 40.5 8.9543 40.5 20ZM4.5 20C4.5 28.8366 11.6634 36 20.5 36C29.3366 36 36.5 28.8366 36.5 20C36.5 11.1634 29.3366 4 20.5 4C11.6634 4 4.5 11.1634 4.5 20Z" fill="#00D656"/>
<path d="M23.5 23V20H26.5V18L30.5 21.5L26.5 25V23H23.5ZM22.5 16.7V18H10.5V16.7L16.5 13L22.5 16.7ZM15.5 19H17.5V24H15.5V19ZM11.5 19H13.5V24H11.5V19ZM21.5 19V21.5L19.5 23.3V19H21.5ZM17.6 25L17 25.5L18.7 27H10.5V25H17.6ZM25.5 24V27H22.5V29L18.5 25.5L22.5 22V24H25.5Z" fill="#00D656"/>
</svg>
