<svg width="48" height="48" viewBox="0 0 48 48" fill="none" xmlns="http://www.w3.org/2000/svg">
<rect x="0.5" y="0.5" width="47" height="47" rx="23.5" stroke="#1F252F"/>
<path d="M33 18.1442C32.3531 18.4731 31.7063 18.5827 30.9516 18.6923C31.7063 18.2538 32.2453 17.5962 32.4609 16.7192C31.8141 17.1577 31.0594 17.3769 30.1969 17.5962C29.55 16.9385 28.5797 16.5 27.6094 16.5C25.7766 16.5 24.1594 18.1442 24.1594 20.1173C24.1594 20.4462 24.1594 20.6654 24.2672 20.8846C21.3562 20.775 18.6609 19.35 16.9359 17.1577C16.6125 17.7058 16.5047 18.2538 16.5047 19.0212C16.5047 20.2269 17.1516 21.3231 18.1219 21.9808C17.5828 21.9808 17.0438 21.7615 16.5047 21.5423C16.5047 23.2962 17.6906 24.7212 19.3078 25.05C18.9844 25.1596 18.6609 25.1596 18.3375 25.1596C18.1219 25.1596 17.9062 25.1596 17.6906 25.05C18.1219 26.475 19.4156 27.5712 21.0328 27.5712C19.8469 28.5577 18.3375 29.1058 16.6125 29.1058C16.2891 29.1058 16.0734 29.1058 15.75 29.1058C17.3672 30.0923 19.2 30.75 21.1406 30.75C27.6094 30.75 31.1672 25.2692 31.1672 20.5558C31.1672 20.4462 31.1672 20.2269 31.1672 20.1173C31.9219 19.5692 32.5688 18.9115 33 18.1442Z" fill="#EDEDFF"/>
</svg>
